<?xml version="1.0" standalone="no"?>
<!DOCTYPE svg PUBLIC "-//W3C//DTD SVG 1.1//EN" "http://www.w3.org/Graphics/SVG/1.1/DTD/svg11.dtd" >
<svg xmlns="http://www.w3.org/2000/svg">
<metadata></metadata>
<defs>
<font id="CopystructBold" horiz-adv-x="1536" >
<font-face units-per-em="2048" ascent="1638" descent="-410" />
<missing-glyph horiz-adv-x="743" />
<glyph horiz-adv-x="0" />
<glyph horiz-adv-x="2048" />
<glyph unicode="&#xd;" horiz-adv-x="743" />
<glyph unicode=" "  horiz-adv-x="743" />
<glyph unicode="&#x09;" horiz-adv-x="743" />
<glyph unicode="&#xa0;" horiz-adv-x="743" />
<glyph unicode="!" horiz-adv-x="632" d="M113 1227q0 -39 -93 -99l-12 91q0 66 51 65q54 0 54 -57zM100 1182q0 -27 -92 -191l-10 170q-2 23 13.5 51.5t37.5 28.5q51 0 51 -59zM479 1614q-10 -68 -10 -105t2 -49q-2 12 -2 13q-18 -45 -39 -46q-18 0 -37 48q-2 -8 -4 -13l10 -2l74 -10q0 -61 -16 -188l-103 -127 v118q-31 12 -30 33q0 27 49 47l-6 -47v-6l14 39q12 -14 16 -37h37l6 -53v-10q25 -86 25 -121q0 -92 -62 -168q16 -8 27 -15q-6 -84 0 -148t6 -104t-14 -98l-4 -2q-6 -66 -25 -182q23 -60 0 -111q10 -55 10 -98v-74q-31 29 -34 47l-15 -61q-29 -4 -123 -21q-35 115 -41.5 150 t-7 98.5t-18.5 132.5l26 21q8 6 3 -4l-11 -10q18 -8 37 -15q-10 4 -29 29q-10 18 -43 94q0 33 12.5 76t12.5 68.5t-19.5 92t-19.5 112.5t14 243l-20 23q-4 27 -4 62t2 46v6q0 8 1 20.5t1 18.5h2l-25 37q8 33 29 43q-4 51 -8 145q29 16 55 56l33 6q23 0 43 -15l42 19 q42 20 67.5 20.5t113.5 -24.5zM100 1092q0 -31 -92 -146l-10 133q-2 16 16.5 43t34.5 27q51 0 51 -57zM12 836l11 215l83 -4l-10 -216zM123 799q0 -35 -92 -94l-11 92q0 61 51.5 61t51.5 -59zM123 731q0 -29 -80 -129q-23 111 -23 125q0 63 54 64q49 -1 49 -60zM135 668 q0 -41 -96 -90l-6 84q-4 63 49 63q14 0 33.5 -19.5t19.5 -37.5zM123 612q0 -29 -80 -129q-23 109 -23 123q0 66 54 66q49 -1 49 -60zM238 338q0 -39 -95 -96l-8 88q-2 23 12.5 44t36.5 21q54 0 54 -57zM145 389q0 -33 -92 -180q-10 74 -10 123q0 117 51 117q51 -1 51 -60z M287 260q-18 -188 -19 -348q-47 0 -74 38t-26.5 71.5t119.5 238.5zM106 -154q-51 0 -74 27t-23.5 61.5t97.5 133.5v-222zM100 29q0 -27 -92 -191l-10 172q-2 23 13.5 51.5t37.5 28.5q51 0 51 -61zM440 -47l6 -209q0 -154 -145 -154q-115 0 -137 -4q-8 86 -25 238 q-16 6 -176 86q104 14 213 20q16 29 92 56v-29q37 4 61 4t111 -8zM250 498q0 18 -19.5 37.5t-33.5 19.5q-53 0 -50 -66l7 -83q96 49 96 92zM244 322v229q-98 -109 -99 -148q1 -81 99 -81z" />
<glyph unicode="&#x22;" horiz-adv-x="622" d="M477 1874q-14 -162 -14 -262q-45 0 -70 26.5t-25 49t109 186.5zM295 1733q0 -31 -88 -72l-8 68q0 51 47 51q14 0 31.5 -15.5t17.5 -31.5zM211 1460l12 144q37 18 37 20q-4 4 -41 -2q53 -37 57 -47q-6 4 -43 33q4 4 13 16q14 31 29.5 59.5t70.5 45.5l78 -31q0 -59 -4 -133 q29 -21 92 -74h-137l41 39q0 -6 1 -18.5t1 -26.5t-8 -31l26 -39q-57 -27 -129 -31l2 15q-25 -20 -49 -25l-39 35q-10 31 -10 51zM285 1669q0 -43 -4 -70l-50 -315l-38 305q-2 14 8 88zM211 1405q-100 -37 -119 -37q-16 8 -80 25q0 -23 -6 235l8 4l-2 15q0 18 2 26 q35 41 53.5 54t45 13.5t57.5 -5.5t41 -6q-12 -100 -12 -169t12 -155zM459 1628q0 35 -64 62q-35 -55 -33 -80l11 -234q86 229 86 252zM209 1726q0 18 -16.5 33t-30.5 15q-47 0 -47 -54l8 -75q86 52 86 81zM225 1696q0 47 -48 47t-48 -51l10 -70q86 45 86 74z" />
<glyph unicode="#" horiz-adv-x="724" d="M563 725q8 -57 -51 -57l-45 8v37q-6 18 -6 53l35 14q67 0 67 -55zM516 709l-88 -23q0 -23 -6 -90l2 -4l-43 35h29l10 -15l2 -2v8q6 0 65 17q4 -41 5 -51l417 -92h-420l-8 -29q-55 14 -59 14l-2 2l-12 -12h-9l-24 -66l-49 88l80 21l-3 -35l-6 -90q-63 0 -63 12t18 33 q-10 39 1.5 43t35.5 4l2 -28l2 -17v-14l-2 -39q0 -59 -18 -82v-45h-129l-27 47q8 59 25 182l6 6v19l86 -2l-29 -291l-61 256h-13q-8 0 -10 -2t2 -12.5t4 -17.5t-20 -87q0 -18 -4 -65q-35 -35 -62 -35q-2 0 -25.5 8t-23.5 6h12q-53 16 -53 84l19 117l2 8h-6q-14 0 -103 -6 l45 76l-8 14v64q72 -4 86 -5q6 25 14 74q-20 0 -51 8l-35 37q0 59 -6 105q86 0 113 -4q2 2 2 7t-2 21v25l2 29l12 12q6 18 -4 82h100l-38 -41l51 -39q-20 -6 -88 -6q-2 68 10 145q98 0 149 4q-6 -27 -24 -153l-6 -9v-18l-4 -33l-9 -4l7 -59l-27 24l-27 -28v356l80 -297 q2 -8 4 -14h10l-6 -6h-2l21 -46q-41 16 -41 54v49l16 2l-8 2l6 16l-4 7l14 53q2 23 21 78h6v36q72 -20 74 -20q45 -20 45 -57q0 -10 -4 -31l-43 53q27 -39 37 -67h12q-2 -39 -21 -109q2 -4 2 -8q23 -2 107 -2l-19 -39q-2 -6 -22 -55l-80 34l19 35h83v-65l-22 24zM467 508 l-70 -272q-16 113 -16 198.5t37 85.5zM362 866q59 2 101.5 23t42.5 32t-27.5 30.5t-54.5 23.5zM524 924l-51 14q-39 0 -39 -69.5t19 -174.5zM393 920q0 16 -16.5 32.5t-30.5 16.5q-47 0 -47 -56l8 -77q86 53 86 84zM360 885q0 47 -51 49q-14 0 -38.5 -18.5t-24.5 -36.5 t20.5 -34t33.5 -16t36.5 18t23.5 38zM469 874l-45 19q-37 0 -37 -83t21 -194zM504 735l-53 17q-55 0 -56 -86q0 -56 19 -183zM477 608q0 49 -47 49t-47 -53l10 -82q84 59 84 86zM293 567v314q-88 -236 -91 -259.5t18.5 -40t72.5 -14.5zM461 506l-86 12l-4 -29l86 -12z M291 598q0 49 -47 49t-47 -53l10 -70q84 41 84 74zM399 414l-12 2h-27q-49 6 -49 -88l43 -4h41zM319 451l-83 16l-5 -21l84 -16zM274 498l-86 10l-4 -29l86 -10zM317 424l-86 12l-6 -33l86 -14zM264 440l-86 17l-4 -29l86 -16zM193 317q90 15 90 62t-48.5 47t-48.5 -53z M266 393q0 16 -16.5 32.5t-30.5 16.5q-47 0 -47 -55l10 -78q84 55 84 84zM518 903l-57 -162q-57 94 -58 111q0 51 115 51zM487 678q0 -35 -88 -72l-6 68q0 53 47 53t47 -49zM479 643l-6 -31l-84 17l4 30zM346 659h-96q-4 -29 -4 -45v-2q8 8 37 23q14 -23 28 -49l-32 20 l-23 -14l-2 14l-6 66h6l-27 147l117 -145l-78 -31v45h-14q-2 20 12 21q23 -1 82 -50zM297 670l-4 -35l-86 14l4 35zM504 836l-86 16l-4 -31l84 -16z" />
<glyph unicode="$" horiz-adv-x="1124" d="M715 1077q0 -37 -99 -92l-10 88q0 61 53 62q56 -1 56 -58zM580 803q10 0 30 -8q20 25 70 43q27 -68 20 -90q45 -16 67 -31.5t28 -50.5v-4q6 6 6 8q23 0 49 -13l10 -36q35 -8 41 -33q4 -12 4 -60l2 2q43 -80 43 -180v-6q-8 -6 -18 -6l33 -29q-6 -33 -31 -118.5t-34 -102 t-50 -43.5q-18 -56 -45 -80l-29 -8q-63 -63 -85.5 -76.5t-106.5 -36.5q2 -12 8 -39q-10 -16 -33 -43q4 2 8 2l-10 25l41 -39q-4 -25 -20 -63l28 -74q-49 -2 -85 -3t-44 -1q-96 0 -96 131q0 14 10 92q-84 29 -171 61.5t-154 88.5l-9 30h-6q-57 6 -49 115q57 53 131 174 q31 -25 98 -72q45 -25 82 -57l6 -20q8 -2 35 -2t41 2q2 39 -2 112.5t-4 104.5l21 135q0 18 -97 57q-156 63 -215 209q-39 57 -30 119l-11 4q-16 47 -16 94q0 127 68 260q76 152 184 180q49 10 104 31q2 4 2 50.5t9 74.5l53 57q72 -8 103.5 -29.5t25.5 -80.5v-17 q-2 -12 -2 -20q0 -27 65.5 -39t96.5 -47q16 8 30 8t45 -14l29 -53q18 -6 74 -33q-35 -96 -129 -242q-164 82 -197 82q-14 0 -14 -29l12 -122q0 -33 -16 -84l-54 -17l23 33l-57 37l16 6q53 0 61 -45l2 -4q2 -59 5 -127zM979 215q0 -29 -98 -313l-9 282q0 35 37 111 q70 -43 70 -74v-6zM971 66q0 -39 -99 -84l-10 81q0 59 51 60q58 0 58 -57zM950 14q0 -29 -98 -131l-10 123q-6 66 55 66q53 -1 53 -58zM371 569q0 -27 -95 -178l-14 180l39 68q70 -31 70 -70zM694 -223q0 -20 -5 -31.5t-93 -151.5q-10 70 -10 119q0 121 57 121q51 0 51 -57z M694 -336q0 -29 -98 -139l-10 127q-2 20 14 44.5t39 24.5q55 0 55 -57zM633 983v215q-104 -102 -105 -139q1 -76 105 -76zM449 1159h-29q-16 -12 -34.5 -25.5t-53.5 -15.5q16 0 16 -24q0 4 -12 -51t-12 -81t32.5 -75t40.5 -49t4 20.5t0 51.5q7 55 2.5 158.5t-2.5 141.5z M637 799q0 57 -55 57q-20 0 -37 -23.5t-17 -41.5l13 -129q96 110 96 137zM594 309l-21 135q0 4 1 12.5t1 10.5q70 -27 84.5 -51.5t14.5 -90t-8 -91.5q-9 -31 -50 -58l-4 25q-94 -18 -94 -76q0 -4 1 -13t1 -16q18 14 60 43q-6 6 -7 11v57zM627 295q0 55 -54.5 55t-54.5 -61 l10 -88q99 59 99 94zM623 137v215q-104 -106 -105 -141q1 -74 105 -74zM596 2q100 229 100 260t-65 72q-45 -68 -43 -105zM616 -264q0 57 -55 57q-20 0 -36.5 -23.5t-16.5 -41.5l12 -129q96 110 96 137z" />
<glyph unicode="%" horiz-adv-x="1294" d="M1083 1227q0 -37 -102 -94l-10 92q0 63 53 63q59 0 59 -61zM1057 1194q0 -27 -11.5 -38t-13.5 -15l-18 -19l-21 -2q-23 -2 -42 14.5t-19 43.5q0 70 72 69q53 0 53 -53zM958 940q0 -39 -100 -90l-14 86q0 63 53 63q61 0 61 -59zM883 786q0 -39 -107 -102l-8 90 q-2 25 13.5 46.5t37.5 21.5t43 -18t21 -38zM655 952q0 -35 -102 -96l-12 92q0 63 55 64q59 -1 59 -60zM131 1581q10 0 78 57h123q39 -45 51 -45q74 0 94 -94q8 -12 41 -44t43 -68.5t10 -106.5q0 -158 -53 -283q-70 -160 -196 -159h-15v-27q-82 -6 -98 23q-150 0 -197 167 q-25 84 -24.5 256t55.5 240q6 8 6 43q33 41 82 41zM858 719q0 -37 -102 -94l-15 90q0 61 56 61q16 0 38.5 -18.5t22.5 -38.5zM539 1042q16 -21 16 -47.5t-106 -273.5l-9 252q0 20 18.5 55t41.5 35t39 -21zM983 1630l117 -6l33 -72q-20 -59 -64 -59h-8q0 33 26 35q-8 0 -9 -4 t-1 -31v-18q4 6 17 12q-6 -37 -17 -66l-20 2l39 -80h-60q-27 -57 -80 -194l-14 -8q0 -2 1 -9.5t1 -11.5q0 -39 -26.5 -62t-45.5 -40q-4 -39 -7 -49q-6 -20 -19 -33q2 -4 12 -23q-27 -70 -72 -75q17 -7 17 -17q0 -29 -58 -80q-6 -39 -30 -118l-25 -13q-12 -41 -24.5 -78.5 t-36.5 -62t-32.5 -73t-21.5 -70.5l-40 -31v-4q2 -6 2 -25.5t-68 -152.5h-8q0 -27 -24.5 -52.5t-24.5 -64.5t-39 -82l-17 -18q-33 -37 -32.5 -66t-25.5 -50.5t-26 -47.5q0 -66 -96 -99q-74 -16 -145 -32l6 63q-16 32 -17 57l9 46l34 12v53q35 8 103 29q16 35 37 45l-19 -51 q14 -2 25 -21q-16 0 -70 21v84q0 16 17.5 52t17.5 69.5t35 70.5t35 83t47 100.5t47 94.5t27.5 68.5t29.5 32.5q23 72 82 211l37 24q10 31 33 95h6q4 41 48 102.5t42 112.5q23 35 64 51q0 -2 2 -4t2 -4q16 43 45 125q-12 23 -13 47l7 35l32 22v14q-2 10 -2 15q0 37 36 77 t38 66q8 70 36 100.5t93 30.5zM700 735q-293 -43 -579 -65l225 114q0 -25 -18 -36q20 0 28 -19l9 70q-8 2 34 2t62 -2zM705 406q0 -41 -107 -95l-6 86q-2 25 13.5 45.5t39.5 20.5q60 0 60 -57zM897 -414l-131 2q-18 31 -29 64h-4q-80 18 -98 41q-25 25 -27 104l-22 27 q-23 86 -23 184q0 188 76 246q35 27 41 49.5t12 32.5q20 29 90 29h4q45 52 168 12q45 -14 90 -31q10 -39 14.5 -49t22.5 -25q41 -31 45 -90l27 -14q-2 -80 8 -238l-59 -16q2 -2 2 -4l-33 37l84 -27q-20 -74 -63 -184q-12 -20 -101 -92l-30 -47q-33 -10 -64 -11zM592 182 q0 -39 -103 -98l-12 90q0 66 55 66q60 -1 60 -58zM502 -12l-49 -97q-23 18 -64 56q-23 25 -22.5 50.5t22 41.5t41.5 16q49 1 72 -67zM870 952q0 59 -61 60q-53 0 -53 -64l10 -92q104 61 104 96zM412 1112l-37 184l-68 -215q-12 -6 -40 -6t-42 8l-26 62l20 39q0 84 5 119.5 t36 89.5q6 -2 23 -2l6 -2v-7q16 -39 59 -96l-8 27v-4q-27 -66 -27 -88t8.5 -63.5t6.5 -61.5l39 39l43 -50v13zM668 1081q0 61 -58 62q-20 0 -37.5 -26.5t-17.5 -63.5t-29 -328q142 321 142 356zM643 862q0 59 -59 60q-55 0 -56 -66l13 -92q102 61 102 98zM201 821 q98 250 98 277t-15.5 48t-39.5 21q-25 0 -42.5 -30.5t-15.5 -53.5zM850 274q-121 -203 -121 -235.5t30 -70.5t81 -38q-2 108 10 344zM934 -23v19h-21q-6 55 -20 145q-14 2 -41 2q-47 0 -57 -55q-4 -20 -4 -114.5t12 -107.5t82 -30q37 51 43 66.5t6 74.5zM440 -29 q0 18 -21.5 38t-37.5 20q-55 0 -55 -64l8 -84q106 49 106 90z" />
<glyph unicode="&#x26;" horiz-adv-x="1947" d="M461 1317q-2 -27 -3 -41.5t-5 -26.5q6 -6 4 -20q-4 4 -105 96h115q6 37 35 109q41 63 159.5 133.5t194.5 70.5q14 0 53 -14l39 -14q4 -2 46 3t49 5q12 0 57 -6q66 -66 80 -117l4 -8l61 12q96 -145 113 -344l24 -16q-6 -23 -6 -74t-46 -92t-46 -76l-2 -12q-14 -41 -70 -56 q-16 -27 -32.5 -53t-45.5 -38.5t-55 -26.5v-4q-4 -31 -1 -28t12 19l-11 9q22 -15 31.5 -29t22 -50.5t18.5 -47.5l39 -21q4 -31 2 -51q49 -4 69.5 -26.5t36.5 -78.5q8 8 19 9q37 0 100 -121h25l-43 -31q2 23 14 68q14 27 51 61.5t47 48.5v13q-4 37 15 53l30 61h62 q186 0 186 -174q0 -82 -18 -122t-84 -79q-12 -8 -12 -35.5t-23 -64.5t-25 -45q2 -18 7 -57q37 -10 115.5 -127t129.5 -217l-125 -31q-18 0 -34 12q-29 -16 -80 -26l-27 41q-27 -12 -51 -13q-54 12 -87.5 71.5t-57.5 74.5q-12 10 -41 26q-41 -37 -84 -71q-29 -18 -105 -37 q-35 -49 -82 -49l-88 16q-2 6 -2 8q0 20 168 21h51l-143 -45q-92 -29 -107 -29q-14 0 -30 8q-35 -31 -76 -31t-93 11.5t-84 11.5q-31 0 -83 37q-29 16 -55 16l-48 8l-12 45q-43 10 -82 19.5t-88 46.5l37 57q0 -2 2 -4v-2q14 4 25 4q35 0 34 -47l13 6l-45 23q-12 4 -35 14 q-70 59 -99.5 116.5t-29.5 149.5q0 2 -2 13l-6 12l-9 4q41 31 72 51l2 -16v-10q0 -57 -55 -58q-23 0 -57 33q2 55 18 162l23 22v27q-2 16 -2.5 40t29.5 70t30 60q0 61 67.5 112.5t71.5 59.5q23 51 44 70t85 30q-12 41 -21 64q-8 21 -42.5 55.5t-34.5 124.5v21l-43 30l-4 33 q-4 27 11 71t15 66l72 43q-8 0 -53 25zM500 1194q-25 -211 -25 -358q-51 0 -82 38t-30.5 69.5t137.5 250.5zM309 1004q0 -29 -102 -140l-12 131q0 25 17 46.5t42 21.5q55 0 55 -59zM311 874q0 -37 -106 -96l-10 92q0 63 55 64q61 -1 61 -60zM324 823q0 -29 -105 -143 l-14 131q0 18 19.5 44t39.5 26q60 -1 60 -58zM401 666q0 -35 -104 -97l-12 93q0 61 55 61q61 0 61 -57zM180 442q0 -37 -104 -94l-13 90q0 63 56 64q61 -1 61 -60zM141 336q0 -31 -106 -178l-10 157q-2 20 15 50t42 30q59 0 59 -59zM115 246q0 -31 -105 -144l-12 131 q0 18 19.5 44t39.5 26q58 0 58 -57zM150 20q-59 0 -86.5 27t-27 60.5t113.5 142.5v-230zM1055 1149q-18 51 -62 133q-84 23 -116 23q-16 0 -69.5 -51.5t-53.5 -82.5q0 -55 42 -121.5t83 -76.5q4 6 16 16q76 31 86 37q43 27 47 74l2 30zM938 1008q0 20 -21.5 38.5t-43 18.5 t-38 -21.5t-16.5 -44.5l8 -90q111 58 111 99zM1186 63l-47 54l-35 -37q-43 82 -35 125q-25 14 -59.5 36.5t-38.5 75.5q0 2 -2 9q-33 23 -84 67q-25 41 -55.5 91t-49.5 51q-43 0 -96 -35v-19q-82 -76 -115 -128t-32.5 -101.5t12.5 -98.5t14 -71q39 -12 53 -59q14 4 54 4v-41 q164 -68 209 -68q111 0 292 135v10l3 15v12zM311 311q0 59 -61 60q-55 0 -55 -64l10 -86q106 53 106 90zM293 166v227q-113 -104 -113 -139t27 -61.5t86 -26.5zM324 129q0 57 -60 57q-20 0 -39.5 -25.5t-19.5 -43.5l14 -131q105 114 105 143zM1040 272q0 -37 -104 -98 l-12 94q0 63 55 64q61 -1 61 -60zM807 442q0 -39 -107 -90l-10 84q0 66 55 66q20 0 41 -16.5t21 -43.5zM1145 102q0 -31 -105 -143l-12 129q0 25 18.5 48.5t43.5 23.5q55 -1 55 -58zM1159 39q0 -41 -108 -92l-11 84q0 66 58 65q16 0 38.5 -19.5t22.5 -37.5zM858 113 q0 -29 -102 -140l-15 131q0 25 17.5 46.5t42.5 21.5q57 0 57 -59z" />
<glyph unicode="'" horiz-adv-x="356" d="M311 1706q-6 -166 -24 -219h-2q14 -22 26 -141l-47 -7h-4v-16h-27v-18l-124 24q0 119 26 244q27 2 72 10l-25 -37v-18q27 0 31 -2h4q-1 0 -67 -29q-4 74 -8.5 90.5t-32.5 77.5q76 59 103 59t99 -18zM139 1440l-39 -39l-18 -2q-45 -4 -45 45q0 18 26 53l31 4q47 0 45 -61z M125 1399q-51 16 -85 40.5t-34 35.5q0 10 23.5 27.5t31.5 17.5q43 0 52 -50zM164 1376q0 -25 -80 -116l-12 108q0 16 15 35.5t32 19.5q45 0 45 -47zM72 1436q0 -31 -84 -80l-8 74q0 53 45 53q14 0 30.5 -14.5t16.5 -32.5z" />
<glyph unicode="(" horiz-adv-x="628" d="M522 1278q0 -33 -88 -141l-12 129q0 20 16.5 43.5t34.5 23.5q49 0 49 -55zM492 1194q0 -31 -89 -139l-12 129q0 68 51 67q50 0 50 -57zM422 924q0 -37 -94 -88l-11 86q0 61 50 61q55 0 55 -59zM410 879q0 -39 -91 -91l-12 86q0 61 49 62q54 0 54 -57zM377 813 q0 -27 -41 -58.5t-74 -56.5q-23 90 -22 129q0 61 51 58q16 -10 24 -21q4 2 13 2h4q45 0 45 -53zM389 721q0 -35 -92 -272l-8 247q0 23 15 53.5t36 30.5q49 0 49 -59zM498 -422q-61 10 -81 7t-37.5 -3t-60.5 29v22l-88 136q0 6 -4 20h-2q-27 43 -55.5 92t-27.5 76.5t3 67.5 q-49 51 -51 122q-37 51 -44 79t-7 69t-4 43q-31 41 -29 80l21 39q0 -5 -11 8q-23 31 -22.5 51t22.5 59q0 20 -7 67.5t-5 74.5l4 57l4 2l7 -16q-4 16 -5 33l7 36l22 19l-2 6q-16 33 -16 71t59 124q-6 23 -6 47q0 106 82 256q18 35 141 225l6 -2l2 20l66 50q23 -10 113 -29 q-10 -53 -46 -154l-10 -8v-49l-26 -31q-4 -14 -23 -65q-6 -55 -43 -142q-4 0 -12 -8l4 -4q-10 -106 -60 -293q-23 6 -65 25q4 0 8 -2q16 37 27 37l-29 24h74v-35h4q12 -61 12 -88t-19.5 -81t-19.5 -97.5t13 -167.5q12 -37 12 -58t-12 -46q12 -6 38 -21l-34 -73 q31 -27 30 -64v-8q6 -4 11 -8q14 -43 14 -119l80 -309q29 0 43 -68q4 -14 35 -125zM379 571q0 -27 -90 -139l-13 129q0 68 54 68q49 -1 49 -58zM379 489q0 -27 -90 -139l-13 129q0 68 54 68q49 -1 49 -58zM379 420q0 -29 -90 -139l-13 129q0 68 54 67q49 0 49 -57zM379 326 q0 -37 -90 -95l-13 88q0 63 50 64q53 0 53 -57zM410 186q0 -39 -91 -98l-12 92q0 61 49 62q14 0 34 -19t20 -37zM420 137q0 -29 -88 -139l-15 129q0 68 54 68q49 -1 49 -58zM451 10q0 -37 -91 -96l-12 90q0 61 49 62q14 0 34 -19t20 -37zM545 -113l-125 -59l-53 66v12 q8 53 55 53q8 -8 18 -22zM461 -27q0 -33 -88 -139l-15 129q0 68 54 68q49 -1 49 -58zM391 688l-49 162l-90 -88q0 -39 22.5 -60.5t42.5 -19.5zM328 772q0 57 -54 57q-49 0 -49 -63l13 -88q90 57 90 94z" />
<glyph unicode=")" horiz-adv-x="729" d="M551 788q0 -39 -96 -90l-9 84q0 63 50 64q55 -1 55 -58zM582 719q0 -31 -95 -137l-10 125q-6 70 51 69q54 0 54 -57zM582 543q0 -37 -99 -94l-6 88q-2 23 13.5 43t37.5 20q54 0 54 -57zM487 758l-14 -80q7 -4 21 -31q2 -117 -2 -138.5t-41 -105.5q-12 -27 -12.5 -129 t-27 -142t-27.5 -83.5t-34 -94t-33 -81.5l-4 -29l-39 -28q-27 -51 -55.5 -106.5t-68.5 -86.5v-24l-54 -11q-55 0 -110 -16q16 86 16 116t18 66l27 21q0 23 12 84l33 24q14 39 24.5 127t29 125t20.5 46t0 24.5t-2 33t12 54.5l10 6v14q0 33 13 47l-11 17l15 268q0 47 -4 86 l10 12l-10 25q8 37 10 55l-23 13l2 51h-2q-8 45 -8 114q0 12 -16.5 49t-16.5 56q0 2 9 47q8 23 21 33t22 10q58 0 -39 -475v416q-7 14 -19 20v86q-12 14 -37 35q-14 37 -14 76h-16q-10 53 -9 102q-39 66 -38 113q0 70 67 69q41 0 139.5 -124.5t98.5 -167.5q0 -10 -4 -19 l16 -12l10 -43q23 -45 23 -64l14 -4q0 -78 4 -96l33 -25q6 -29 6 -125q0 -18 47 -59q-4 -6 -35 -57q43 -23 43 -84zM535 231q-39 0 -69 21t-30 57q0 37 99 150v-228z" />
<glyph unicode="*" horiz-adv-x="503" d="M162 1647q55 -35 55 -60t-6 -41l-80 -186l-10 203q-2 31 41 84zM139 1610l-30 -152l-33 -8q-51 0 -51 51q-1 46 114 109zM172 1497q0 -29 -88 -80l-8 78q0 53 45 53q51 0 51 -51zM395 1282l31 6q61 0 61 -59q0 -20 -24 -74q-27 10 -82 25l-35 -19l-16 4l-11 -57l23 -61 q-37 -6 -133 -37q-43 109 -43 155l-60 19v12q-6 0 -10 2l51 62q23 -33 23 -64q-16 -31 -94 -72q-47 37 -47 58.5t14 34.5q12 20 47 26l-16 -63l24 10l-82 -107v150l74 29q-10 0 -16 8l-37 -19q18 29 69 62v8q4 8 11 18l-17 13q0 70 17 86q31 31 55 6q-2 10 -2 31 q0 57 72 118h67q8 -23 17 -67q23 -12 28 -43q25 8 58 8l24 -4l47 -47q-16 -39 -55 -113l-68 -4q10 0 17 -8l22 8q-12 -19 -24 -29l10 52q1 -2 10 -29v-10q8 -10 25 -27q8 -4 8 2q-26 -6 -33 0zM139 1427q0 -25 -14 -67q-26 -26 -45 -27q-45 0 -45 49q0 14 24.5 53.5 t36.5 39.5q43 -1 43 -48zM127 1298l-49 -16q-63 27 -64 84q0 16 13.5 35.5t29.5 19.5t43 -44t27 -79zM375 1518q0 23 -23 53l-22 8q-51 0 -51 -47q0 -12 18 -64q78 -3 78 50zM272 1583q-2 31 -61 66q-39 -66 -37 -93l10 -239l82 227q6 29 6 39zM225 1522q0 51 -48 51 t-48 -53l10 -72q86 41 86 74z" />
<glyph unicode="+" horiz-adv-x="1380" d="M633 940q-102 0 -103 80l103 190v-270zM721 971q0 -27 -92 -162l-15 166l41 61q66 -30 66 -65zM885 1053l8 -183v-36q18 -6 57 -9l23 -4l20 -2l-10 39q-14 -86 -49 -86q0 17 20 62l21 -7q81 -18 107 -18t175 20l9 -63q0 -18 -11 -37q4 -104 -90 -104l-65 6 q-10 0 -31.5 -7.5t-32 -9.5t-151.5 -2q0 -55 2 -168h18l-18 -79q0 -43 -31 -99l-43 -30l-33 -3q-41 -2 -69.5 42t-30.5 96.5t1 111.5t3 89t-8 69l35 -20h10v-7l-47 -266l-51 275l-62 8l-123 -19q-20 0 -53 8.5t-45 10.5l-29 80q0 -14 -10 -25q0 6 4 19v16h-444 q483 100 526 102h80l117 11l45 -5v-2q23 2 63 13l-10 57q6 10 10 14l-8 11v254h55q47 41 123 41q14 -35 19 -60q8 0 20 -8q4 -55 -16 -96zM637 518q0 -27 -98 -239l-9 219q0 12 20.5 42.5t35.5 30.5q51 0 51 -53zM645 449q0 -23 -94 -234l-10 215q-2 33 39 84q65 -26 65 -65 zM633 840v276l-103 -198q1 -78 103 -78zM727 748v270l-104 -191q0 -79 104 -79zM741 926l-59 16q-59 0 -59 -96q0 20 18 -184zM645 821q0 53 -53 53t-53 -57l14 -78q92 49 92 82zM657 852q-119 -203 -118 -236q0 -18 27.5 -48t74.5 -31q0 90 16 315zM727 575l-92 3 q-10 -137 -10 -162l92 -2q10 132 10 161zM369 729q0 53 -56 53q-51 0 -51 -55l12 -84q95 55 95 86zM645 965q0 -25 -92 -129l-14 122q0 18 15 39t36 21q55 0 55 -53z" />
<glyph unicode="," horiz-adv-x="284" d="M182 281q0 -29 -76 -72l-10 70q0 51 43 51t43 -49zM182 238q0 -23 -39 -52l-51 52q4 -6 0 -17v8q-2 4 -2 7q0 45 43 45h12q37 -6 37 -43zM-76 248q196 -19 250 -27q14 18 64 60q12 -61 32 -213l-80 24l37 33l-28 31h53q8 -63 9 -66.5t32 -60.5h-88l35 24l-27 -67 q-25 -18 -53 -17l-29 -61l-51 20l-6 43l-19 6v148l43 10v10q-4 2 -174 103zM121 188q0 25 -19 39v70l-100 -80l-4 -29q0 -29 84 -235v207q39 22 39 28z" />
<glyph unicode="-" d="M1270 739q-8 64 -8 78q0 72 52 72t52 -45q0 -25 -96 -105zM1243 891q0 -43 -53 -43l-21 2l-14 12q-23 18 -22 39q0 41 55 41l26 -4q29 -29 29 -47zM1296 893l-264 -16l-106 2v77h131l16 -2zM1237 856q27 -37 56.5 -77.5t29.5 -72.5t-47 -57q16 0 -37 -3q-122 -7 -139 22 l39 18q-25 16 -25 27.5t27 11.5l4 -76q-477 0 -549 -2l4 51q2 -2 2 -4l-2 47l4 7q-18 23 -61 69l88 55h102q23 0 58.5 -10t52.5 -12q39 14 65 14q143 0 191 2v-16q111 6 137 6zM840 905q0 -29 -99 -67l-6 65q0 16 15.5 31.5t35.5 15.5q54 0 54 -45z" />
<glyph unicode="." horiz-adv-x="851" d="M606 -90q-25 -4 -78 -18.5t-114 -10.5q-29 14 -61 47t-34 58q23 45 80 45q8 0 93 -23l114 37v-135zM610 -358q-43 -20 -116 -80q-29 -6 -85.5 -6t-133 14t-402.5 53q45 14 197 58l-17 8q39 57 82 143q-25 61 -24 107q0 -14 8 51l110 71q63 -51 64 -96q4 0 117 -18 q-23 -16 -76 -45q111 -8 152 -12.5t94 -20.5q7 -71 30 -227zM115 -156q-41 -8 -60 -47q-104 -6 -104 51q0 47 164 195v-199zM121 -188q0 -29 -51 -80l-27 -2q-27 -2 -46.5 13t-19.5 47t30 51t59 20q55 0 55 -49z" />
<glyph unicode="/" horiz-adv-x="1007" d="M698 1335l-188 6q-47 0 -47 50.5t51 48.5q84 1 184 -105zM535 1331q0 -41 -105 -98l-8 90q-2 23 14.5 44.5t36.5 21.5t41 -19t21 -39zM508 1249q0 -33 -96 -141l-15 131q0 25 17.5 46.5t40.5 21.5q53 -1 53 -58zM479 1001l-57 -6q-59 0 -57 70q27 47 114 72v-136z M434 1012q0 -39 -100 -97l-12 89q0 66 55 65q16 0 36.5 -18.5t20.5 -38.5zM420 956q0 -31 -98 -190l-13 170q-2 23 15.5 51.5t42.5 28.5q53 -1 53 -60zM891 1638l6 -165q0 -33 -10 -84l-37 -27l6 -59q0 -41 -19.5 -62.5t-35.5 -38.5q-6 -18 -12.5 -96t-42.5 -130 t-38.5 -62.5t-2.5 -69.5t-46 -133t-55 -97q12 -20 12 -55t-47 -160l-14 -6q0 -2 1 -7t1 -9l-6 -33l-37 -37q4 -20 4 -42t-24.5 -74t-24.5 -82l-10 -39l-35 -21q8 -20 4 -74l-39 -41l4 -53l-4 -37l-37 -43l4 -51q0 -53 -67 -94q2 -10 2 -66h-84l-29 88q0 -2 -4 -6q2 2 4 9 l-2 8l4 10v-143l33 106l-10 -14q-8 -29 -13 -43h-129v139l48 -4v4q0 84 40.5 241.5t45.5 180.5h16v6q0 45 45 90q10 61 33 180l24 35l-57 86h80q10 45 19 71q9 25 36 34q-2 8 -2 180l33 -21q6 66 15 85.5t55 62.5q10 27 17 110.5t9 92.5q23 6 37 12q-6 4 -18 16 q33 66 49 136.5t30 140.5l21 22v15q-2 8 -2 20t8 37l57 61h191zM309 614q0 -37 -100 -96l-12 88q0 66 55 66q16 0 36.5 -19t20.5 -39zM283 549q0 -41 -99 -96l-12 86q0 66 53 65q16 0 37 -18.5t21 -36.5zM258 463q0 -29 -98 -191l-13 174q-2 18 16.5 49t39.5 31q55 0 55 -63 zM236 377q0 -39 -105 -101l-8 91q-2 23 14.5 44t35.5 21t41 -18.5t22 -36.5zM158 176q0 -35 -101 -139l-10 125q-2 18 17.5 44.5t37.5 26.5q56 0 56 -57zM145 109q0 -31 -100 -144l-12 131q0 23 18.5 46.5t40.5 23.5q53 0 53 -57zM109 2q0 -31 -101 -143l-12 131 q0 18 19.5 43.5t37.5 25.5q56 0 56 -57zM117 -76q0 -27 -31 -78l-37 -6q-63 0 -61 70q29 72 73 72q56 -1 56 -58zM664 1554q-117 -205 -117 -236.5t28.5 -69.5t77.5 -40q1 147 11 346zM635 1186q0 57 -55 57t-56 -67l11 -91q100 62 100 101zM584 1036q0 59 -58 60 q-53 0 -53 -64l10 -92q101 59 101 96zM504 745v228q-106 -106 -106.5 -139.5t26.5 -61t80 -27.5zM397 469q0 57 -59 57q-23 0 -38 -21.5t-15 -43.5l8 -86q104 53 104 94zM346 324q0 57 -56 57t-57 -68l13 -90q100 62 100 101zM322 254q0 59 -60 59q-51 0 -51 -63l10 -90 q101 57 101 94zM270 109q0 57 -53 57q-23 0 -41 -23.5t-16 -46.5l10 -131q100 113 100 144zM233 16q0 57 -55 58q-18 0 -37.5 -27t-17.5 -45l10 -129q100 112 100 143z" />
<glyph unicode="0" horiz-adv-x="1476" d="M1315 889.5q16 -21.5 16 -51t-106 -314.5l-8 289q0 18 19 58t41 40t38 -21.5zM1231 625l12 120h94q0 -96 -10 -151q-8 -45 -90 -45l-6 63v13zM1231 272l12 134h94q0 -35 -6 -127l-2 -31l-31 -137l-65 125l-2 26v10zM1331 205q0 -41 -106 -92l-8 84q0 66 55 65 q16 0 37.5 -19.5t21.5 -37.5zM1331 113q0 -31 -102 -144l-12 131q0 23 18 46.5t41 23.5q55 0 55 -57zM1331 8q0 -41 -104 -90l-10 82q0 66 55 66q16 0 37.5 -20t21.5 -38zM1145 684l18 -274q0 -27 -14 -71t-14 -67t13 -74t13 -77q0 -102 -65 -209q-29 -45 -133 -174 q-27 -6 -41 -6q-6 -23 -19 -39l-22 -12v-35q-59 -27 -115 -17v-6q-61 -12 -80 -8h-2l-10 -21q-49 -8 -78 -8t-95.5 22.5t-109.5 24.5t-88 19l-10 24q-31 0 -52.5 10.5t-86 77t-71.5 90t-20 74.5l-28 13q-27 76 -27 149l6 154l-14 561v604l94 -369l-90 7l6 18q-14 35 -8 78 l27 28q4 51 12 102.5t59 80.5q10 6 16.5 35.5t24 53.5t56.5 36t51 18q13 7 20 33q6 45 62 53h90l12 4v35q78 6 100.5 5t55.5 -25q6 2 65 45q59 -33 138 -103q27 10 53 10q70 0 86 -69l94 -66q35 -35 47 -104l4 -2q39 -10 53 -37q28 -51 19 -408zM1305 -68q0 -39 -103 -98 l-12 92q0 61 55 62q16 0 38 -19t22 -37zM334 786l10 -563q0 -78 23 -145l30 -19q4 -47 0 -69h-35q25 12 44 12l26 -4l53 -41q47 -6 105.5 -6t73.5 10l57 57l35 15q20 29 40.5 114.5t20.5 118.5t-2 41l-29 43q-2 53 13.5 152.5t15.5 138.5t-5 131t-1 143l-4 84q25 4 49 5 q24 -1 47 -5l-51 -47v27q23 -4 22 -39q-32 6 -53 10q-31 168 -74 236q-53 86 -157 86q-39 0 -90 -10l-9 -19q-33 -18 -70.5 -39t-47.5 -49q-37 -92 -37 -369zM530 8q0 57 -55 58q-20 0 -39.5 -26t-19.5 -44l12 -131q102 112 102 143zM741 995q-25 -215 -24 -364 q-51 0 -81 38t-30 70.5t135 255.5zM543 877q0 -31 -101 -189l-12 172q-2 20 14.5 49t40.5 29q58 0 58 -61zM709 662q0 -41 -105 -101l-10 90q0 68 55 68q60 0 60 -57zM719 541q0 -74 -103 -193l7 266h94q0 -4 1 -29.5t1 -43.5zM596 315l12 131l97 -2q0 -10 -7 -112 q-2 -20 -24.5 -51t-29.5 -31t-27.5 22.5t-20.5 42.5zM526 410q-111 0 -110 79q0 41 110 144v-223zM518 426q0 -31 -102 -143l-13 129q0 18 19.5 44.5t38.5 26.5q57 0 57 -57zM717 262l-12 -184l-97 4q0 -31 15 184zM735 6q0 -37 -104 -90l-10 88q0 61 53 62q61 -1 61 -60z M526 45q-57 0 -84 27t-26.5 59.5t110.5 140.5v-227zM520 61q0 -41 -108 -92l-9 84q0 66 56 66q16 0 38.5 -20t22.5 -38zM545 -43q0 -35 -103 -100l-12 96q0 63 53 63q62 0 62 -59zM399 -10l-8 -29l6 29h2z" />
<glyph unicode="1" horiz-adv-x="903" d="M0 1186l12 235l90 -4v-119l-22 -2q41 -6 45 -51q-41 -55 -125 -59zM313 963q0 -31 -96 -144l-12 129q0 18 18.5 45t36.5 27q53 0 53 -57zM301 897q0 -33 -98 -145l-10 131q-2 18 17 44.5t38 26.5q53 0 53 -57zM719 1516l8 -291q0 -57 -15.5 -157.5t-15.5 -137.5l15 -285 l-19 -147v-19l27 -30q4 -127 -9 -224.5t-13.5 -131.5t12 -85t12.5 -89t-19.5 -130t-15.5 -166q-23 -2 -104 -18t-127 -15q-43 29 -80 41v783q0 391 12 780l-12 18q4 -6 4 -12q0 -16 -33 -34.5t-41 -30.5t-8 -138l-90 -4q-2 29 -8 84q-6 -2 -76 -35l-10 254q0 66 16 113 l285 227q23 4 53.5 4t111.5 -8t142 -4zM297 618q0 -78 -96 -194l6 272l90 -2v-76zM301 502q0 -31 -98 -144l-10 131q-2 16 17 43t38 27q53 0 53 -57zM289 432q0 -37 -135 -366q27 293 26 340q0 88 56 88q53 -1 53 -62zM297 338q0 -87 -14 -213l-88 2l12 213zM516 1534 q-150 104 -203 104h-59l-2 -98h29z" />
<glyph unicode="2" horiz-adv-x="1513" d="M1403 1169q0 -31 -103 -190l-12 174q-2 16 17.5 48t40.5 32q57 -1 57 -64zM1397 922q-55 0 -83 27.5t-28 59.5t111 140v-227zM1214 1305q-10 -195 -10 -344q-51 2 -81 40t-29 62q-1 41 120 242zM604 1214q0 -41 -104 -96l-13 88q0 66 58 66q16 0 37.5 -19t21.5 -39z M578 1120q0 -37 -105 -96l-12 92q0 63 57 64q60 -1 60 -60zM1403 150q0 -35 -105 -273l-10 258q0 14 21.5 47t36.5 33q57 1 57 -65zM1188 150l-197 8q-49 0 -49 49t53 49h4q83 0 189 -106zM1153 1020l14 -109q0 -104 -82 -209q-74 -84 -147 -170q-8 -27 -55 -100h-27 l-90 -100l-27 -76q-16 -31 -61 -49q-18 -8 -43 -68.5t-64 -75.5q10 -35 -4 -92q-45 4 -65 13q-4 -16 -6 -27v-2q-12 -53 -39 -70q23 8 155 62l31 12l-197 -6q66 2 191 -8q189 -15 227 -8l29 28q51 0 94 -28q23 -6 86.5 -2.5t63.5 4.5q10 -29 34 -41q15 -51 15 -71.5 t-25 -199.5q-115 -28 -272.5 -25t-172.5 3t-49 -7.5t-51 -7.5l21 72q-14 -27 -36.5 -27t-31.5 7l35 -48l-26 9q-41 -12 -66 -13l-512 15l-10 219q0 53 14 104q10 10 85.5 106.5t129.5 133.5v27q25 39 49 77q37 49 76 56q16 63 45 86q14 8 31 16q2 70 65 86l4 2v6 q10 66 60 76h6v4q6 55 36 70.5t50 23.5q2 33 25 70h14q16 59 68 61q8 20 48 80t40 115q0 96 -81 172t-182 76h-14q-10 -2 -16 -2l-13 -21q-88 -35 -122.5 -87t-65.5 -175q-145 0 -348 19q37 289 196.5 460.5t411.5 171.5q53 0 133 -18t109.5 -46t27.5 -28q20 4 39 4t74 -30 l-16 -37q111 -106 163.5 -201t47.5 -223zM1040 150l-190 8q-49 0 -49 49t53 49h4q82 0 182 -106zM872 344q-4 -86 -25.5 -144.5t-41.5 -58.5q-51 0 -51.5 57.5t118.5 145.5zM522 70q-8 2 72.5 2t267.5 -15l-2 -98h-475l125 98l6 -26z" />
<glyph unicode="3" horiz-adv-x="1560" d="M1436 899q0 -31 -105 -182q-14 72 -14 127q0 115 59 114q60 0 60 -59zM1417 717q-55 -2 -83 27t-27 55q0 39 110 145v-227zM1217 823q0 -31 -103 -143l-12 131q0 18 18.5 44t38.5 26q58 -1 58 -58zM1421 350q0 -39 -102 -92l-12 90q0 61 55 62q59 -1 59 -60zM1440 418 q-10 -195 -10 -344q-51 0 -81 39t-30 71.5t121 233.5zM721 944l-6 -98q-55 0 -109 8l-26 4l-45 12q0 45 10 66.5t51 21.5q-18 0 125 -14zM1237 166q-55 0 -83 28t-28 60.5t111 138.5v-227zM1174 219l14 -125q0 -6 -6 -65l-31 -19q-31 -82 -51.5 -125.5t-57.5 -87.5 q2 -2 2 -6q0 -59 -71 -57l-25 4q-20 -25 -53 -60q-39 -35 -92 -43t-103 -16l-28 -27q-35 -6 -106.5 -6t-153.5 21l-47 37q-20 -4 -27.5 -4t-108 73.5t-120.5 96.5q4 10 8 28q-51 29 -60 82q-10 -2 -22 -2q-18 76 -41 236q16 2 106.5 19t128.5 17t101 -10l16 -57 q49 -45 66 -107l37 -4q37 -63 83 -63h29q23 2 73 2t66 4l2 4q14 43 62 57l10 -2q6 31 39 75t33 89q0 174 -95.5 237.5t-304.5 63.5q-12 53 -10 64l-14 16q4 63 14 186l35 41q27 25 43 29q39 0 72 -16q96 2 165.5 70.5t69.5 162.5q0 229 -237 230q-80 0 -101.5 -9.5 t-41.5 -39t-52 -56.5q4 -16 4 -26t-12 -50l-35 -16l-29 -31q-33 -8 -101 -8q-212 0 -212 109q0 49 47 139l25 12q55 135 180 245t262 109q20 0 64.5 -9t68.5 -7q33 14 99 14l30 -32q166 -72 287 -230t121 -336q0 -53 -23.5 -149t-45 -131t-107.5 -92v-23q63 -78 127 -156 q45 -76 45 -210q0 -37 -10 -60zM602 104q0 -37 -104 -98l-13 88q0 68 56 68q20 0 40.5 -17.5t20.5 -40.5zM1434 299q0 57 -56 57q-20 0 -39.5 -26.5t-19.5 -44.5l12 -129q103 112 103 143z" />
<glyph unicode="4" horiz-adv-x="1523" d="M565 1372q0 -41 -108 -96l-8 88q0 66 55 66q61 -1 61 -58zM512 1268q0 -41 -104 -101l-11 90q0 68 57.5 68t57.5 -57zM913 674q0 -37 -102 -99l-14 91q0 66 57 65q59 0 59 -57zM866 203l-4 41l10 51h17v86h-72q29 39 70 86v61q0 100 22 256q76 -6 96.5 -11t42 -5 t166.5 41v-334q0 -43 12.5 -118.5t14.5 -104.5l14 -8l11 -21l100 6q10 -96 35 -297q-16 -12 -39 -26q0 8 4 12l-37 -37q-35 -4 -88 -16q-8 -78 -29 -287q-70 18 -176 22.5t-153 10.5q18 141 18 169.5t2 51t-2 25.5q-10 4 -22 12q-264 12 -527 12v-20q-14 2 -174 2l-33 4 l-39 31q4 0 9 -2l-37 47v252l22 12q-8 20 -22 59l86 51q-2 68 45 115q12 12 19.5 62.5t58.5 97.5q12 8 26 26q-6 37 -6 46q8 49 46 99t46 81q20 84 29.5 101t48 79t38 102.5t35.5 76.5t36 71t20 74q39 26 51 32v37q0 45 40 121t85 100q43 2 113 -24q2 -2 252 -6 q-59 -109 -115.5 -248t-109.5 -199q-25 -78 -66 -186l-25 -14q-10 -39 -36 -119l-27 -13q-18 -51 -66 -307l-45 74q-92 -184 -143 -311l225 -49q-223 -55 -256 -56q-12 4 -37 4l27 88q10 -6 25.5 -31.5t23.5 -25.5l37 25l37 4q25 0 35 -4v16h108v-37q34 -8 60 -8h18 q6 8 10 16q14 25 113 78l-8 -108q-10 0 -25.5 11t-15.5 17q0 -23 -25 -22zM739 641q0 -59 -3 -100.5t-25.5 -70t-29.5 -28.5t-29 23t-21.5 45.5t14.5 136.5zM295 791q0 -35 -105 -97l-12 92q0 63 55 64q62 0 62 -59zM98.5 446.5q16.5 -20.5 16.5 -47t-109 -276.5l-8 252 q0 20 18.5 56t42 36t40 -20.5zM942 766q-121 -203 -121 -236t31 -70.5t82 -37.5q-2 137 8 344z" />
<glyph unicode="5" horiz-adv-x="1519" d="M1403 1731q-23 -209 -23 -361q-51 2 -82 40t-30.5 70t135.5 251zM1436 1481l-193 6q-49 0 -49 49t53 49h4q85 0 185 -104zM1151 1376l131 -12l-2 -98q-10 0 -109 8l-24 2l-47 10q0 92 51 90zM1384 807q0 -31 -102 -143l-12 131q0 18 18.5 43.5t38.5 25.5q57 0 57 -57z M1397 739q0 -29 -103 -139l-12 129q0 25 17.5 47.5t41.5 22.5q56 -1 56 -60zM1090 1010l-179 6q-51 0 -51 94l58 4q41 2 91 -32.5t81 -71.5zM788 1108q-111 0 -110 82q0 41 110 145v-227zM1397 530q0 -37 -103 -94l-12 92q0 63 55 64q60 -1 60 -62zM793 1081q0 -35 -91 -129 q-25 106 -24.5 127t18 41.5t41.5 20.5q56 -1 56 -60zM1397 432q0 -33 -103 -287l-12 269q0 20 18.5 52t40.5 32q56 0 56 -66zM1200 645q0 -82 -6 -129l-4 -31l-31 -125l-65 113l-2 27v12q0 -20 14 137zM45 770l-22 322q0 78 26 317q8 -2 19 -12q8 39 38 39q12 0 25 -6 q-6 8 -2 24l-90 -22v26l94 -2l-4 -2q-43 -27 -70 -27t-22 35v66l2 96q63 0 144 -12.5t110 -12.5t87 19.5t78.5 19.5t94.5 -24q174 18 565 10q4 -51 4 -113.5t17 -171.5l51 -34q-145 -61 -363 -62l-275 6q-22 0 -55.5 1t-69 1t-50.5 -19.5t-15 -59t4.5 -109t0.5 -109.5 q6 -6 8 -10q3 0 5.5 -1t4.5 -1q4 10 16 33q44 15 97 22v25l37 446l47 -317q16 -113 20 -139h29q113 0 299 -72v-14q29 -4 78 -45l-15 -27q119 -106 146 -262q10 -59 10 -210.5t12 -307.5q-80 -244 -213 -364t-366.5 -120t-392 148.5t-193.5 392.5q16 12 37 25q0 -6 -4 -15 l41 41q25 0 86 17l53 -27q31 12 92 31q87 -126 90 -166q29 -10 62 -60q25 -35 124 -34.5t154 43.5v26q14 33 37 49l18 15q16 37 17 332q0 33 -40 126.5t-79 88.5h-14q-8 -2 -25 -2t-54.5 17t-51.5 17l-21 -37q-35 -14 -86 -14q-6 0 -24 -41t-50 -63q-45 -37 -125.5 -37 t-179.5 47l2 86q0 -25 -24 -35q10 -4 10 -141l-29 164q0 31 16.5 92t16.5 94zM807 362q0 -41 -107 -92l-8 84q0 66 56 66q16 0 37.5 -20t21.5 -38zM590 389q0 -41 -109 -98l-8 90q0 23 16.5 44t36.5 21t42 -18.5t22 -38.5zM602 334q0 -37 -102 -94l-15 90q0 66 56 65 q18 0 39.5 -15t21.5 -46zM807 1280q0 57 -57 57q-20 0 -40 -25.5t-20 -43.5l12 -131q105 114 105 143zM618 1386q-121 -203 -120.5 -235.5t30 -70.5t80.5 -38q0 145 10 344z" />
<glyph unicode="6" horiz-adv-x="1464" d="M1161 1249q0 -37 -102 -180q-14 27 -14.5 133.5t59.5 106.5q57 -1 57 -60zM1317 438q0 -29 -100 -139l-15 129q0 25 17.5 47.5t42.5 22.5q55 -1 55 -60zM799 918q0 -37 -103 -97l-12 92q0 63 55 64q60 0 60 -59zM1331 375q0 -41 -108 -96l-9 88q0 66 56 65q61 0 61 -57z M1331 242q0 -41 -108 -97l-9 88q0 66 56 66q61 0 61 -57zM1343 188q0 -35 -104 -141l-12 127q-2 20 15.5 47t41.5 27q59 -1 59 -60zM1292 2q0 -37 -102 -94l-14 88q0 66 55 65q61 0 61 -59zM686 801l84 8q29 0 78 -12l39 -39h26q29 0 74 -31v-31q33 -33 76 -95t48 -76.5 t5 -96.5q0 -8 20.5 -57t20.5 -80t-13.5 -62.5t-13.5 -46.5l15 -78q0 -37 -37 -88q12 -29 10 -41l-2 -24l-37 -49q0 -4 1 -12.5t1 -10.5q0 -35 -39 -69q4 -12 4.5 -24.5t-25.5 -33t-40 -20.5h-4v6l-2 -6q-10 -41 -70 -45q-66 -41 -131 -84q-55 -29 -133 -29t-165 13.5 t-116.5 13.5t-56.5 10q-33 45 -55.5 65.5t-52.5 44.5q-201 180 -201 494q0 29 26.5 177.5t40 165.5t50.5 30l2 12q0 49 9 68.5t46 60.5q14 47 37 115l22 10v14q0 25 15 66l22 12q0 51 34 80t41 64.5t15 83.5q12 41 60 75q8 4 16 15q-6 25 -6 37t22 47l41 63h5q4 49 45 119 l65 112q213 -26 316 -57q-29 -182 -157 -434t-155 -324q2 0 21.5 1t44.5 1zM1214 -90q0 -37 -104 -96l-12 88q0 68 55 67q18 0 39.5 -19.5t21.5 -39.5zM807 256v29q-33 41 -32 64.5t-7 39.5q-31 68 -96 84q-29 6 -90 6t-74 6l-4 -14q-59 -43 -121 -74v-4q-4 -43 -21 -117 l-26 -24q-2 -12 -2 -56t24 -112l23 -12q14 -45 31 -103q37 0 69 -26v-21q170 2 248 79t78 255zM748 360q0 -31 -105 -139l-12 127q0 18 19.5 44t39.5 26q58 -1 58 -58zM707 304q16 -22 16 -47.5t-107 -324.5l-8 293q0 20 19.5 60.5t41.5 40.5t38 -22zM414 166l12 137l94 -2 q0 -96 -4 -129l-4 -33l-29 -139l-67 127l-2 27v12zM565 53q0 -31 -102 -196l-12 176q-2 23 15 52.5t42 29.5q57 -1 57 -62zM735 147q0 29 -24 48q-18 12 -37 12q-53 0 -53 -64l10 -84q104 47 104 88z" />
<glyph unicode="7" horiz-adv-x="1388" d="M1262 1106q-111 0 -111 82q0 39 111 147v-229zM1280 1122q0 -37 -102 -98l-15 92q0 66 58 66q25 0 42 -17.5t17 -42.5zM1278 1055q0 -33 -102 -150l-11 137q-2 16 17.5 43t40.5 27q55 0 55 -57zM1151 713q0 -33 -104 -140l-11 125q-2 18 17.5 45t40.5 27q57 0 57 -57z M489 1407q-23 -213 -22 -367q-51 0 -81 38t-30 71t133 258zM1102 608q0 -20 -4 -32.5t-8 -61.5q-104 -2 -105 61q0 29 29 78l28 13q60 -1 60 -58zM1036 412q0 -41 -104 -97l-12 86q0 68 55 68q16 0 38.5 -19.5t22.5 -37.5zM459 1051q0 -35 -144 -365q31 319 31 345.5 t17.5 53.5t37.5 27q58 0 58 -61zM727 1257q-18 -18 -109 7h-8q-109 0 -274 -19q0 -31 16 -88q-4 -29 -16 -47q0 -10 1 -42t1 -56q-70 -51 -105.5 -51t-70.5 12l-15 -4q4 4 15 6q-25 16 -25 38.5t19 39.5q-16 -4 -27 6l-4 -96q-20 6 -61 2t-48 -4q-16 250 -16 598 q39 16 83 34t69.5 18.5t66.5 -12.5v3q16 27 47 34q6 2 189 2l24 -28h41q27 -2 49.5 -2t36.5 2l39 26q177 26 363 -16l8 18q66 0 84 -24h-13l46 -35q2 -35 15 -117t11 -135l-26 -51l45 -90h-72q-41 -121 -87 -258.5t-93 -210.5q4 -16 4 -29l-10 -55h-25q-6 -74 -31 -119 l-26 -18q2 -8 2 -27l-4 -31l-37 -51q2 -10 2 -33l-8 -53h-21q0 -20 -2 -33l-29 -16q-4 -59 -9 -78q-8 -30 -44 -57l-4 -4q2 -18 2 -54l-2 -28q-20 -31 -41.5 -65t-21.5 -67.5t-50.5 -134t-83.5 -151.5q-53 -25 -145 -25h-201v166q16 47 64 74v29q0 33 51 88q2 6 25 129 q14 78 63 98q2 4 8 59.5t30.5 87.5t25 54t12.5 53l24 12q6 39 11.5 77t44.5 89v12q-2 10 -2 13q0 33 32.5 72.5t41.5 62.5t22.5 89.5t25.5 99t58.5 119.5t60.5 138q-12 29 -12 47zM920 104q0 -31 -101 -141l-14 131q0 25 17.5 46.5t41.5 21.5q56 -1 56 -58zM883 14 q0 -41 -109 -96l-8 88q0 66 55 66q62 -1 62 -58zM831 -117q0 -43 -108 -92l-8 84q0 66 55 66q18 0 39.5 -20t21.5 -38zM647 776v221q-113 -98 -112.5 -132t27 -61.5t85.5 -27.5zM471 948q0 59 -57 60q-18 0 -38 -27t-20 -45l13 -131q102 112 102 143z" />
<glyph unicode="8" horiz-adv-x="1542" d="M1378 866q0 -76 -100 -223l4 297h96v-74zM1372 428q0 -37 -104 -98l-13 88q0 68 58 67q18 0 38.5 -17t20.5 -40zM1397 362q0 -41 -105 -92l-12 84q0 66 57 66q14 0 37 -20t23 -38zM1403 244q0 -76 -100 -195l4 270l96 -2v-73zM160 1364l14 74q51 8 55 10t20.5 36t84 74.5 t100.5 40.5h2l6 23q59 4 69.5 2t70.5 -25h4q-8 6 14.5 21.5t52.5 19.5q59 -33 106.5 -32.5t85.5 -29.5t46 -30q57 0 63 -59v-4q70 -66 138 -129q68 -74 69 -187l21 -22q18 -66 18 -178.5t-151 -306.5q-6 -2 -15 -9q0 -14 2 -20v-6q90 -66 99 -84q18 -53 34 -109l39 -39 q23 -65 23 -176.5t-16.5 -168t-86.5 -181.5q12 -12 13 -25q0 -70 -92 -55q4 -4 8 -4q-27 -55 -42 -64.5t-51 -17.5t-40 -12q-43 -49 -54.5 -53.5t-56.5 -4.5t-102.5 -21.5t-94.5 -21.5q-135 0 -311 84q-207 96 -221 222q0 -4 -2 8q-20 16 -53 71q-14 39 -20.5 117t-6.5 87 t10 36q-4 57 -4 100t26.5 81t26.5 77t58 66q25 35 78 98v10q0 14 -31 32.5t-54.5 53.5t-52 125t-28.5 157t27.5 159t52.5 176q53 4 75 4q-4 -10 -26 -11h-2q2 -12 2 0v21zM901 1063l-37 41l2 -4q-2 -18 -20.5 -58.5t-18.5 -62.5q0 -23 4 -33q-4 -10 -12 -26q-23 -66 -92 -89 q-68 -14 -133 -28l-19 -19q-8 2 -30.5 20.5t-48 18.5t-49 35t-21.5 90l-47 19q-6 18 -6 37q0 92 74.5 174t160.5 82q55 0 116.5 -28t78.5 -65q4 -37 9 -54.5t26 -35.5zM848 100q29 29 29 108t-75 166t-153 101l-18 -20q-8 -2 -103 -2h-6l-145 -105q-23 -47 -23 -136t33 -120 l16 -20q0 -16 -4 -37q25 2 103 -45l22 -37q53 -18 129 -19h15l20 29q33 20 70 21q23 47 90 116zM762 883q0 -41 -109 -99l-8 90q0 23 16.5 44.5t36.5 21.5t42 -18.5t22 -38.5zM637 958q-18 -18 -45 -30h-19l-28 8q-51 51 -51 82q0 51 57 51l27 -6q33 -31 45 -49.5t14 -55.5z M762 360q0 -33 -107 -180l-10 158q-2 23 16.5 51.5t43.5 28.5q57 -1 57 -58zM735 270q0 -31 -102 -141l-12 129q0 18 19 44t38 26q57 -1 57 -58zM750 205q0 -35 -105 -96l-12 94q0 61 55 61q62 0 62 -59zM563 449q-23 -209 -22 -361q-51 0 -82 38t-31 69t135 254zM559 117 q0 -41 -104 -94l-13 86q0 66 58 65q16 0 37.5 -19.5t21.5 -37.5zM547 311q0 20 -22.5 39t-39.5 19q-55 0 -55 -66l10 -88q107 55 107 96z" />
<glyph unicode="9" horiz-adv-x="1390" d="M1268 995q-10 -76 -43 -229l-27 -14q-18 -63 -39 -133t-53.5 -100t-40.5 -63.5t-13 -63.5t-22 -62l-24 -15q-72 -203 -146 -317l-20 -12q-18 -51 -35 -105q-18 -45 -56.5 -86t-42.5 -50t-14 -65.5t-56 -75.5t-95 -19.5t-117 2.5t-133 3q45 158 112.5 278t96.5 189v4 q-2 6 -2 27t25.5 50.5t25.5 60t33 70.5t37 50.5t16 53.5q-27 -6 -72.5 -6t-177 65.5t-162.5 103.5t-50 96t-52 99t-33 69.5t23 88.5l-17 16q-12 49 -12 81t25.5 101.5t21.5 107.5t-4 56.5t10 53.5l39 24q12 127 207 227q168 88 299 89q180 0 254 -54q12 -16 39 -53 q10 -8 50 -22.5t64 -47.5l23 -73q23 -2 61 -29v-80l11 -20l-2 -11h41q-8 -35 -25 -106q33 -18 59 -55q-16 -27 -41 -70zM133 934q-111 0 -110 82q0 39 110 147v-229zM127 952q0 -39 -107 -100l-8 90q0 23 15.5 44.5t36 21.5t42 -19t21.5 -37zM618 362l-264 7l2 96 q110 8 262 -103zM113 725q0 -31 -103 -143l-12 131q0 18 19.5 43.5t37.5 25.5q58 0 58 -57zM360 -156l-6 -96q-61 0 -102 8l-21 4q-45 8 -45 50q0 51 54 49q30 -1 120 -15zM897 983q0 20 -13 106t-22 97q-51 25 -106 51l-13 23q-31 10 -67.5 10t-46.5 -2q-49 -35 -88 -27h-9 q18 -18 -36 -61l-4 -2q-6 -6 -9 -33q20 -6 140 -74q-133 -35 -162 -35q-14 -96 -15 -125v-26l21 -11q8 -31 18 -65q18 -37 81 -63.5t118 -26.5q102 0 157.5 72.5t55.5 191.5zM702 713q0 20 -22.5 38.5t-38.5 18.5q-55 0 -55 -61l14 -88q102 53 102 92zM893 991 q0 -41 -102 -100l-13 90q0 68 56 68q59 -1 59 -58zM713 973q0 -31 -101 -139l-12 131q0 25 17.5 46t41.5 21q54 0 54 -59zM614 784l13 134h94q0 -43 -6 -115q-2 -23 -23.5 -52.5t-28.5 -29.5t-28 21.5t-21 41.5z" />
<glyph unicode=":" horiz-adv-x="417" d="M356 403q-31 -55 -80 -55q-16 0 -42.5 8.5t-38.5 8.5l41 47v-6h4q20 4 24 4l-4 18q33 8 37 8q53 0 53 -57q0 -45 -40 -74t-68.5 -29t-73.5 20.5t-86 39.5v164h-10q-31 23 -31 53.5t37 81.5q45 0 57 -10l6 10h6q27 0 48 -29q16 4 34.5 12t122.5 35q-29 -78 -27.5 -73 t1.5 -37t-25 -81.5t-27 -45.5v-2q-31 31 -45 43q10 2 31.5 9t39 7t38 -18.5t18.5 -51.5zM383 18l-168 5l-14 2q-41 -2 -41 47t43 47q78 1 180 -101zM354 6q0 -39 -90 -94l-8 84q0 66 47 65q14 0 32.5 -18.5t18.5 -36.5zM190 29q0 -29 -86 -183l-12 166q-2 20 13.5 49 t35.5 29q49 0 49 -61zM316.5 -94q17.5 -37 17.5 -80t-20.5 -67.5t-71.5 -30.5q-4 -45 -19 -60l-26 82h47q23 -14 67 -24v-109q-53 -6 -211 -33l33 119l33 -61h2q-2 0 -6 -4l2 4q0 6 4 10q-23 6 -29 22v-63q-43 -4 -86 -33q-43 104 -80 170q35 0 76 4l10 4q4 4 -24 -6l-17 -6 l-28 -8q25 -12 51 -29l-23 33v4l-2 12q0 31 17 58q2 20 0 60t-2 50q57 4 108 16l51 13l3 -19q2 41 32 50q12 2 56 0q4 -37 16 -105l-45 31q0 -29 -31 -43l6 -8v28q0 55 52 56q20 0 37.5 -37z" />
<glyph unicode=";" horiz-adv-x="651" d="M602.5 534.5q24.5 -20.5 24.5 -43t-18.5 -39t-35.5 -14.5h-16q-53 37 -53 68q0 49 51 49q23 0 47.5 -20.5zM653 442q0 -29 -94 -135l-12 125q0 23 16.5 44.5t38.5 21.5q51 -1 51 -56zM43 432l4 162q51 31 156 31h10q119 0 119 -72l-19 -68l41 -28q-12 -41 -16 -80 q-10 -80 -96 -80q-63 0 -86 37q-16 -2 -34 -8.5t-69 -10.5q-10 84 -10 117zM612 125q0 -16 -16 -45q-33 12 -25 39l-30 -78q-63 33 -64 88q25 49 80 49t55 -53zM653 39q0 -35 -96 -88l-8 82q0 61 49 61q55 0 55 -55zM502 297q-10 -190 -10 -332q-47 0 -75 36t-28 63.5 t113 232.5zM641 -6q0 -31 -96 -135l-8 121q-2 16 14 41.5t37 25.5q53 0 53 -53zM317 -45l-51 -14q-2 0 -26 -17q12 -6 39 -20l-15 73l-4 -32l-8 -17l-25 68q27 -6 113 -35q-12 -121 -12 -156q0 -66 -90 -81q-18 -12 -44 -47t-47 -50l3 6l-46 -28q2 0 11 -4q2 4 12 4 q-25 6 -78 16q-2 8 -22 23q-4 29 -4 64.5t12 142t12 182.5h33v12q47 16 62 16t63 -14q31 23 69 27z" />
<glyph unicode="&#x3c;" horiz-adv-x="718" d="M682 1063q-18 -68 -20 -80q4 -12 4 -22q0 -27 -58 -52l-8 -12q-11 -6 -57 -23l-6 -12q-29 -8 -35 -8q-23 -14 -45 -14q-33 -25 -90 -39l-27 -21h-23q-37 -16 -110 -53l18 31l-12 22q8 -6 20 -16l52 -4l-2 2v-2l-4 -8q4 0 12 -4h4l29 -3l10 -16q14 0 80 -20l-2 -7l16 -4 l10 -16l8 -2q27 -2 52 -16l4 -7h20q51 -20 150 -71q0 -45 -21 -152q-66 18 -194 64q-17 22 -65 35.5t-63.5 27.5t-56.5 12l-20 35h-10q-55 0 -97 33q-17 -9 -108 51q-23 33 -23 69t33 75h14l21 20q23 8 57 14h6l9 25h34q84 47 148 63l26 23q12 2 52 2q0 -33 -29 -39 q8 -8 8 -22l4 28l6 33l3 14q8 4 32 9h2l11 20h34l25 21h25l34 20q31 -10 113 -4z" />
<glyph unicode="=" horiz-adv-x="1253" d="M1358 662q0 -29 -98 -119l-13 110q0 18 16.5 38t39.5 20q55 0 55 -49zM1358 418q0 -33 -98 -86l-13 80q0 55 53 55q18 0 38 -15.5t20 -33.5zM1145 631q0 -53 -70 -53q-31 0 -223 63q80 16 178 35l4 -25q6 33 78 47q33 -47 33 -67zM1253 377q0 -84 -53 -84h-10l-66 2 q-49 0 -49 86l55 2h64zM926 643q0 -27 -99 -117l-12 109q0 18 15.5 38.5t37.5 20.5q58 0 58 -51zM872 643q0 -21 -24 -55q-25 -12 -45 -13q-47 0 -51 50q0 20 17 43.5t50 23.5q53 0 53 -49zM868 846q20 39 66.5 39t73.5 4l4 -8q55 12 78 12q90 0 90 -84q0 -20 -21 -109 q-27 -2 -96 -18t-109.5 -16t-70.5 24l-43 -16q-90 23 -92 22q0 2 2 4l-35 -20l12 -23l-74 9q-78 10 -104 10l-27 80q0 -6 -2 -11l4 -2l17 39l57 -80q-90 -18 -112 -18t-164 27q-25 -29 -64 -29q-14 0 -92 6l-14 35q-2 0 -99 4l123 137h25l10 31q39 -2 61 -6q12 6 25 6 q37 0 37 -51q0 -18 -25 -68l-33 45l-18 -16h-2l23 39l14 28l53 2l19 -2l2 7q141 23 160.5 22.5t84 -9.5t117.5 -9h62q23 -27 26 -35h-4l10 -8q10 4 37 8zM768 483q44 44 88 43q16 0 37 -6q25 10 43 10q49 0 49 -45q0 -23 -22 -34l-2 -2l2 -15q6 16 10 17l-8 28q-10 0 -23 8 l-29 -16l27 41q47 16 92 16q-20 0 156 -12q-4 -16 -10 -45l4 -4q23 -2 30 -27q8 -21 -2 -39q-27 8 -26 33l-15 -65l-32 2l-15 -2l45 39q-4 -27 -22 -93h-25l15 -16q-135 -4 -161.5 1t-43.5 5q-18 -10 -48 -10t-55 20h-90l-12 -20q-74 0 -100 20q-12 -4 -17 -4q-59 0 -59 58 q0 20 14 39v71q61 20 109.5 21.5t52.5 3.5l-6 -4q49 -32 2 -68q16 0 24 -8l3 88h67q4 -16 10 -53q-12 6 -18 51q-35 -25 -39 -27zM684 303q-80 -12 -375 -33l223 101q0 -23 -20 -33q37 -6 37 -41q6 86 16 86h23q69 0 96 -80zM264 508l119 16q41 0 139 -57q-37 0 -47 -4 q4 -16 -20 -27q10 -14 10 -22q-25 33 -47 61l24 47q96 -4 109.5 -9t89.5 -64q-27 -41 -39 -54q-18 -12 -46 -12t-40 35l92 12l4 -43q0 -57 -57 -72q2 4 6 9l-31 -19h-55l-6 8l2 4q-25 -6 -32 -6t-31 8q-4 -6 -13 -14h-286q-31 59 -54 141q8 6 37 32q56 50 98 50t68 -18z M1128 662q0 23 -20.5 45t-50.5 22q-51 -2 -51 -45q0 -27 41 -68l24 -4q57 1 57 50zM1042 700q0 42 -63 48q-55 0 -55 -50q0 -2 1 -7t1 -7q2 4 2 12l63 -51q12 6 31.5 25.5t19.5 29.5zM1067 670q-152 94 -186 94h-27q-8 -6 -8 -88h14zM748 686q0 35 -24 54.5t-44 17.5l-47 -4 l-33 -47q0 -74 76 -74z" />
<glyph unicode="&#x3e;" horiz-adv-x="651" d="M584 758l-11 84q0 74 52 73q47 0 47 -47q0 -25 -88 -110zM225 846l-41 16h-14q-84 37 -158 86l47 135l11 -12l4 14q39 -18 76 -47q4 -2 2 2l-2 -2h-13l23 -14q18 4 47 6q25 -20 50.5 -28.5t43.5 -18.5l6 -8q16 0 31 -4q23 -23 45.5 -25t32.5 -6l20 -22q2 -2 31 -7l8 -14 h4q35 0 64 -29q28 -2 98 -55q-14 -55 -14 -108q-55 -20 -154 -58l-8 -10q-16 -10 -139 -53q-39 -18 -115 -64h-10q-25 -10 -47 -12q-16 -22 -41 -27.5t-80 -21.5q-12 80 -12.5 92t12.5 55l47 19v6q57 43 97 49t75 41h18l13 16h28l31 19h18l7 8q25 10 49 10q-2 -2 -21 -2 l-4 -14l27 14l22 35h41l-22 -23l-6 -4l-9 -10l17 -27q-63 23 -180 86q-25 2 -70 15v-2h4zM588 854q0 47 -48 47t-48 -51l6 -66q90 37 90 70zM352 815q-66 -33 -87.5 -51t-21 -39.5t8.5 -52.5l47 -10zM279 702l-46 19q-43 0 -43 -103q0 -66 17 -176z" />
<glyph unicode="?" horiz-adv-x="1232" d="M745 1030q0 -66 -122 -65l8 59q-2 6 -2 23q0 59 57 59l31 -8q28 -43 28 -68zM719 303l20 -88q0 -39 -43 -156h-284q-31 88 -39 174l-11 3q16 94 54 272l20 20v37q25 35 90 62v24q14 37 56 60l2 2q-12 14 -35 57h69q18 63 29.5 85t39.5 37t38 26q2 41 8 60.5t31 31.5 l-8 39q8 18 16 38q-18 27 -12 80l-121 127q-10 2 -92 9q-10 -8 -84 -48q0 152 -23 271q23 2 47 -2q0 6 8.5 55t8.5 84t-17 51l17 -76q4 -20 8 -53q4 53 78 53q43 0 90 -53q29 12 47 12l39 -4q0 -4 8 -34h12l23 -3q31 -25 94 -69l23 -60q4 -20 4 -30l-2 -15l-27 -34 q17 12 328 145l-324 -70q6 2 30 2t105 -22q2 -33 9 -98q66 -37 65 -131l-6 -148l-25 -14q12 -45 12.5 -76t-31.5 -75t-36 -52q-10 -59 -22 -85t-59.5 -71t-92.5 -115.5t-88 -138.5q-18 -20 -32.5 -35.5t-14.5 -60.5zM516 1061q-70 -14 -168 -12q12 53 41 101t43 48 q23 -25 29 -37q51 -22 55 -100zM102 1223q3 0 23 -13h4l-23 -86q-8 8 -77 35q16 70 67 213h10l-6 23q47 57 83 88t81 33q8 0 21 2q-2 61 84 65q31 33 112 25q10 -50 35 -152q-51 -23 -84 -26l-12 -91l-45 15q0 33 18 41l-18 28q27 -2 52.5 -4t55.5 -24l31 -97 q-139 -78 -146 -101t-8.5 -61t-15.5 -175q-186 18 -332 18l-8 123q0 31 84 270q-23 -90 -47 -182zM678 848q0 -39 -105 -92l-10 84q0 66 55 65q14 0 37 -19.5t23 -37.5zM455 946l-60 -8q-59 0 -59 76l119 108v-176zM317 887q0 -37 -100 -96l-14 92q0 63 57 63t57 -59z M305 831q0 -29 -102 -190l-13 170q-2 23 15.5 51.5t42.5 28.5q57 -1 57 -60zM25 862q0 55 62.5 55.5t62.5 -55.5q0 -12 -23 -35.5t-35 -29.5l-65 53v-8l-2 6v14zM113 821q0 -41 -107 -92l-8 84q0 23 15.5 44.5t39.5 21.5q60 -1 60 -58zM408 297q0 -31 -91 -129 q-25 106 -24.5 127t18 41t41.5 20q56 0 56 -59zM573 72q0 -39 -98 -97l-14 93q0 63 53 63q59 0 59 -59zM383 195q0 -39 -107 -99l-8 90q-2 23 14.5 44.5t37 21.5t42 -18.5t21.5 -38.5zM379 88l119 -12v-99q-22 1 -123 11q-47 4 -47 53t51 47zM381 111q0 -31 -100 -193 l-13 172q-2 23 15.5 51.5t42.5 28.5q55 0 55 -59zM608 -414q-28 0 -96 17q-25 -12 -38.5 -12.5t-58 32.5t-55.5 37q0 70 19 172q-16 10 -78 53q137 72 166.5 72t86 -8t99.5 -8q62 -123 62 -239t-107 -116zM397 20q-20 -195 -20 -350q-51 0 -81 38t-30 70.5t131 241.5z M831 979q0 61 -57 61t-57 -65l14 -90q100 57 100 94zM690 795q0 57 -55 57q-23 0 -41.5 -24.5t-18.5 -47.5l13 -131q102 113 102 146zM176 995q0 57 -59 58q-55 0 -56 -66l13 -90q102 59 102 98zM401 150q0 25 -22.5 42t-42.5 17q-55 0 -55 -53q0 -2 1 -6t1 -9l2 -6v8 l51 -59q65 11 65 66z" />
<glyph unicode="A" horiz-adv-x="1785" d="M1227 1280q0 -33 -105 -137l-10 125q-2 18 17.5 44.5t39.5 26.5q58 0 58 -59zM1282 1112q0 -43 -111 -92l-8 84q0 66 58 65q16 0 38.5 -19.5t22.5 -37.5zM1305 1047q0 -35 -105 -140l-12 125q0 18 19.5 45t39.5 27q58 0 58 -57zM1346 940q0 -39 -105 -90l-12 86 q0 63 55 63q62 0 62 -59zM1384 821q0 -37 -102 -94l-16 90q0 66 57 66q18 0 39.5 -15.5t21.5 -46.5zM1423 707q0 -41 -104 -97l-12 86q0 66 55 66q18 0 39.5 -17.5t21.5 -37.5zM1436 653q0 -39 -103 -98l-14 94q0 61 55 62q62 -1 62 -58zM1475 547q0 -37 -103 -94l-14 90 q0 63 55 63q62 0 62 -59zM1513 444q0 -41 -104 -94l-12 86q0 66 57 66q16 0 37.5 -20t21.5 -38zM1526 391q0 -37 -103 -96l-14 90q0 63 55 64q18 0 40 -19t22 -39zM549 1153l-6 43q0 41 37.5 91t42.5 89q10 86 51 160q6 51 49 76q6 4 84 33q53 -39 102 -39q-6 0 95 10 q29 -104 61.5 -216t75.5 -192q10 -20 14 -60t8 -52q51 -43 66.5 -142.5t35.5 -136.5t44.5 -85t17.5 -91v-6q-2 -6 -2 -8v-6q20 -31 43 -62q14 -27 16 -74v-22l39 -39q12 -37 12.5 -78t2.5 -47l20 -10q8 -41 31 -125l39 -39q6 -18 47 -199h8q4 2 7 2t10.5 -1t10 -1.5 t201.5 -29.5q-57 -23 -176 -64q10 -111 39 -242q-248 0 -370 19q-31 111 -73 258t-65.5 159.5t-119 12.5t-245 -12.5t-212.5 -12.5t-111 4q-41 -109 -141 -350h-49q-18 -63 -129 -63q-31 0 -172 18q16 59 20 115q8 96 70 117q0 -2 -4 -5l4 3q-6 18 -6 47t8 77l26 25l3 8v15 q-2 10 -3 14q0 70 54 98q4 4 4 53.5t28.5 127t55.5 116.5l16 10v31q0 53 42 112.5t42 106.5t45 123t45 108t25.5 73.5t25.5 70.5t19.5 48.5t40.5 35.5zM668 -68q0 -29 -27 -79q-33 -16 -49 -17q-59 0 -60 60q0 33 50 90l26 4q60 -1 60 -58zM918 1083q0 59 -58 60 q-27 0 -44 -29t-15 -51l12 -170q105 161 105 190zM881 981q0 18 -22.5 37.5t-39.5 19.5q-57 0 -57 -65l10 -84q109 51 109 92zM827 850q0 20 -21.5 38.5t-39.5 18.5q-55 0 -55 -65l12 -88q104 59 104 96zM1044 377q-16 102 -30 153l-25 27q-6 23 -6 57l2 13l-33 32 q-12 35 -13 79t-3 55l-35 34q-12 31 -18 84t-9 64q-53 47 -53 108h-8q29 20 45 31q-6 -35 -37 -110l-20 -13q-4 -45 -21 -135q-18 -57 -78.5 -189.5t-78.5 -224.5l-13 -67q113 -10 215 -10t219 12zM788 743q0 20 -21.5 40t-37.5 20q-57 0 -57 -66l8 -84q108 49 108 90z M737 614q0 20 -22.5 39t-38.5 19q-57 0 -58 -66l15 -88q104 61 104 96zM696 532q0 59 -57 60q-25 0 -42 -28.5t-15 -51.5l12 -170q102 157 102 190zM737 51q0 59 -61 60q-57 0 -58 -68l13 -90q106 61 106 98zM338 -336q0 27 -31 82q-68 -12 -100 -72q0 -72 63 -71 q68 0 68 61zM956 692q0 -31 -104 -145l-12 131q0 25 18.5 48.5t42.5 23.5q55 -1 55 -58zM762 676q0 -29 -103 -139l-14 131q0 25 18.5 46t43.5 21q55 0 55 -59zM881 444q0 -41 -109 -92l-10 84q0 66 57 66q16 0 39 -20t23 -38z" />
<glyph unicode="B" horiz-adv-x="1628" d="M1260 604q86 -35 116 -51q0 -41 -4 -70h4q45 -18 54 -63q0 -8 -3 -88l21 -23q14 -51 14 -88q0 -115 -78 -184l-4 78l70 -49q-10 -57 -47 -170l-23 -13q-4 -72 -126 -158t-188 -103q-98 -25 -226.5 -21t-153.5 4l-237 -15l-170 11q-45 0 -117 -19q-25 57 -23 107 q-6 18 -6 14l45 -33h-51l-43 29q4 -4 4 -8q-6 2 -47 20q-14 143 -14 125q0 27 28 64q10 45 10.5 143t-13 191.5t-13.5 135.5t14.5 107.5t14.5 97.5l-19 293l19 308l-15 233q0 162 117 205q37 14 242 26q23 2 61.5 -7t201 -17t345.5 -4q29 -49 76 -139q84 18 114 18 q115 0 115 -156v-12q58 -19 65 -37t7 -76v-24q33 -47 33 -160q0 -203 -74 -252l-19 -12q-6 2 -6 0q-10 -63 -69 -70q-8 -31 -27 -41q-8 23 -12 11l37 -13v-45zM113 1067q0 -31 -103 -143l-12 131q0 18 19.5 43.5t37.5 25.5q58 0 58 -57zM115 956q0 -31 -107 -276l-10 250 q0 16 20.5 53t36.5 37q60 -1 60 -64zM127 817q0 -31 -102 -143l-13 131q0 18 18.5 43.5t39.5 25.5q57 0 57 -57zM109 758l-13 -187l-96 4q0 -29 14 187zM127 537q0 -35 -107 -291l-8 262q0 16 19.5 53t38.5 37q57 0 57 -61zM98.5 342q16.5 -20 16.5 -47t-109 -277l-8 252 q0 23 19.5 57.5t41.5 34.5q23 0 39.5 -20zM112 234.5q15 -21.5 15 -51t-107 -320.5l-8 293q0 20 20.5 60t42.5 40t37 -21.5zM115 82q0 -39 -105 -100l-12 90q0 68 55 67q62 0 62 -57zM115 -70q0 -33 -107 -278l-10 250q0 16 20.5 53t36.5 37q60 -1 60 -62zM1071 991 q27 45 33 60q-29 51 -62 129zM1071 1024q0 61 -57 61q-18 0 -38 -32.5t-20 -48.5v-13l9 -241q106 235 106 274zM592 1280l151 -20q20 0 58 12l16 22q70 -20 203 -69q8 -14 22 -45l-32 206l-27 -464q4 -33 4 -82q-10 -29 -258 -35q72 2 -291 2q-12 109 -12 226.5t14 226.5 q82 20 152 20zM889 819q0 57 -60 58q-55 0 -55 -66l8 -86q107 53 107 94zM1059 451q0 18 -22.5 37.5t-39.5 19.5q-55 0 -55 -68l10 -86q107 56 107 97zM1098 39q0 59 -62 59q-55 0 -55 -63l12 -86q105 51 105 90zM612 -35l205 -18q14 0 23 2l24 26q-12 -2 53.5 -2t63.5 -2 l4 17q10 43 47 59q18 8 37 16q39 52 39 141t-39 147.5t-41 60.5q-37 20 -115.5 40.5t-108.5 20.5t-80 -14.5t-81 -14.5q-64 0 -184 15q-14 -45 -35 -58q6 -80 0 -226.5t-6 -199.5q35 -16 102 -36q80 27 92 26zM657 -61q-127 111 -245 104l-2 -98h6l24 -2zM8 102 q107 297 107 322.5t-15.5 46.5t-38 21t-43 -35t-20.5 -56v-12zM825 1212q0 -35 -104 -96l-10 92q0 63 53 64q61 -1 61 -60zM735 1202q0 -39 -106 -94l-11 84q0 68 56 68q18 0 39.5 -20t21.5 -38zM889 938q0 -41 -105 -100l-10 90q0 68 55 67q60 0 60 -57zM721 1018l-242 8 q-51 0 -51 49q0 55 55 49h39q39 0 199 -106zM1096 356q0 -29 -101 -198l-14 178q-2 18 17.5 48t39.5 30q58 -1 58 -58zM1122 264q0 -37 -102 -94l-14 88q0 63 57 64q59 -1 59 -58zM928 233q0 -31 -101 -186l-14 170q-2 20 15.5 49t41.5 29q58 -1 58 -62z" />
<glyph unicode="C" horiz-adv-x="1525" d="M1307 819q0 -33 -105 -186l-12 166q-2 20 15.5 50t41.5 30q60 -1 60 -60zM1206 795l-6 -97q-63 0 -113 9l-24 4l-45 10q0 88 49 88h10q-21 0 129 -14zM772 1130q0 -61 -67 -61l-37 10q-27 59 -27 86q0 61 55 62q27 0 51.5 -35t24.5 -62zM1083 831q0 -31 -102 -141 l-12 129q0 18 18.5 45t38.5 27q57 -1 57 -60zM961 907l-283 4l2 99q12 0 34 1t31 1q54 -1 216 -105zM68 1081l-9 74q0 20 19 84h12q23 61 64 64q8 70 57 81v17q45 31 84 35q2 66 137 125l37 16l33 8h73q43 43 55 43h17q6 -2 8 -2l11 -2q47 -51 53 -76q31 -12 39 -30l-88 -7 l4 9q-31 31 -31 67q25 51 63 51t78 -20q-2 -2 -4 -8l60 24l121 -53v-72l-39 43q-8 -12 -29 -12q35 57 98 57q20 0 232 -127v-28q33 -6 63 -47l47 -80q68 -14 68 -109q0 -8 22.5 -38.5t22.5 -86t2 -73.5q-104 -37 -191.5 -37t-175.5 14q-10 55 -10 94v11q-49 12 -65 75 q-2 12 -38 12.5t-74 39t-98 38.5t-142.5 -17t-118.5 -40l-15 -37q-23 -23 -47 -24q2 -53 -63 -113v-82q0 -25 -14.5 -68t-14.5 -65l18 -205l-12 -254q0 -84 8 -131t80 -152.5t109 -101.5t49 4t50 -15t56 -15h13l39 28l20 2q25 0 49 -16q37 0 126 93t87 144q68 29 100 29 t110.5 -5t148.5 -5q-10 -43 -10.5 -93.5t-26 -88t-25.5 -70.5q0 -63 -125 -185t-190 -122h-6l-27 -37q-109 -47 -259.5 -47t-238.5 33l-12 24q-31 2 -78 8q-35 8 -172 103v28q-104 86 -123 107q-59 70 -59 151q-2 2 -34.5 69t-33.5 97l15 111q0 33 -14.5 96.5t-14.5 107.5 t14.5 147.5t14.5 154.5l-21 149q0 78 62 129zM520 727q0 -35 -104 -141l-13 127q-2 20 15.5 45.5t42.5 25.5q59 0 59 -57zM506 659q0 -35 -105 -139l-12 125q0 18 19.5 45t40.5 27q57 -1 57 -58zM512 727q-12 -236 -10 -350q-51 0 -82 39t-31 71.5t123 239.5zM381 201 l10 198h96l-12 -198h-94zM494 590q0 59 -58.5 59t-58.5 -63q0 -16 24 -123q93 96 93 127zM506 166q0 57 -55 57q-23 0 -42.5 -24.5t-19.5 -46.5l12 -132q105 113 105 146zM520 98q0 59 -59 60q-25 0 -42.5 -27t-15.5 -47l13 -127q104 106 104 141z" />
<glyph unicode="D" horiz-adv-x="1843" d="M330 1642q112 -32 144 -32t95.5 14t102.5 14t98 -24q2 8 10 24q63 0 153.5 -7t119.5 -7q33 16 70.5 16t168.5 -122q25 10 47 10q51 0 66.5 -36t26.5 -65q31 -14 81 -45q57 -49 107.5 -177t50.5 -196.5t-8 -93.5q20 -76 20 -258v-73q5 -15 5 -74.5t-31 -106.5 q-4 -31 1 -85.5t5 -78.5t-12 -98h-19q-12 -47 -24 -92q-20 -53 -60 -69q0 -12 -10 -46q-47 -86 -185.5 -168.5t-234.5 -82.5q-49 -47 -110 -48q-25 0 -75 10.5t-77 10.5q4 0 -74 -31q-35 -10 -80 -10l-12 27q-248 4 -321 -7l-7 19q-70 0 -57 70v2q20 -14 60 -45 q-68 -14 -127 -13q2 35 2 115q0 31 36 104q-8 8 -30 39q-18 78 -19 189l19 387q0 86 -47 497l59 -114q0 37 -14 151q-45 27 -45 47q0 49 49 54q6 80 22 239l-16 -2l-2 -2l43 -33v-2q-6 0 -41 15v22l-8 125q0 53 18 96zM127 1055q0 -31 -102 -191l-13 172q-2 20 15.5 49 t42.5 29q57 0 57 -59zM136.5 968q21.5 -17 21.5 -42t-21.5 -43.5t-42.5 -22.5l-55 60v-2q-2 4 -2 12q0 55 53 55q25 0 46.5 -17zM127 850q0 -31 -102 -148l-15 138q0 25 18.5 46t43.5 21q55 0 55 -57zM127 760q0 -37 -104 -92l-13 90q0 61 58.5 61t58.5 -59zM127 698 q0 -39 -102 -96l-15 92q0 61 56 62q61 -1 61 -58zM14 395l11 221l96 -2l-10 -219h-97zM111 284q16 -21 16 -49t-104 -272l-11 258q0 20 17.5 52t41.5 32t40 -21zM0 -27q0 64 14 183l97 -4q0 -63 -15 -183zM539 -416l-275 6l2 97q20 2 68.5 1.5t204.5 -104.5zM99.5 -49.5 q15.5 -20.5 15.5 -48t-107 -277.5l-10 264q0 82 61 82q25 0 40.5 -20.5zM115 -295q0 -29 -105 -182q-14 74 -14 127q0 115 61 114q58 0 58 -59zM602 356l10 287q0 88 -6 131q14 43 14.5 65t-12.5 42q6 59 19 174q45 25 45 43q0 47 -56 53q-8 31 -8 64.5t31 76.5 q178 -35 222 -35t103.5 4.5t92.5 0.5q40 -46 96 -45q74 0 122 -121.5t48 -216.5q0 -14 -3 -63q-6 -93 15 -142q12 0 25 6l-10 18q-41 -18 -41 -57q0 -10 23.5 -31.5t33.5 -19.5l20 2l-4 96h-73l6 -282q0 -139 -29 -209q-6 -14 -45 -60h-22l-76 -96v-55l67 45q-39 16 -77 16 l-27 -4l-25 -23q-4 -4 -12 -14q-47 16 -70 14q-113 -63 -381 -20zM330 829q0 66 -60 66q-14 0 -34.5 -33t-20.5 -47v-10l10 -254q105 247 105 278zM330 618q0 59 -56 60q-23 0 -42 -24.5t-17 -45.5l10 -127q105 104 105 137zM225 256q105 248 105 273.5t-15.5 48t-39.5 22.5 t-42 -34t-18 -54zM313 227l11 207l-97 4l-10 -209zM336 246q-135 -219 -135 -252t30.5 -71t81.5 -38q0 152 23 361zM1118 758q0 -29 -102 -140l-15 132q0 25 17.5 46t42.5 21q57 0 57 -59zM1130 709q0 -31 -106 -189l-10 166q-2 18 17.5 50t41.5 32q57 0 57 -59zM786 915 q0 -31 -100 -147l-14 135q0 25 18.5 47.5t40.5 22.5q55 -1 55 -58zM795 827l-215 9v96h51q43 -1 164 -105zM934 526q-57 0 -84 28t-27 60.5t111 135.5v-224zM1151 438q0 -76 -102 -192l6 266h96v-74zM954 543q0 -37 -108 -92l-8 84q0 66 55 65q61 0 61 -57zM1139 353.5 q16 -17.5 16 -44.5t-106 -143q-2 20 -6.5 49t-4.5 57q0 98 62 99q23 0 39 -17.5zM952 438q0 -31 -104 -184q-14 76 -14 127q0 117 61 117q57 -1 57 -60zM1126 178q0 -47 -6 -112q-2 -18 -25.5 -49t-29.5 -31t-28 21.5t-21.5 44t14.5 132.5zM934 356l-10 -190h-99 q4 66 13 194zM928 80q0 -31 -105 -137l-12 125q0 20 19.5 44.5t39.5 24.5q58 0 58 -57z" />
<glyph unicode="E" horiz-adv-x="1351" d="M1243.5 1134.5q16.5 -20.5 16.5 -45t-105 -286.5l-10 268q0 84 59 84q23 0 39.5 -20.5zM1247 993q0 -37 -104 -92l-13 84q0 68 56 68q18 0 39.5 -20t21.5 -40zM971 1219l-6 -97q-61 0 -103 8l-20 5q-45 8 -45 49q0 51 53 49q39 -2 121 -14zM1057 920l-193 6q-47 6 -47 49 q0 49 51 49h4q83 0 185 -104zM850 1128q-84 -14 -385 -32q106 53 213 108q0 -25 -16 -35q8 0 30 -30l8 80h80q8 0 33 -23q27 -31 37 -68zM840 997l-2 -98h-480l181 94q0 -18 -80 -69l82 -11l16 97h33q-2 -1 250 -13zM1165 309q-111 0 -110 82q0 39 110 148v-230zM571 909 q0 -27 -102 -182l-12 168q-2 20 15 49t42 29q57 -1 57 -64zM467 439.5q-39 11.5 -53 11.5t-35 -21q10 -102 10 -137t-16.5 -128t-16.5 -142t4 -54q23 -12 37 -30q137 14 242 14t170 -27l20 -45l-32 23q-6 -33 -45 -31l2 6q4 47 51 47q14 0 26 -6q2 14 5 31h176q66 0 84 -41 q2 28 -6 57q-2 -10 -17 -51q8 4 47 33q43 -6 195 -15q-25 -57 -35 -74.5t-41 -47.5l12 51q10 -25 19.5 -46.5t5.5 -68.5l-39 -14v-13q0 -18 80 -100q-10 -4 -88 -20t-93 -17l-63 10q-31 6 -135 25l74 6q70 0 80 -43l16 33q-27 -18 -41 -25l-78 -4q-78 0 -86 41q-4 14 -4 43 q23 0 29 -28l33 36v-67q-147 -25 -152 -25l-145 4q-84 4 -146 -6l-2 6l4 9q-33 -20 -163.5 -20.5t-338.5 30.5q-14 102 -14 190l12 351l-14 452l12 397l-16 240q0 59 27 107q-27 20 -27 74.5t20 203.5q61 0 94 -6l31 -6q2 0 26 13t49.5 13t68.5 -39q10 0 46 20.5t67.5 20.5 t90 -14t87.5 -14l299 20l227 -18l168 10q16 -106 16 -172t-33 -195q-74 -10 -116 -10l-242 19l-109 -15q-131 0 -393 -8q-29 -172 -28.5 -248.5t16.5 -191.5q47 -18 70 -19q-2 0 6 64l94 -2q2 -20 2 -60q39 -2 111.5 5.5t107.5 7.5l244 -13q55 0 115 9l36 -312 q-33 -12 -45 -32q-70 -27 -151 -27l-283 16l-84 -12q-25 0 -49 21l-20 -21q-31 0 -70 11.5zM807 279q-84 0 -84 56t55 46l6 2q29 2 83.5 -6t74.5 -8l-2 -99q-59 0 -133 9zM575 379q-10 -195 -10 -344q-51 0 -81 38t-29 62q-1 41 120 244zM406 1100q0 57 -60 57 q-25 0 -40 -21.5t-15 -43.5l8 -93q107 60 107 101z" />
<glyph unicode="F" horiz-adv-x="1357" d="M983 1487q-86 18 -119 26q-63 16 -67 84q49 29 135 52zM870 1534l-208 6q-49 0 -50 49q0 51 54 49q83 -4 204 -104zM438 1626l-8 -96q-158 0 -158 57t54 51h2q36 0 110 -12zM436 1524l-243 6v96q112 7 243 -102zM881 907l-201 8l2 97h47q43 -1 152 -105zM918 1065 q-4 -25 -58 -494q-82 266 -82 314l4 41zM135 1556q0 -33 -98 -184l-14 166q-2 23 15 49.5t42 26.5q55 -1 55 -58zM147 1485q0 -31 -100 -142l-12 130q0 25 17.5 47t39.5 22q55 0 55 -57zM150 1399q0 -39 -105 -92l-10 88q0 61 53 61q62 0 62 -57zM174 954l6 314h2 q4 119 -6 178l43 45q70 4 142 -6t96 -6q68 27 99.5 26.5t75.5 -6.5t64 -6l-2 -4l25 14q18 0 65 -7t72 -5q29 25 122 25t157 -29q0 8 8 26q74 4 102 -22q4 0 25.5 6t75.5 8l10 -53q0 -14 -2 -18q33 -33 35 -88q0 -9 8 -89h-6v-61q-201 -51 -494 -51q-37 0 -172 4l-27 25h-20 q-104 0 -133 -7l-6 -6q0 -49 -9 -151q27 -18 27 -43q0 -49 -41 -49q2 2 6 -5q0 -16 6 -22l4 -8q18 -20 18.5 -48.5t-26.5 -127.5q2 -2 6 -13q152 -16 170 -14q115 31 151 31t75 -11l18 -20q33 0 99.5 14.5t101.5 12.5l65 -2v-72l-41 47q-10 -14 -30 -14l-1 -2q20 32 58 32 l27 -6l49 -53q-8 -80 -15 -260q-61 0 -137 6t-102 6q2 0 2 2h2l-33 -14q-12 2 -39 2l-147 -17l-246 15q-41 -84 -41 -176l14 -336q0 -152 -57 -281q-66 12 -88 35q-23 2 -66.5 -2t-69.5 -4t-77 10q-10 102 -10 155.5t14 106.5q42 16 72 9h-12l-23 -33l39 -39h-66 q-2 16 -14 65t-12 76t8 73t10 64q-10 31 -10 63t12.5 103.5t12.5 108.5l-17 227q0 25 14.5 66t14.5 67.5t-15.5 102t-15.5 116.5zM120 1238q15 -22 15 -49.5t-102 -326.5l-10 305q0 18 20 55.5t41 37.5t36 -22zM131 977l-10 -260h-96q0 88 12 264zM118.5 710.5 q16.5 -22.5 16.5 -51t-102 -317.5l-10 297q0 18 20 56t39.5 38t36 -22.5zM125 463q0 -29 -150 -377q35 315 35 351t18.5 61.5t41.5 25.5q55 0 55 -61zM150 1092q0 57 -60 57q-55 0 -55 -64l10 -86q105 54 105 93zM135 369q0 57 -56 57t-56 -64l12 -88q100 58 100 95z M328 145q-135 106 -176 107h-37q-53 6 -53.5 -46t49.5 -52h14zM111 317q0 57 -56 58q-18 0 -37.5 -23.5t-19.5 -44.5l12 -129q101 108 101 139z" />
<glyph unicode="G" horiz-adv-x="1769" d="M1100 975q0 -37 -103 -94l-14 86q0 66 55 65q18 0 40 -18.5t22 -38.5zM1112 922q0 -37 -104 -97l-13 93q0 63 56 63q61 0 61 -59zM1128 758l97 12q29 0 76 -24.5t63 -26.5l61 39q31 4 62.5 4t120.5 -6q14 -51 10 -64l-4 4q18 -37 2 -71l14 -19q0 -27 -10 -170 q14 -28 14 -104t-43 -221.5t-98 -194.5q-20 -16 -47 -41q-6 -57 -31 -80q-14 -16 -67.5 -42t-75.5 -66q-29 -14 -64 -19l-59 -10l-39 -41q-88 -27 -158.5 -27t-234.5 45t-199 69.5t-56 59t-67.5 60t-70 55t-23.5 90.5q0 2 -31.5 38t-38.5 52q-27 72 -28 193q2 -135 2 113 t-8 292l-4 7q-18 18 -18.5 47t18.5 41q0 45 14 160.5t10 195.5q14 6 41 12q-14 23 -14 37q0 80 73 121q27 14 33 36.5t12 47.5q25 74 89 86q164 139 233 139q30 0 74 -22l88 63l10 -10q23 23 60 22.5t89 -12.5t82 -12q100 0 195.5 -94t138.5 -109q82 -27 70 -98 q10 -4 22 -12q80 -113 80 -170.5t11 -96.5l-84 -18q-12 -51 -99 -62l-49 25q-20 -10 -41 -10q-66 0 -130.5 103.5t-79.5 113.5t-106 27.5t-126 17.5q-203 0 -285 -162q-61 -125 -61 -379q0 -25 14 -84t12 -108l-26 -39v-72q-25 6 -55.5 31.5t-30.5 48.5q0 33 82 33l4 -43 l2 -6l-2 -23v-61l22 -21q2 -8 2 -108q0 -4 17 -37q27 -41 34 -115q78 -27 117 -98q6 -14 80 6q59 -16 109 -16q166 0 246 120t73 287q-25 6 -46.5 6t-66.5 -8q-10 -86 -10 -102h-96v84q0 27 -4 28.5t-28.5 2.5t-108.5 10v53q-2 4 -2 20v8l2 197q74 39 109.5 44t140.5 -1 q8 -29 14 -57q-12 8 -19 37l-28 -15l-4 -4q14 -2 22 -8v16q-2 12 -2 17q-4 -4 -8 -6zM1124 252q0 -41 -104 -98l-12 88q0 66 57 65q18 0 38.5 -16t20.5 -39zM1100 158q0 -31 -105 -144l-12 131q0 18 19.5 44t39.5 26q58 0 58 -57zM639 508q0 -43 -109 -90l-8 84q0 63 58 63 q16 0 37.5 -19.5t21.5 -37.5zM178 936q0 -37 -104 -96l-13 88q0 66 58 65q16 0 37.5 -18.5t21.5 -38.5zM907 283q0 -33 -149 -363q33 272 33 348t58 76t58 -61zM127 879q0 -31 -102 -183l-13 166q-2 18 16.5 49t39.5 31q59 0 59 -63zM127 778q0 -33 -104 -137l-11 127 q-2 20 17.5 45t42.5 25q55 -1 55 -60zM115 715q0 -31 -105 -144l-12 129q0 18 19.5 45t39.5 27q58 0 58 -57zM111 455q-113 0 -113 80q0 41 113 143v-223zM0 244l14 209l97 -2q0 -74 -15 -209zM127 207q0 -31 -102 -184l-13 167q-2 18 16.5 48t39.5 30q59 0 59 -61z M662 1094q-78 16 -93 14l-344 -29l353 -73l65 -9zM920 362q0 59 -58 60q-59 0 -59 -105.5t14 -136.5q103 155 103 182z" />
<glyph unicode="H" horiz-adv-x="1550" d="M598 973q0 -39 -104 -92l-9 86q0 66 54 65q59 0 59 -59zM516 1104l-8 -98q-20 0 -115 10q-45 4 -45 52t51 48h9zM1112 391l-213 6q-49 0 -49 92l47 7h10q76 -1 205 -105zM1010 905l-17 164q0 41 21 94q-25 49 -25 137.5t53 139.5q0 8 -17 35.5t-50 99.5q59 16 117 35 q76 20 99 20t73 -6l26 -41q35 -4 64 -55q-6 -12 -17 -33q14 0 45 -10q-23 -74 -29.5 -214.5t-14 -181.5t0.5 -40.5t23 10.5q10 -16 10 -39t-16 -55q-2 -29 18 -185q-33 -16 -33 -49t15.5 -102.5t15.5 -116.5t-13 -163t-13 -175h-95l11 96q-4 12 -5 21v4q0 33 41.5 93.5 t69.5 100.5l6 -270q0 -227 -33 -321h17v-134l-15 -16l-2 -4l2 2v2q0 4 1.5 8t1.5 6q0 -2 1 -7t1 -9l-9 -55q-41 0 -120.5 -13.5t-120.5 -13.5t-81 50t-46 93q27 74 26 93l-14 129l21 356q0 88 -9 115l-34 20q-10 -4 -30 -15t-30 -16l21 37q-33 -29 -68 -6l25 -33h-25 q-76 0 -113 9q-79 -19 -125.5 -2.5t-55.5 16.5t-163 -18q-4 -25 -51 -78v-54l14 -440q0 -104 -14 -211q-8 -2 -70.5 -18t-95.5 -17q-115 0 -143 37q-12 14 -37 129l16 23v2h-2l2 -2v-4q-12 23 -14 43q-4 -2 -6 -2q20 279 20 475l-18 473q0 51 14.5 157.5t12.5 161.5l-25 50 q-2 78 8 178t4 149l35 55q-8 0 -278 -65q348 104 485 104q48 0 61 -63q12 0 52 -14l-19 -105v-8q25 -35 25 -68.5t-11.5 -70.5t-11.5 -56q14 -29 14.5 -54t-14.5 -40q0 -45 6 -68.5t4 -60.5l-12 -26l8 -9q18 -68 27 -157q59 -2 203 -9l16 -26q47 31 94 31l121 -15l168 12 q25 53 25 74zM598 508l107 -12l-3 -99q-160 0 -159 62q0 55 53 49h2zM1362 -295q0 -31 -100 -184l-13 166q-2 23 14.5 49t41.5 26q57 0 57 -57zM801 203l-228 8q-51 0 -51 94l60 2h32q42 0 187 -104zM1325 -416l-182 4l-352 43l348 56q88 3 186 -103zM606 199q0 -41 -6 -109 q-2 -20 -24.5 -50t-29.5 -30t-27.5 21.5t-20.5 43.5t14 130zM598 16q0 -31 -100 -141l-15 129q0 20 19.5 45t38.5 25q57 -1 57 -58zM397 -111q-109 0 -108 80q0 37 108 146v-226zM416 1024q0 57 -60 57q-55 0 -55 -63l10 -88q105 55 105 94zM1376 -43q0 20 -21.5 38.5 t-43 18.5t-36.5 -20.5t-13 -44.5l6 -88q108 55 108 96zM416 913q0 55 -60 56q-55 0 -55 -64l12 -92q103 65 103 100zM397 246q15 135 15 213l-97 2l-12 -213zM416 203q0 57 -58 57q-18 0 -37.5 -24.5t-19.5 -45.5l12 -124q103 104 103 137zM428 975q0 -33 -100 -144l-15 132 q0 25 18.5 46t41.5 21q55 0 55 -55z" />
<glyph unicode="I" horiz-adv-x="610" d="M82 1077q0 -80 -88 -198l6 274h82v-76zM98 973q0 -41 -92 -99l-8 91q-2 23 12.5 44t36.5 21q51 0 51 -57zM109 918q0 -33 -89 -150l-10 137q-2 16 15.5 44t33.5 28q50 0 50 -59zM102 1454l13 123l39 10q16 0 28 -8l11 12q41 49 92 49q106 0 133 -75q14 -39 14 -225.5 t-35 -288.5q25 -45 25 -93l-12 -139l14 -522q0 -61 -13.5 -186t-13.5 -166t13.5 -84t13.5 -89.5t-37 -177.5q-86 -12 -140.5 -12t-158.5 33q0 125 8 199q-27 14 -127 100h133v18l-14 314l14 334l-18 243q0 33 10 76l21 25v16q0 49 -18.5 143.5t-18.5 155t9 95t46 63.5l4 4 q-35 23 -35 53zM109 547q0 -31 -89 -144l-10 129q-2 18 15.5 45t33.5 27q50 0 50 -57zM98 358q0 -27 -90 -190l-10 170q-2 23 13.5 51.5t37.5 28.5q49 -1 49 -60zM106 289l-6 -115q-6 -86 -45 -84q-8 0 -26.5 22.5t-18.5 43.5l13 139zM84.5 11q13.5 -22 13.5 -51.5 t-92 -319.5l-8 294q0 18 17.5 58.5t36.5 40.5t32.5 -22zM98 475q0 61 -49 62q-16 0 -33.5 -36t-17.5 -52l8 -252q92 245 92 278zM111 78q0 61 -52 61q-14 0 -31.5 -36.5t-17.5 -53.5l8 -258q93 254 93 287z" />
<glyph unicode="J" horiz-adv-x="1372" d="M1214 1253q0 -31 -100 -141l-12 129q0 18 18.5 45t38.5 27q55 -1 55 -60zM1184 520q-109 0 -109 82q0 37 109 141v-223zM1202 537q0 -41 -102 -95l-13 86q0 66 56 66q16 0 37.5 -19.5t21.5 -37.5zM1190 444q0 -41 -107 -92l-8 84q0 66 55 66q16 0 38 -20t22 -38zM776 180 l-16 209q0 494 12 821q-12 18 -12 135t28 189h25v39h43v6q0 63 75 63t208 -63q-20 -143 -19 -211l35 -22q-10 -16 -43 -82l2 -17q-2 2 -2 4t-4 6q-14 -18 -33.5 -18t-34.5 16q8 -27 -10 -45l90 2l-12 -53q0 -47 14.5 -142t12.5 -147l-2 -59l-23 -25v-30l-2 -101l20 -20 q16 -59 -2 -143t-18 -119l10 -180q0 -59 -12 -117l-37 -49q4 -25 4 -56.5t-26.5 -51t-51.5 -38.5q-72 -86 -145 -174q-86 -80 -211 -80q-53 0 -74 41l6 -6q2 0 9 -6q0 35 22 35q0 2 1 4t1 4q18 -29 19 -49q0 -66 -117 -66t-202 34t-204 118q-14 27 -16 63l-64 27l-28 113 l45 24l14 29q41 16 68 10h6l37 49l35 6q45 0 57 -45h2q-12 -6 -57 -20q33 55 120 121q2 -92 21.5 -115t76 -26t110 -3t73.5 13q35 27 72 53v16q31 31 59 39q6 27 33 84zM1190 1047q0 20 -21.5 38.5t-42.5 18.5t-36 -21.5t-15 -44.5l8 -90q107 60 107 99zM1202 780 q0 61 -55 62q-20 0 -38.5 -27t-18.5 -64.5t-29 -336.5q141 327 141 366zM1153 90q0 20 -22.5 38.5t-38.5 18.5q-55 0 -56 -65l13 -88q104 55 104 96zM856 -27q-154 106 -192 107h-37q-55 6 -56 -49q0 -49 50 -49h16z" />
<glyph unicode="K" horiz-adv-x="1673" d="M1366 1204q0 -41 -104 -96l-13 86q0 66 58 66q16 0 37.5 -19t21.5 -37zM604 1282q0 -39 -104 -98l-13 88q0 68 58 67q20 0 39.5 -17t19.5 -40zM481 1106q-27 -39 -67 -39l-29 6q-41 41 -41 68q0 53 57 53q35 0 56.5 -26.5t23.5 -61.5zM567 1047q0 -39 -104 -99l-14 90 q0 66 59 66t59 -57zM604 926q0 -31 -104 -144l-13 131q0 18 19.5 44t40.5 26q57 0 57 -57zM12 498l15 125q-34 44 -11 73l4 25q4 25 5 31v278q-12 35 -13 76l4 33l33 35q-23 63 -24.5 82.5t0.5 113.5h2q-16 23 -17 57q0 35 21 76q-6 20 -2 82q68 0 136.5 18.5t133.5 36.5 l96 -47q-2 -20 -5 -157q-3 -134 -36 -217l33 -13q12 -78 10 -184q0 -18 -21.5 -38.5t-29.5 -20.5v49q-14 -39 -27.5 -39t-19.5 28q0 -10 -31 271l140 -262q-25 -154 -25 -221.5t10 -129.5q41 90 117 99v18q0 78 100 107q-2 8 -8 59q66 55 93.5 55t41.5 -26q17 -17 17 -6 q-2 8 -13 24q0 -76 -45 -67q25 12 29 12l-51 78q18 16 125 162v38q39 18 96 52q6 6 6 35t21 59q27 2 53 6q0 105 92 119l47 129q47 -16 47 -16.5t78 6.5l39 -82l-29 18l-8 -6l21 -43q-76 23 -76 67q0 14 27.5 36t59.5 24t68.5 2t118.5 -4l35 -78q-2 10 4 20q4 -20 4 -28v-15 q-10 -35 -47 -56t-63 -36q-8 -43 -13 -49q-10 -26 -43 -37v-4q0 -20 -18 -36.5t-44 -78t-79 -83.5q-27 -10 -41 -47t-22 -50l-117 -116q-84 -84 -84 -125q0 -8 2 -13l12 -14q35 -41 37 -119q49 -18 55 -86q12 -4 37 -16q45 -23 45 -133v-6q53 -29 80 -86q6 -10 37 -111h27 q12 -25 28 -88l41 -14q20 -37 26.5 -76t12.5 -76q33 -18 53 -57l21 10q39 -63 39 -109v-2q37 -14 63 -92q6 -18 37 -110q-323 -32 -394 2.5t-71 144.5q0 8 4 25q-78 68 -145 192q-53 109 -109 217q0 2 -45 57.5t-45 106.5l-32 20q-18 55 -48 117q-14 4 -34 8 q-53 -59 -117 -130.5t-90 -86.5h-13q-8 -41 -40.5 -56t-63.5 -30l18 31l-18 31l49 -29v-94q0 -236 -16 -291q20 -41 20 -82q0 14 -20 -143q-29 -2 -104 -17.5t-116.5 -15.5t-129.5 29v51l-9 18l39 60q-8 -8 -26 -8q-35 274 -35 315t18.5 111.5t18.5 105.5zM592 229 q0 -35 -146 -366q31 299 31 336.5t17.5 64.5t40.5 27q57 -1 57 -62zM592 98q0 -35 -146 -366q31 301 31 337.5t17.5 63.5t40.5 27q57 -1 57 -62zM592 -82q0 -33 -105 -180l-12 160q-2 20 15.5 49.5t41.5 29.5q60 0 60 -59zM1018 705q0 57 -57 57q-20 0 -40 -26.5t-20 -45.5 l12 -129q105 113 105 144zM397 1280q0 59 -57 59t-57 -63l10 -92q104 59 104 96zM1057 625q0 59 -58 59q-27 0 -44 -28.5t-15 -51.5l12 -170q105 162 105 191zM385 1229q0 57 -57 57q-20 0 -40 -25.5t-20 -43.5l13 -132q104 113 104 144zM1159 426q0 59 -57 59 q-23 0 -41.5 -21.5t-18.5 -45.5l15 -131q102 110 102 139z" />
<glyph unicode="L" horiz-adv-x="1654" d="M709 975l-19 -184q0 -2 1 -7.5t1 -9.5l23 -22q10 -37 10 -74q0 -100 -53 -295q18 -24 33 -43l4 -31q0 -16 -4 -45h2q4 -152 -6.5 -207t-10.5 -82v-8q8 -6 19 -18q51 -12 153 -27l15 27h20v24q43 4 49 4q61 0 62 -47q0 -12 -4 -26l-46 45l20 7q19 7 30 7q68 0 84 -67h51 q-25 -66 -35 -89q-27 16 -27 31l-14 -12q0 16 -41 106q33 2 148 2h20q39 29 115 27l14 -24q55 -6 164 -13q23 27 55 27q68 0 68 -66q0 -25 -13 -53l45 -41l-12 -8l8 -2v-121l-65 -39q-35 -20 -76 -20l-203 14q-49 0 -147 -14.5t-142.5 -14.5t-116 15.5t-93.5 17.5 q-43 -25 -174 -25q-10 0 -29.5 -1t-28.5 -1q-137 0 -153 84h-4q-53 8 -72 88q-8 66 -17 132q55 14 79 18t28 6l6 14l-6 31l-2 8q-6 -12 -21 -18q0 -12 -6 -21q6 0 6 -43l27 89q27 -18 27 -47t-15 -87l-43 -8q-53 0 -59 49v7l-12 6v39l24 26q-2 0 -3 -1t-3 -1l-18 115 q0 27 14 49l-10 14q-28 110 20 383l-24 25v160l100 32q-4 6 -35 78v-41l29 -45q6 4 12 0l-37 -6l-57 10l14 172q0 33 -14 99.5t-14 105.5t14 128t14 120.5t-14 71t-14 67t48 72.5t87 61l-19 -30q14 10 34.5 10t31.5 -4l-25 28l8 -2q53 0 93 6l18 -34q16 -2 111 -15 q-20 -229 -20.5 -271t16.5 -114l-29 -51q4 4 8 6q-8 -16 -20 -28q6 -37 20 -138q-49 -25 -72 -24q4 18 33 24l-26 45q-6 -25 -37 -24q6 57 63 57l35 -8q27 -74 27 -92zM338 1268q0 -39 -102 -90l-15 86q0 63 55 63q18 0 40 -15t22 -44zM324 1163q0 -31 -103 -143l-12 129 q0 18 19.5 45t37.5 27q58 -1 58 -58zM338 1044q0 -35 -105 -96l-12 92q0 63 55 64q62 -1 62 -60zM117 1266q0 -29 -103 -140l-12 129q0 25 17.5 47.5t41.5 22.5q56 0 56 -59zM299 991q0 -33 -102 -139l-15 129q0 25 18.5 47.5t41.5 22.5q57 -1 57 -60zM348 817 q-63 2 -115.5 24.5t-52.5 37.5q0 9 8 22l25 66l66 -64q0 23 22 31q0 -13 47 -117zM131 1159q0 -31 -145 -364q29 295 28 340q0 86 60 86q57 -1 57 -62zM322 756q0 -74 -105 -191l6 266h96q0 -4 1.5 -30.5t1.5 -44.5zM322 675q16 -21 16 -50t-107 -263l-10 246q0 18 19.5 53 t42.5 35t39 -21zM154 680q0 -27 -20.5 -43t-43.5 -12q-66 35 -65 71q0 55 55 56q74 0 74 -72zM117 741q0 -33 -103 -139l-12 129q0 25 18.5 47.5t40.5 22.5q56 -1 56 -60zM324 508q0 -33 -105 -137l-10 125q-2 18 18.5 44.5t38.5 26.5q58 0 58 -59zM233 575q0 -25 -10 -39 t-59 -79q-53 86 -53 109.5t24.5 44t44.5 20.5q53 -1 53 -56zM248 381q-31 -45 -78 -45q-84 0 -84 88q0 29 21.5 45t47.5 16t54 -24q39 -29 39 -80zM324 207q0 -31 -103 -144l-12 132q0 18 19.5 43.5t37.5 25.5q58 0 58 -57zM96 190q31 -116 31 -161t-100 -99 q-20 129 -21 170q0 51 90 90zM242 -92l-90 -94q-27 106 -27 134.5t17.5 48t43.5 19.5l29 -10q27 -53 27 -98zM123 1165q-123 -203 -123 -235.5t31 -70.5t82 -38q-2 113 10 344zM559 432q0 37 -39 51l-39 -90q14 -8 29 -16h-2q-8 2 -43 14q37 8 55 19q37 16 39 36 q-43 -10 -43 -19t21 -21q22 18 22 26zM915 -84q0 72 -64.5 72t-64.5 -62q0 -20 27 -84q79 21 102 74zM541 -27q-156 106 -197 107h-39q-55 6 -55 -49q0 -49 51 -49h14zM131 1020q0 -35 -106 -98l-11 92q0 63 56 63q61 0 61 -57z" />
<glyph unicode="M" horiz-adv-x="1968" d="M1196 922l-137 73q8 63 12 78q16 53 54 53t46.5 -33.5t24.5 -170.5zM1085 803q0 -35 -104 -139l-12 124q0 18 19.5 44t39.5 26q57 0 57 -55zM1400 586.5q15 -21.5 15 -50t-106 -319.5l-11 293q0 20 19.5 59t43.5 39t39 -21.5zM1401 442q0 -31 -105 -190l-12 170 q-2 23 16.5 51.5t42.5 28.5q58 -1 58 -60zM1427 338q0 -37 -104 -96l-12 92q0 63 55 63q61 0 61 -59zM1415 285q0 -31 -106 -179q-12 70 -13 119q0 119 62 119q57 0 57 -59zM1010 645q0 -41 -111 -98l-8 90q0 23 16.5 44t37.5 21t43 -18.5t22 -38.5zM29 535l-21 200 q0 66 31 117q2 37 -6 101.5t-8 92.5t13 72.5t15 67.5l-39 39q-4 53 12.5 98t16.5 56t-23 214q8 -2 74.5 -13t98.5 -11q23 57 81.5 57t51.5 -2l-23 -49q14 14 32.5 14t26.5 -2q-6 12 -6 25l33 -10q12 -39 12 -61t-8 -42q147 -143 148 -319q0 -2 8 0l10 -9q39 -25 39 -63 q0 -10 -4 -31q-4 4 -2 6l-21 -61l312 92l-353 -29q61 4 95 -33.5t34 -99.5q0 -18 -4 -51q63 -39 64 -86q0 -10 -14 -33l6 -2q53 -31 53 -102q51 -27 61 -80q4 -18 4 -111l27 -8q18 -33 29 -71q12 0 33 4q8 8 20 16v6q2 10 2 42t27.5 80t27.5 62.5t9 47.5l51 51q8 72 16 92 t48 67.5t45 95t14 70.5l16 9q-2 4 -2 17t20 50l43 8v31q-2 20 -2 44t25 81h22q0 10 5 49q37 20 71 21v8q0 8 25 37v28l57 7l43 -2l25 -5l10 -8l6 10q16 -45 25 -69q-25 -4 -37 -4q-72 0 -72 73q0 31 17 64l14 -51q0 2 4 2l23 -86h-140q10 147 19.5 169.5t109.5 119.5 q8 -2 142 -25l8 -25q8 4 31 4l22 -2l96 -73q-20 -49 -75 -164q-57 16 -87 37q0 -14 -49 -15l33 88q27 -18 31 -75q4 16 23 16t100 -25q-2 -74 -19 -186q-18 -49 -92 -78q33 -18 98 -53q14 -41 15 -65l-17 -132l11 -4v-227h-19q27 -74 27 -208t-16.5 -280.5t-16.5 -209.5 q0 -4 16.5 -42t16.5 -75t-19 -116.5t-20 -88.5q-123 -31 -152 -31q-55 0 -102 66q-27 37 -94 57l-8 45q0 29 9 43.5t11 20.5v10l-12 100q0 20 8 52l-19 18q10 51 21 111l-16 14v55q-12 16 -13 19q0 70 19.5 205t19.5 173t-17.5 104.5t-19.5 94.5l88 -22q-14 -20 -47 -35 q-10 -4 -13 -51t-48 -127l-35 35q-16 -33 -29.5 -110t-49.5 -117t-38 -50t-2 -49t-22 -100h-23q-8 -35 -39 -115l-28 -19v-41q-14 -10 -39 -22v-61q-170 -18 -199 -19q-102 0 -136 41t-43 109.5t-13.5 82t-26.5 37.5q-33 45 -33 69.5t2 31.5q-8 2 -31 4q-33 106 -86 224.5 t-100 225.5q-6 -29 -6 -152.5t18 -170.5q-9 -36 -18 -45l16 -25l-2 -49l2 -80q-8 -14 -16 -31l16 -8v-123q0 -236 -39 -378h-61q-76 -47 -131 -48q-55 0 -168 68v68l16 184v2q35 -4 54 2l-56 10q22 72 3 179.5t-19 152.5t15.5 138t15.5 141zM1374 139q0 -55 -65 -55l-33 14 q-35 66 -35 90q0 51 51 52q39 0 60.5 -39t21.5 -62zM1399 -121q0 -23 -20.5 -47.5t-47.5 -24.5l-45 13v14l10 2l-26 4l-15 17q-23 27 -22 53q0 51 51 51q16 0 109 -24zM1421 -297q-55 0 -83 29t-27 55q0 39 110 143v-227zM1204 -31q0 -35 -104 -139l-13 127q0 16 19.5 43 t38.5 27q59 -1 59 -58zM1415 -283q0 -31 -104 -143l-13 131q0 18 19.5 44t40.5 26q57 -1 57 -58zM1268 -340l-174 -57l8 82v22q0 68 61 68l29 -6zM930 -184l-289 6l2 98h64q57 0 223 -104zM287 1233l-66 53l-59 -76q14 -12 47 -24l4 -12zM928 485q0 57 -56 58 q-23 0 -42 -24.5t-19 -47.5l12 -131q105 110 105 145zM1534 -317q0 80 -100 79l-43 -43q0 -47 32 -104l35 -4q76 0 76 72zM481 594q0 53 -65 53h-4q-59 0 -60 -55q0 -2 1 -7t1 -10q2 4 0 7l70 -54q14 4 35.5 29t21.5 37zM860 -109q0 33 -24.5 51.5t-49.5 18.5q-55 0 -55 -53 q0 -27 43 -70l23 -2q63 0 63 55z" />
<glyph unicode="N" horiz-adv-x="1918" d="M1745 1225q-57 0 -85 28.5t-28 61.5t113 137v-227zM1763 1241q0 -39 -106 -98l-10 92q0 63 58 63t58 -57zM1649 958l12 199l98 -2l-14 -201zM1778 766q0 -37 -107 -94l-12 88q0 63 57 63q16 0 39 -19.5t23 -37.5zM1763 713q0 -35 -104 -140l-12 125q0 18 19.5 45t39.5 27 q57 0 57 -57zM874 1556q0 -39 -102 -94l-16 86q0 66 57 66q61 -1 61 -58zM952 1411q0 -41 -108 -92l-8 86q0 63 55 63q18 0 39.5 -19.5t21.5 -37.5zM1763 618q0 -33 -106 -180q-12 72 -12 121q0 119 61 119q57 -1 57 -60zM1096 1212q0 -33 -105 -141l-12 129q0 18 19.5 44 t39.5 26q58 -1 58 -58zM1751 537q0 -27 -102 -187l-15 170q-2 20 15.5 49t42.5 29q59 0 59 -61zM1188 1042q0 -39 -107 -98l-10 90q0 66 57 66q60 -1 60 -58zM893 1284q-25 -203 -25 -350q-53 0 -83 38t-29 64q0 45 137 248zM1763 213q0 -41 -104 -96l-12 86q0 66 55 65 q18 0 39.5 -18.5t21.5 -36.5zM1149 752q0 -37 -102 -95l-17 88q0 63 57 64q62 0 62 -57zM1522 338l12 -82l2 -6l-61 22q20 -16 20 -38.5t-8 -30.5q-12 -4 35 -4l-47 57h92q-16 -70 -62 -233q25 -86 25 -180t-39 -130q6 -63 6 -190q23 160 27 164q0 -14 -8 -39v-2 q-27 -61 -136 -62q-55 0 -148 34t-93 83q0 25 10 45q-35 16 -98 64l-11 71l-16 2l-12 23h-31v119q-47 39 -336 444h-96q0 242 -68 281q-33 18 -42 34.5t-15 57.5q-4 8 -31 16l-2 2q-4 -162 -22 -526l-15 2l4 -17l-10 9q27 -39 27 -67t-15 -60q8 -29 37 -135l-39 -11 q4 -14 0 -30q14 -80 15 -68l-17 -121q0 -18 16.5 -60t16.5 -49.5t-8 -80.5q-20 -10 -24.5 -15.5t-14.5 -31.5q-82 4 -166 10t-162 45l13 33l-11 2q-2 43 -11 105t-9 89q0 74 31 105l-13 12l-2 37q-2 18 11 49l-23 10q-4 180 14 559t0 506l35 -24q-8 20 -8 32q-12 -6 -27 -6 q0 110 -4 164h4l-14 33q33 20 45 57l-6 4q-16 37 -23 89l-12 100q55 0 78.5 7t43 7t54.5 -14l17 -4q29 33 65 32q80 0 135 -55v-37l27 -8q18 -39 18 -88l41 -27q10 -38 4 -75q0 -8 25 -36t47 -42q41 -45 45 -64l41 -10q20 -45 21 -106v-13q76 -63 96 -114q4 -14 26 -52 l-6 -61q-10 6 -10 24q12 -5 29 -14h6l-47 -43v14q-2 8 -2 13q0 47 112 92l-4 -158v-33q63 -20 68 -61q6 -55 16 -66l17 -8q74 -37 63 -133h14q43 -74 71 -118.5t52 -61.5h7q18 27 24 33l-16 26q-12 45 -13 88l11 461l-17 209q0 43 29 86l-55 92q55 12 82 62q-49 49 -50 125 q0 31 13 125q45 8 59 8h8l19 12q53 -2 109.5 -3t105.5 -19q6 -14 10 -18.5t25 -10.5q6 -39 6 -122t4 -103q33 -25 35 -82q-43 -37 -41 -109l-27 41l57 -29q-16 -221 -16 -464l-14 -9q4 -12 0 -24v-4q16 -27 16 -46t-12 -44q12 -45 12 -99zM678 434q0 -39 -105 -90l-12 86 q0 63 55 64q62 -1 62 -60zM862 252q0 -37 -110 -98l-9 90q0 23 16.5 44t38 21t43 -18.5t21.5 -38.5zM887 168q0 -27 -103 -186l-14 170q-2 20 15.5 48.5t41.5 28.5q60 0 60 -61zM666 289q0 -29 -105 -191l-12 170q-2 23 15.5 51.5t41.5 28.5q60 0 60 -59zM678 207 q0 -27 -103 -187l-14 170q-2 20 15.5 49t41.5 29q60 0 60 -61zM1554 1554q0 57 -59 58q-18 0 -37.5 -25.5t-19.5 -44.5l12 -131q104 114 104 143zM1563 825l-97 6q-14 -111 -14 -134t21.5 -45.5t28.5 -22.5t29.5 30.5t24.5 51.5q7 69 7 114zM678 1198q0 59 -62 59 q-55 0 -55 -63l14 -84q103 51 103 88zM856 842v229q-113 -109 -113 -147q0 -82 113 -82zM692 147q0 57 -61 58q-25 0 -41.5 -21.5t-16.5 -44.5l9 -86q110 51 110 94z" />
<glyph unicode="O" horiz-adv-x="1761" d="M1516 1231q0 -41 -107 -92l-10 86q0 23 15.5 43t39.5 20q62 0 62 -57zM1591 1112q0 -33 -102 -139l-14 129q0 25 18 47t41 22q57 0 57 -59zM1591 1008q0 -29 -102 -140l-14 131q0 25 18 46.5t41 21.5q57 0 57 -59zM1624 604q-57 0 -84 28t-27 54q0 41 111 141v-223z M1618 762q0 -29 -105 -144l-12 132q0 18 19.5 43.5t38.5 25.5q59 0 59 -57zM1636 666q-25 -211 -24 -361q-51 0 -81 38t-30 71t135 252zM1604 322q0 -37 -105 -99l-12 92q0 63 57 64q60 0 60 -57zM1565 229q0 -31 -105 -143l-12 131q0 18 19.5 44t39.5 26q58 -1 58 -58z M1417 907q43 -54 43 -102q0 -16 -10 -52t-8 -55q33 -96 33 -196q0 -27 -7 -74l-36 -63q-2 -20 12 -62.5t14 -73t-21.5 -102.5t-45.5 -111l-17 -8q-2 -72 -19.5 -97.5t-82.5 -70.5q-14 -10 -58 -78q-46 -69 -241 -114l-29 -29q-174 -39 -248.5 -39t-93.5 6q-35 11 -55 56 h-115l-37 61q-4 0 -14 -1t-16 -1q-57 0 -78 27q-12 23 -27 45q-96 84 -115.5 110.5t-64.5 141.5l-39 69q-18 37 -18 90l16 160q0 33 -19.5 122t-23.5 114l31 14l-7 149q0 35 11 107q43 10 61 10q2 6 6 14q-10 27 -6 39l60 -59q-49 -4 -66 37q-57 -14 -96 -27q20 37 41 117 q2 43 24 78q23 6 23 0q0 20 -7.5 72.5t-7.5 93.5q31 23 44.5 23.5t62.5 -1.5q0 2 -2 4l14 15q15 74 6 133q43 20 70 20l2 4q12 61 64 62q10 0 26 -4q39 35 74 59v33q60 18 101.5 15t57 -3t46.5 14h57l12 -38q-6 -6 -20 -13l18 -55q-4 2 -14 4q-73 15 -78 78q47 63 139 63 q49 0 97.5 -21.5t93.5 -43.5q23 14 55 14q70 0 90 -59q20 4 88 -29l-6 -29h6q31 0 87.5 -49t101.5 -92l-41 -76q-23 -10 -55 -20q-2 10 4 22q-14 -4 -17 31q41 16 63 16q20 1 48 -18q-12 -6 -23 -4l56 -29q40 -105 41 -155l-15 -168v-21zM1386 1335q0 57 -61 58 q-57 0 -57 -64l16 -88q102 57 102 94zM1604 1063q0 20 -20.5 38.5t-39.5 18.5q-57 0 -57 -65l10 -88q107 59 107 96zM1604 958q0 57 -60 58q-55 0 -55 -64l8 -88q107 55 107 94zM1604 492q0 23 -18.5 40t-41.5 17q-55 0 -55 -66l8 -86q107 54 107 95zM362 516q23 -46 23 -72 q0 -29 -23 -63q27 -70 32 -114t13.5 -91t131.5 -156l-4 -20h26q53 0 68 -43q68 -10 123 -10t103 31.5t95 33.5q33 33 68 69t35 79l4 43l22 12q0 10 10.5 120.5t4.5 168.5l16 20h-2l-16 25q0 76 2 227l22 25l-10 168l-33 32q-61 141 -121 195q-76 63 -215 59l-24 -24h-95 q-18 0 -22 -2q-31 -53 -96 -53q-16 -35 -58 -105l-34 -20q-33 -84 -35 -242q2 139 2 -248q0 -20 -13 -45zM719 1194q0 -39 -109 -94l-8 86q0 66 55 65q62 0 62 -57zM809 946q0 -39 -102 -94l-17 86q0 66 58 66q61 -1 61 -58zM627 1063q0 -39 -103 -98l-12 92q0 63 55 63 q16 0 38 -19.5t22 -37.5zM791 901q0 29 -15 -186l-96 2q0 -29 14 186zM655 913q-39 -41 -82 -41q-6 0 -53 11q-33 49 -33 73q0 57 62 58q31 0 67.5 -29t38.5 -72zM782 686q0 -39 -102 -94l-14 90q0 61 55 61q61 0 61 -57zM815 279q-57 0 -85 28.5t-28 61t113 137.5v-227z M573.5 783q16.5 -24 16.5 -51.5t-107 -309.5l-8 291q0 18 19.5 56t41 38t38 -24zM578 608q0 -41 -107 -94l-10 86q0 66 55 66q18 0 40 -20t22 -38zM604 516q0 -41 -110 -92l-9 84q0 66 58 65q16 0 38.5 -19.5t22.5 -37.5zM924 193q0 -39 -103 -99l-14 90q0 66 58.5 66 t58.5 -57zM616 295q0 -37 -106 -92l-10 84q0 66 55 65q18 0 39.5 -18.5t21.5 -38.5zM655 205q0 -39 -104 -94l-14 86q0 66 57 65q61 0 61 -57z" />
<glyph unicode="P" horiz-adv-x="1697" d="M324 1544q0 -12 -22.5 -35.5t-35.5 -29.5l-67 55q2 -4 0 -10v6q-2 4 -2 14q0 53 63 53q64 0 64 -53zM362 1464q0 -12 -22.5 -35.5t-34.5 -29.5l-65 59q0 -6 -2 -10q0 4 -1 9t-1 7q0 53 63 54h14q49 -7 49 -54zM299 1430q-29 -39 -67 -39t-60 28.5t-22 59.5t22.5 49 t48.5 18l25 -6q53 -63 53 -110zM233 1341q0 -39 -104 -96l-12 92q0 63 55 64q61 -1 61 -60zM1561 1257l-7 -69v-6l52 -25q6 -16 26 -168l-51 -31q-2 -63 -22 -184q-37 -115 -129 -196q-90 -68 -169.5 -129.5t-130.5 -61.5l-98 6l-22 -24q-33 -8 -70 -9l-188 19 q-74 0 -213 -25q-2 -2 -6.5 -5t-6.5 -5q-14 -117 -8 -399l27 -54q0 -55 -29 -90q4 -43 4 -129l-4 -82q-78 0 -194.5 6.5t-159.5 8.5q-8 115 -4 336q-43 12 -43 55t49 53h10q18 27 1 96.5t-17 118t37 125.5l-5 14q-25 25 -24.5 130.5t29.5 193.5q-9 143 -9 547q-6 33 -36 61 l34 33v4q0 10 40 38t79 36q8 -25 19 -60v-10h-9q0 -25 -24 -41q8 -2 24 -18l13 96l6 184h24v27q66 0 82 -4q51 -12 51 -57q0 -10 -22 -56q2 2 2 9l-4 24q-14 0 -23 19q10 0 76 33.5t107 33.5t85 -23.5t44 -54.5v-12l71 6l29 43q66 0 86 -18l68 20q16 35 75 72 q31 -66 41 -127l-61 39q10 -8 14 -21l2 11l15 49h12q20 0 45 -12l25 -13l127 74l-27 -137q-2 -6 -2 -23v-4q16 12 41 12l35 -8l22 -51q-39 -27 -76 -55q8 0 17 -7q0 16 30 35l-14 15q121 -32 170 -68q10 -15 10 -25h17q35 -55 35 -86zM182 1255q0 -14 -37 -102h-22 q2 -6 2 -20l-8 -60q-106 0 -107 80q0 41 27 131q8 2 42 12t52 11q49 -1 51 -52zM141 1102q0 -41 -102 -94l-14 86q0 66 57 65q59 0 59 -57zM115 1022q0 -41 -109 -92l-8 84q0 66 57 65q16 0 38 -19.5t22 -37.5zM248 858q0 -37 -111 -92l-8 86q0 68 57 68q62 -1 62 -62z M152 850q0 -12 -23 -35.5t-35 -30.5l-65 56q0 -6 -2 -11v7q-2 4 -2 14q0 53 63 53q64 0 64 -53zM115 926q0 -29 -105 -191l-12 170q-2 23 15.5 51.5t43.5 28.5q58 0 58 -59zM129 541q0 -37 -106 -99l-11 90q0 68 56 68q61 0 61 -59zM115 487q0 -41 -109 -92l-8 84 q0 66 57 66q16 0 38 -20t22 -38zM113 467.5q16 -21.5 16 -48t-109 -323.5l-8 295q0 18 20.5 58t42.5 40t38 -21.5zM111 281q-2 -45 -9 -131l-2 -33l-12 -47q-86 0 -88 61q0 27 14 154zM115 59q0 -31 -105 -143l-12 129q0 18 19.5 45t39.5 27q58 -1 58 -58zM528 907l19 238 q0 63 -39 125l4 2v2q76 2 387 -35q-131 70 -303 145l39 -63l6 16l25 9l8 4q29 -20 98 -31q-2 55 -6 76q27 -10 78 -27l-4 29q20 14 14 45l-59 -23l-29 -86q96 -33 153.5 -33t155.5 17q12 -63 142 -88q2 -25 17 -106t15 -141.5t-57 -151.5t-109 -91h-92l-49 -37 q-59 -4 -141 11.5t-162 15.5l-2 -4l-8 6q-39 -4 -101 -12l-20 22v2q12 8 67 41q-47 86 -47 123zM1157 1128q0 -35 -104 -139l-13 125q0 18 19.5 45t40.5 27q57 -1 57 -58zM1133 1020q0 -41 -111 -88l-8 84q0 63 55 63q64 0 64 -59zM922 1196q0 -41 -107 -92l-12 82 q0 68 57 67q16 0 39 -19.5t23 -37.5zM1116 938q0 -31 -90 -129q-25 106 -25 123q0 66 60 65q55 0 55 -59zM831 1014l13 123l96 -2q0 -92 -10 -152q-8 -47 -92 -47l-7 63v15z" />
<glyph unicode="Q" horiz-adv-x="1761" d="M1563 1069q0 -37 -105 -90l-12 88q0 61 55 61q62 0 62 -59zM1587 1006q0 -31 -104 -144l-13 131q0 18 19.5 44t40.5 26q57 0 57 -57zM1602 915q0 -39 -105 -98l-12 90q0 66 57 66q60 -1 60 -58zM1589 858q0 -37 -145 -356q29 291 29 327.5t18 63.5t41 27q57 -1 57 -62z M1614 608q0 -29 -103 -180l-14 166q-2 20 15.5 48t41.5 28q60 -1 60 -62zM1602 537q0 -41 -105 -95l-12 88q0 63 55 64q16 0 39 -19.5t23 -37.5zM1614 492q0 -27 -103 -187l-14 170q-2 20 15.5 49t41.5 29q60 0 60 -61zM1563 195q0 -37 -105 -99l-12 94q0 63 55 64 q62 0 62 -59zM1446 858l24 -418q0 -47 -6 -108q-25 -51 -26 -76q4 78 4 -76q0 -37 -19 -104l-22 -80l-47 57q41 2 73 -26l-28 -29l-43 -39q14 0 22 -8q0 12 29 16l-12 27q35 -23 73.5 -49.5t47.5 -57.5h6q41 0 52 -20.5t23 -67.5q-4 4 -4 6v-71q-61 -57 -108 -148 q-61 4 -123 8q-68 14 -88 72q-2 6 -6 15q-12 12 -103 51q-43 -27 -116 -70q-147 -84 -340 -84q-250 0 -340 92q-18 20 -66.5 33.5t-83.5 42.5v51q-10 -10 -12 -8q-18 12 -53 41q-39 47 -91 162t-51 172l2 39q10 4 13 6q-6 4 -27 12q-4 399 23 672l-31 14q0 4 33 191 q12 80 77 186l27 19v28q23 31 78 60v47q45 20 108 37v2q8 57 64 57h14q10 -2 15 -2l16 -10l2 18q4 2 8 6q12 33 74 39l10 19q92 35 184.5 34.5t219.5 -49.5l4 -6q8 2 43 2q18 -14 49 -33q6 -4 36.5 -4t57.5 -10q61 -78 68 -78q57 0 134 -102t84 -137.5t3 -55.5v-10 q10 -4 37 -20q6 -68 -6 -107l26 -12q-12 -90 -12 -158zM1071 262q16 32 16 50t-18 151q23 12 25 29q6 49 6 131.5t-12 236.5t-35 195q0 2 -56 43q-16 12 -47 55l6 16q-80 63 -122 70q-14 -14 -41 -14l-56 6v22h-10l-20 -20q-39 -12 -86.5 -12t-72 -20.5t-46.5 -41.5 q-131 -100 -131 -348v-115q0 -63 -4 -93.5t-13 -70.5l27 -38q2 -39 -12.5 -77t-14.5 -44q0 -315 111 -316q39 0 59 -49q43 -2 76 -32.5t64 -30.5t97 14t101 14q0 14 -31.5 53.5t-56.5 53.5q-51 8 -65.5 23.5t-28.5 70.5q20 66 47 98l74 70q47 45 98 51q59 -31 93 -55.5 t44 -65.5q15 -5 35 -10zM788 969q0 -41 -110 -99l-6 91q-2 23 14 44t36.5 21t43 -18.5t22.5 -38.5zM584 1231q-10 -199 -11 -346q-51 0 -82 39t-30 63q0 41 123 244zM774 864q0 -39 -106 -100l-11 90q0 68 56 68q61 -1 61 -58zM760 807q0 -29 -103 -139l-12 131 q0 25 17.5 46t42.5 21q55 0 55 -59zM567 903q0 -41 -104 -92l-12 84q0 66 55 66q16 0 38.5 -20t22.5 -38zM563 729q-113 0 -112 82q0 41 112 137v-219zM760 608q0 -31 -101 -180l-14 166q-2 20 15.5 48t41.5 28q58 -1 58 -62zM768 416q-59 0 -86 26.5t-27 60.5t113 130v-217 zM553 567q0 -39 -150 -448q35 367 35 418q0 94 60 94q55 -1 55 -64zM580 258q0 -37 -105 -90l-12 88q0 61 55 61q62 0 62 -59zM567 428q0 57 -57 57q-20 0 -39.5 -25.5t-19.5 -43.5l12 -131q104 112 104 143z" />
<glyph unicode="R" horiz-adv-x="1658" d="M1522 920q0 -37 -107 -93l-10 84q0 66 55 66q18 0 40 -18.5t22 -38.5zM1522 842q0 -37 -109 -94l-8 88q0 63 58.5 63t58.5 -57zM1507 752q0 -39 -102 -99l-12 92q0 61 55 62q16 0 37.5 -18.5t21.5 -36.5zM1266 438q0 -37 -105 -96l-12 88q0 66 57 66q16 0 38 -19t22 -39z M1317 256q0 -37 -103 -94l-14 90q0 63 55 63q62 0 62 -59zM1393 137q0 -37 -105 -92l-10 90q0 61 55 62q60 -1 60 -60zM1219 301q-20 10 -23 25v-68q-47 -23 -106 -25l-15 43q0 43 37 66.5t61.5 24t38 -20t7.5 -45.5zM1458 47q0 -41 -108 -90l-9 84q0 66 58 65 q16 0 37.5 -19.5t21.5 -39.5zM1337 1294q83 -89 82 -207q0 -41 -29.5 -196.5t-44 -179.5t-45 -46t-40.5 -38q-45 -74 -80 -97q-51 -29 -103 -55q39 -115 48 -152.5t8 -113.5l-41 47q-2 -2 -13 -2q16 12 27 16l57 -24q-6 6 -8 12l8 -4q39 -12 54 -61q8 -43 16 -87l-10 -8 q80 -47 116 -194q2 -16 11 -33l34 -21q8 -80 -14 -137l4 -96q5 4 230 41l-281 -70q-39 0 -123 13.5t-137 15.5q-18 55 -14 84q-74 74 -43 119v4q-66 23 -66 100q0 8 -24.5 35t-32.5 43.5t-18.5 68.5t-14.5 68l10 8q-47 35 -84 103q-4 10 -53 121h-25q-23 37 -22 51 q-23 -2 -76 -2h-86q-8 -35 -104 -131v131h-13l-4 -2l-6 -6q-6 -16 -2 -60l4 -61q0 -379 -29 -658l-49 -4h-10v-2q-88 -25 -108.5 -24.5t-44.5 1.5t-35 1l-45 26q-45 39 -45 80l16 76q0 31 -19.5 92.5t-19.5 95.5q0 184 35 254q4 12 4 46t-15.5 152t-15.5 164t14 99t17 76 l-4 4q-37 31 -37 92t20.5 174t20.5 152t-13.5 85t-13.5 78.5t12.5 115.5t16.5 118q41 16 59 35q27 8 50.5 8t56.5 -18l6 -2q6 2 31 8q12 -4 30 -14l17 18q57 14 96 14l217 -22q12 0 38 9q49 17 91 17l29 -28q16 -2 46 2t42 4t51 -6l27 -27q47 -4 96 -8t94 -25q14 -29 23 -41 h26q61 0 125 -131h31q18 -51 14 -84zM1526 -262q-154 14 -178 39l-37 67l71 13q8 35 29 53l45 -84q6 27 31 33q4 -19 39 -121zM724 409q15 -21 15 -49t-102 -280l-10 270q0 18 18.5 49t41 31t37.5 -21zM735 190q0 -72 -100 -221l4 295h96v-74zM727 86q0 -31 -102 -143 l-13 131q0 16 19.5 42.5t38.5 26.5q57 0 57 -57zM532 211q-4 -61 -14 -184l-96 2q0 -31 14 184zM725 4.5q16 -22.5 16 -51.5t-106 -311l-8 290q0 18 19.5 56.5t41 38.5t37.5 -22.5zM549 -61q0 -27 -103 -187l-12 172q-2 20 14.5 49t40.5 29q60 0 60 -63zM549 -150 q0 -33 -103 -139l-12 129q0 25 18.5 47.5t41.5 22.5q55 -1 55 -60zM383 1176l6 -406l23 -4q4 41 10 125l96 -4v-129q6 0 19.5 1t26.5 1t52 -8v4h60l-25 -82q8 -4 13 -8q14 20 38 20q-25 16 -20 41l-18 -2q37 41 76 41t83 -23l29 29q31 14 63 8q2 4 9 8l12 19q78 47 102 94 q21 37 23 119h-115q72 68 105 92q-12 43 -31 92h-45q-33 27 -45 70q-4 8 -41 8t-93.5 -14.5t-92 -14.5t-115.5 17.5t-129 17.5t-62.5 -24.5t-13.5 -87.5zM522 1217q0 -31 -102 -144l-12 131q0 18 18 44t39 26q57 0 57 -57zM537 1165q0 -33 -105 -141l-12 129q0 18 19.5 45 t39.5 27q58 -1 58 -60zM724 1072.5q15 -21.5 15 -49.5t-102 -280l-10 271q0 18 18.5 49t41 31t37.5 -21.5zM739 918q0 -35 -100 -140l-14 129q0 25 18.5 47.5t40.5 22.5q55 0 55 -59zM522 1102q0 -37 -106 -96l-8 88q0 66 55 65q18 0 38.5 -18.5t20.5 -38.5zM530 1069 q0 -68 -3 -100.5t-26.5 -63.5t-29.5 -31t-27.5 23t-21.5 48.5t14 129.5z" />
<glyph unicode="S" horiz-adv-x="1710" d="M1589 367q0 -41 -108 -99l-8 88q0 23 15 45.5t36.5 22.5t43 -18.5t21.5 -38.5zM1614 301q0 -37 -103 -100l-14 96q0 61 55 61q62 0 62 -57zM821 846q-113 0 -112 82q0 39 112 147v-229zM1602 197q0 -39 -105 -99l-12 88q0 68 55 68q20 0 41 -17t21 -40zM1589 156 q0 -41 -108 -93l-8 84q0 66 55 66q16 0 38.5 -19.5t22.5 -37.5zM623 1100q-10 -199 -11 -346q-51 2 -82 40t-30 62q0 41 123 244zM928 -412l-80 17h-74q-55 -2 -74 -2q-229 0 -358 53t-358 219q47 80 92 162q70 100 141 100q43 0 77 -30.5t62 -30.5q66 0 86 -70h70 q53 0 133 -53q31 25 59 24.5t61.5 -14.5t54 -14t93 39t119.5 39q10 0 44 37.5t40 56.5t6 57q0 129 -80 176q-51 33 -147 41t-221 23l-27 24h-24q-16 -2 -48 2t-173 71t-164 110q-6 12 -11 45q-23 12 -63 53q-41 61 -54.5 187.5t-23.5 234.5l37 20q49 180 118.5 259.5 t258.5 187.5q47 4 65 -8l8 12q123 48 418 -14q190 -41 219 -76q4 4 15 10q47 -8 100 -49q43 -39 86 -76q-12 -33 -82 -154l14 -51q-27 -20 -88 -92q-121 45 -358 115l-37 24q-45 4 -69 4q-139 0 -238.5 -61.5t-99.5 -177.5q0 -135 178 -191q53 -16 239.5 -40.5t284.5 -61.5 l10 -20h17q31 0 67 -23l21 -45h2q33 0 65 -21l70 -110q37 -66 43 -121q4 -14 10 -57l35 -19q-27 -260 -57 -354q-70 -219 -230 -240q-33 -53 -96.5 -60t-79.5 -17q-74 -49 -104 -50zM670 94q0 -10 -9.5 -28.5t-17.5 -24.5l-16 -18l-23 -3q-63 0 -63 76l39 47l32 4 q58 0 58 -53z" />
<glyph unicode="T" horiz-adv-x="1511" d="M1409 1139q0 -37 -104 -101l-13 92q0 66 56 66q61 0 61 -57zM1409 1061q0 -39 -104 -98l-13 88q0 68 56 67q20 0 40.5 -17t20.5 -40zM1339 971l-241 6l2 98q120 7 239 -104zM1018 795q-111 0 -111 82q0 39 111 145v-227zM1042 940q-12 -184 -10 -342q-51 0 -82 38t-30 62 q-1 41 122 242zM1024 612q0 -39 -104 -90l-11 86q0 63 54 64q61 -1 61 -60zM1024 532q0 -29 -92 -129q-25 106 -25 123q0 66 60 66q57 -1 57 -60zM422 1161q0 -31 -105 -184q-14 76 -14 127q0 117 62 117q57 -1 57 -60zM1030 285q-111 0 -110 80q0 41 110 143v-223z M1233 1569l55 6q47 0 75 -37t28 -71t-19 -181q-221 -33 -260 -33q-119 0 -160 31q-25 -8 -71 -33q-4 -18 -17 -43q10 -53 29 -192l-21 -15q36 -81 6 -233q-16 -78 -14 -117l25 -43v-39h-2v-4q0 -186 -14.5 -246.5t-14.5 -85t2 -32.5l29 -29q2 -37 2 -78q0 -190 -35 -246 l6 -2q33 -49 33 -95t-35 -84t-69 -70q-33 -10 -63 -10.5t-107 16.5q-18 -12 -33 -13q-8 4 -35 25h-41l14 340l-16 211l16 342q0 41 -7 199.5t-1 244.5h-31v111h33q2 70 -4 207q-100 10 -242 10l-159 -16q-25 0 -67 27.5t-50 31.5q6 96 6 115.5t-4 89.5q10 33 23 49l16 51 q20 -2 78.5 -11t82 -9t29.5 2q37 31 93.5 30.5t149.5 -13.5t138 -13q53 14 69.5 14t49.5 -8l16 -27q49 45 83.5 45t69 -13t44.5 -13l193 16q61 0 98 -59zM1036 289q0 -41 -104 -101l-12 91q0 68 57 67q59 0 59 -57zM1024 223q0 -33 -102 -325l-13 303q0 18 19.5 54t38.5 36 q57 0 57 -68zM1051 -184q0 -37 -107 -95l-10 86q0 66 55 66q16 0 39 -18.5t23 -38.5zM422 1071q0 20 -21.5 39.5t-38.5 19.5q-57 0 -57 -65l10 -84q107 49 107 90z" />
<glyph unicode="U" horiz-adv-x="1769" d="M1579 1362q0 -29 -104 -143l-13 131q0 16 19.5 42.5t38.5 26.5q59 0 59 -57zM1599 1112q-113 0 -112 80q0 41 112 143v-223zM1599 956q-113 0 -112 80q0 41 112 144v-224zM1618 973q0 -39 -105 -99l-12 89q0 68 55 67q20 0 41 -17t21 -40zM1604 920q0 -31 -105 -144 l-12 129q0 18 19.5 45t39.5 27q58 0 58 -57zM1604 788q0 -31 -105 -143l-12 131q0 18 19.5 44t39.5 26q58 -1 58 -58zM1612 668l-13 -303l-96 2q0 2 13 303zM795 1141q0 -37 -107 -97l-10 89q0 66 57 65q16 0 38 -18.5t22 -38.5zM590 1321q0 -33 -103 -139l-14 129 q0 25 18.5 47t40.5 22q58 0 58 -59zM809 1038q0 -39 -104 -94l-15 88q0 63 58 64q16 0 38.5 -20t22.5 -38zM614 1245q0 -31 -102 -143l-12 129q0 18 18.5 45t38.5 27q57 -1 57 -58zM1579 256q0 -29 -104 -143l-13 131q0 16 19.5 42.5t38.5 26.5q59 0 59 -57zM795 934 q0 -37 -109 -103l-8 93q-2 23 14.5 45t38.5 22t43 -18.5t21 -38.5zM590 1151q0 -33 -103 -139l-14 129q0 25 18.5 47t40.5 22q58 0 58 -59zM791 760q-113 0 -113 82q0 41 113 141v-223zM803 618q-113 0 -113 80q0 39 113 144v-224zM377 1303q0 -27 -19 -93q37 -72 37 -100.5 t-16 -44.5l-14 -92q4 -16 16 -74q-14 -47 -14 -70t13 -66.5t13 -78.5t-20.5 -119t-20.5 -129t24.5 -173t41.5 -161q47 -12 67 -47q6 -20 15 -39q37 -8 90 -24l35 -35q18 -2 58 1t54 3q6 -16 13 -39h6l-6 -2q-4 -4 -33 -16q53 63 55 65q18 12 88 13q84 0 158 141t74 258 q0 18 -19.5 68.5t-19.5 87t14 118.5t14 145.5t-16 157.5l90 31q-25 0 -33 21q-12 -31 -41 -31q0 -8 -2 -10q0 215 -13 270t-13 89t41 75v6q2 25 -7.5 70t-9.5 65l4 29l66 67q66 -6 231 0q0 -57 17 -147l49 -33v-4h127q-123 -100 -141 -108q-2 -72 7 -207t9 -194.5t-2 -96.5 l-25 -53q0 -8 13.5 -41t13.5 -58l-16 -221l14 -184q0 -45 -31 -123t-31 -119l-6 -41l-26 -14q0 -12 20 -80h-59q-6 -29 -23.5 -43t-34.5 -29q-4 -8 -26 -71h-39q-39 -35 -62 -39q-33 -63 -96 -53l-6 2l-23 -35q-16 -4 -29 -4t-24 4q-33 -47 -86 -47q-18 0 -51 12h-4l-12 -23 q-182 0 -295 31l-23 23q-4 0 -12 -1t-20 -1t-109.5 61t-108 75.5t-16.5 39t-22.5 32t-47.5 29.5q-47 51 -87 164t-40 188l11 158q0 31 -13.5 91.5t-13.5 99t13.5 126t13.5 127.5t-12.5 113.5t-12.5 108.5t10 71v9l4 82q2 0 4 -7q20 18 39 19q25 0 39 -37q2 12 13 22 q-47 13 -95 19q11 115 33 160l-2 2q-27 45 -27 84t15 139q74 -8 192 -4q51 -23 58 -70q2 8 22 17l74 -2v-136h-74l45 43v9q23 -27 35 -56l-25 -47l-57 10q6 -4 10 -30q0 10 228 10q-84 20 -111 16q-53 -8 -53 -75zM807 621q0 -31 -102 -144l-13 131q0 18 18.5 44t39.5 26 q57 0 57 -57zM795 553q0 -33 -105 -141l-12 129q0 18 19.5 44.5t39.5 26.5q58 0 58 -59zM594 881q-10 -195 -10 -340q-51 0 -82 38t-31 70.5t123 231.5zM795 451q0 -31 -105 -144l-12 131q0 18 19.5 44t39.5 26q58 0 58 -57zM807 397q0 -33 -102 -184q-14 78 -15 131 q0 113 60 113q57 -1 57 -60zM602 551q0 -39 -145 -365q31 295 30 340q0 86 58 86q57 0 57 -61zM602 358q0 -31 -104 -143l-13 131q0 18 19.5 44t40.5 26q57 -1 57 -58zM616 270q0 -37 -104 -98l-12 88q0 68 55 68q20 0 40.5 -17.5t20.5 -40.5zM655 178q0 -37 -106 -92 l-12 84q0 66 57 66q16 0 38.5 -19t22.5 -39zM590 786q0 59 -58 60q-23 0 -41 -22.5t-18 -47.5l14 -129q103 106 103 139z" />
<glyph unicode="V" horiz-adv-x="1824" d="M1706 1024q0 -33 -100 -193l-15 175q-2 20 15.5 47.5t42.5 27.5q57 0 57 -57zM1669 911q0 -31 -102 -143l-13 131q0 18 18.5 44t39.5 26q57 -1 57 -58zM1626 705q-57 0 -84 27.5t-26 53.5q0 39 110 142v-223zM1468 897q0 -33 -104 -135l-12 123q0 20 19.5 44.5t39.5 24.5 q57 0 57 -57zM1602 602q-57 0 -91 31q-23 25 -22 51q0 39 113 141v-223zM1444 786q0 -41 -105 -94l-12 86q0 66 57 66q16 0 38 -20t22 -38zM1407 694q0 -35 -104 -96l-13 92q0 63 56 64q61 -1 61 -60zM1395 657q0 -29 -105 -143l-12 131q0 18 18.5 44t38.5 26q60 -1 60 -58z M1544 504q0 -29 -106 -187l-11 166q-2 20 16.5 50t43.5 30q57 0 57 -59zM1380 594q0 -33 -102 -141l-12 131q0 23 18.5 45t40.5 22q55 0 55 -57zM854 997q0 -33 -102 -184q-14 31 -14.5 137.5t59.5 106.5q57 -1 57 -60zM1343 492q0 -31 -106 -181l-10 158q-2 20 17.5 51 t41.5 31q57 0 57 -59zM905 846q0 -31 -104 -135l-13 125q0 20 19.5 43.5t40.5 23.5q57 0 57 -57zM1458 215q0 -39 -106 -92l-11 84q0 66 56 65q61 0 61 -57zM1419 123q0 -29 -106 -186l-10 165q-2 20 16 50t43 30q57 0 57 -59zM1235 1618l41 -10q10 0 16 2q35 31 84 30 q117 1 117 -116q0 -61 -53 -111q-10 -10 -11 -42t-30 -99l-13 -4q4 -33 5 -51q0 -47 -43 -84q6 -55 6 -58l-4 -37q-18 -25 -41 -82t-47 -84q5 -20 0 -90q-14 -14 -35 -39v-41q0 -43 -38 -109.5t-38 -99.5t-51 -94q-6 -49 -31 -149q8 -18 6 -61t-2 -29h-45 q-16 -63 -71.5 -219.5t-77.5 -257.5q-14 -2 -75.5 -12.5t-94.5 -10.5t-80 14l-17 35q-57 45 -77 139q-12 80 -25 162q-33 41 -39 86t-22 74q-45 82 -46 154q0 -4 -30.5 66.5t-32.5 139.5l-33 31q-2 10 -6 72q0 18 -40 80.5t-42 126.5q-2 25 -4 39q-39 55 -39 87t4 48 q-47 35 -47 100q0 6 4 43q-47 43 -47 100l6 80q0 29 -16 47q-53 59 -67.5 108.5t-10.5 141.5q119 -18 159 -18t183 14l27 -76h-2q16 -23 16 -34.5t-2 -20.5q29 -25 29 -51t-15 -51v-6l-20 36l45 -30q25 -41 33 -86t14 -88l25 -25q31 -119 30.5 -143.5t-1.5 -30.5t-1 -10 l15 -4q16 -43 21 -93t23.5 -101.5t47.5 -133.5t28 -166l31 -20q20 -39 20.5 -61.5t-0.5 -38t-1 -34.5q0 -11 22 -55q6 23 32.5 63t28 48t1.5 18l-3 15q0 35 56 86l-6 79q0 53 37.5 125t37.5 122t54 108q10 27 19 126t50 142v16q0 45 32 122t32 105.5t12 63.5q97 72 123 72z M715 795q0 -33 -101 -191l-14 172q-2 20 15.5 49t41.5 29q58 0 58 -59zM1255 164q0 -37 -104 -94l-10 90q0 63 57 63t57 -59zM1395 25q0 -39 -105 -95l-12 86q0 66 55 66q18 0 40 -18.5t22 -38.5zM1370 -27q0 -41 -108 -90l-9 84q0 63 56 64q16 0 38.5 -20t22.5 -38z M805 496q0 -41 -107 -95l-10 86q0 66 55 66q18 0 40 -19.5t22 -37.5zM1206 37q0 -37 -106 -92l-10 86q0 66 55 65q61 0 61 -59zM1343 -113q0 -41 -104 -94l-12 86q0 66 57 66q16 0 37.5 -20t21.5 -38zM1118 125q0 -31 -106 -137l-11 121q-2 20 15.5 46.5t42.5 26.5 q59 0 59 -57zM1319 -180q0 -31 -107 -187l-10 164q-2 23 16.5 52.5t43.5 29.5q57 0 57 -59zM1294 -266q0 -37 -108 -94l-8 88q0 63 55 63q61 0 61 -57zM1268 -332q0 -33 -105 -137l-10 121q-2 20 14.5 48t40.5 28q60 -1 60 -60zM1069 -268q0 -37 -104 -90l-13 86q0 63 56 63 q61 0 61 -59zM1079 -319q0 -33 -102 -140l-12 129q0 25 18 47.5t41 22.5q55 0 55 -59zM1481 973q0 59 -58 59q-25 0 -42 -28.5t-15 -49.5l14 -172q101 162 101 191zM842 391q0 59 -60 60q-55 0 -55 -62l10 -92q105 57 105 94z" />
<glyph unicode="W" horiz-adv-x="2392" d="M1874 1083l-244 9q-51 0 -51 49q0 55 55 49h41q39 -1 199 -107zM1800 1094q0 -29 -106 -144l-13 131q0 18 19.5 44t40.5 26q59 0 59 -57zM1774 958q0 -27 -105 -188l-14 172q-2 20 16.5 49t42.5 29q60 -1 60 -62zM1575 1057q0 -41 -111 -99l-8 91q0 23 16.5 44t37.5 21 t43 -18.5t22 -38.5zM1747 844q0 -31 -107 -146l-12 133q0 18 19.5 44t40.5 26q59 0 59 -57zM1708 686q0 -41 -106 -92l-13 84q0 68 58 67q20 0 40.5 -18t20.5 -41zM1694 647q0 -37 -107 -96l-12 88q0 66 57 66q18 0 40 -19t22 -39zM834 963q0 -37 -107 -95l-12 86 q0 66 57 66q16 0 39 -18.5t23 -38.5zM1176 618q0 -33 -93 -135q-25 104 -24 129q0 66 59 66q58 -1 58 -60zM422 1585q36 -55 14 -100l8 -4q41 -106 41 -316q0 -49 4 -69l23 -13q16 -41 39.5 -147.5t23.5 -130.5t-12 -49q23 -35 41.5 -68t11.5 -86v-20q-2 -14 -2 -27.5 t25 -55.5t31 -64t14 -83q18 27 35 54q6 14 10 75.5t16 102.5l39 49q-4 33 -4 54.5t11 49.5l40 27q8 29 8.5 101.5t33 149.5t32.5 116.5t21 87.5v10l6 31l26 24q0 41 11 121q20 55 59 203q86 12 279 34q45 -182 114 -407q6 -33 21 -98l33 -17q2 -39 -11 -131q-2 -27 -2 -14 q104 -154 107 -348l28 -19q16 -33 19.5 -82.5t5.5 -60.5l-10 2l12 -14q2 14 18 22v-8q0 -51 29 -166q8 35 8 74v26q0 59 32 122.5t43 166t28 144.5q24 55 21 86t-3 52.5t6 49.5l41 39q4 18 4 94t34 145.5t40 92.5q10 57 20.5 116.5t61.5 102.5q33 -23 41 -25l47 35 q41 6 57 6t146 -22q4 -10 10 -29l23 -8q-12 -92 -26.5 -194t-51.5 -169q-4 -8 -4 -53l-4 -31l-43 -53l4 -57q0 -37 -26 -84t-33 -74t-14 -123t-31.5 -151.5t-43 -100.5t-18.5 -104t-26 -101.5t-28.5 -79t-27.5 -141.5l-23 -12v-6l-12 -111q-6 -33 -35 -114 q-10 -29 -10 -77.5t-12 -84.5q-16 -12 -51 -58q-131 -4 -155 -4t-122 6q-51 154 -133 484q-6 23 -30 71t-26.5 72t-4 47t-3.5 33l-24 29q-10 41 -19.5 128t-21.5 130q-18 27 -34 52q-17 29 -7 75v10q-37 47 -42 94t-7 78.5t-6 40.5l-11 -12v-9q4 -25 5 -41l-7 -34l-26 -27 q4 -16 4 -27q0 -10 -4 -30q6 -12 6 -31l-4 -182l-47 67l-23 -22q-10 -29 -13 -102.5t-16 -114.5l-26 -15q-8 -27 -14 -101t-34 -119.5t-33 -112t-7 -78.5l-25 -25q4 -20 4 -35l-8 -41l-22 -10q4 -25 4 -46.5t-70 -201.5q-45 4 -127 1t-106.5 -3t-98.5 13q-5 52 8 92 q-10 6 -36 32l-2 29q-2 23 10 43l-19 17q-6 20 -9 81.5t-29.5 103.5t-31.5 160.5t-10 139.5l-34 24q-18 41 -23.5 110t-7.5 81l-27 27q-59 229 -59 248t6 28l-14 14q-27 100 -49 238q-8 -2 -17.5 -2t-308.5 35q123 31 295 71q-2 18 -5 54.5t-7 52.5l-25 27q-47 154 -47 204 t29 135q127 -16 311 -2q20 -29 43 -55zM1219 502q0 -41 -109 -96l-12 88q0 66 57 65q18 0 41 -18.5t23 -38.5zM1225 342q-57 0 -86 28t-29 59.5t115 139.5v-227zM1389 236q0 -31 -105 -140l-14 131q0 25 18.5 46.5t42.5 21.5q58 0 58 -59zM1272 305q0 -41 -111 -98l-8 90 q0 23 16.5 44t36.5 21t43 -18.5t23 -38.5zM793 801q0 -31 -105 -139l-14 131q0 25 18.5 46t42.5 21q58 0 58 -59zM1376 147q0 -39 -106 -98l-13 90q0 66 58 66q61 -1 61 -58zM1296 223q0 -31 -106 -184q-14 76 -14 129q0 115 61 115q59 -1 59 -60zM748 512q-59 0 -87.5 27 t-28 60.5t115.5 141.5v-229zM1098 276q0 -29 -107 -143l-12 131q0 18 19.5 44t39.5 26q60 -1 60 -58zM1110 223q0 -33 -104 -141l-13 129q0 18 19.5 45t40.5 27q57 -1 57 -60zM1124 158q0 -39 -106 -90l-12 86q0 63 59 63t59 -59zM1137 106q0 -37 -107 -96l-12 90 q0 63 57 64q62 -1 62 -58zM727 502q0 -41 -106 -96l-13 88q0 66 58 65q16 0 38.5 -18.5t22.5 -38.5zM117 1110q0 -39 -107 -100l-12 90q0 68 57 67q62 0 62 -57zM1165 41q0 -37 -106 -96l-15 86q0 68 58 67q18 0 40.5 -18.5t22.5 -38.5zM131 1057q0 -39 -108 -101l-11 91 q0 68 58 67q61 0 61 -57zM1176 -2q0 -29 -93 -129q-25 106 -24 123q0 66 59 65q58 0 58 -59zM143 1012q0 -31 -94 -127q-25 106 -24 123q0 63 59 63t59 -59zM1190 -66q0 -39 -107 -94l-12 86q0 66 57 66q16 0 39 -19t23 -39zM1497 -403l-199 6q-51 6 -51 49q0 49 53 49h7 q84 0 190 -104zM156 961q0 -33 -107 -142l-12 129q0 18 19.5 45t39.5 27q60 0 60 -59zM1468 -254q0 -35 -147 -367q31 299 31 337t18.5 64.5t40.5 26.5q57 0 57 -61zM1219 -158q0 -41 -109 -90l-12 82q0 66 57 66q16 0 40 -19t24 -39zM170 870q0 -37 -107 -92l-12 84 q0 68 58 68q18 0 39.5 -20t21.5 -40zM1229 -213q0 -29 -92 -129q-25 98 -25 123q0 66 59 65q58 0 58 -59zM197 791q0 -37 -107 -97l-12 92q0 63 57 64q62 0 62 -59zM223 698q0 -29 -106 -143l-13 131q0 18 19.5 44t40.5 26q59 -1 59 -58zM250 592q0 -35 -105 -92l-14 90 q0 61 55 61q64 0 64 -59zM262 543q0 -39 -108 -99l-11 93q0 63 59.5 63t59.5 -57zM289 422q0 -33 -107 -143l-12 129q0 18 19.5 44.5t39.5 26.5q60 0 60 -57zM328 303q0 -31 -107 -145l-12 133q0 18 20.5 44.5t40.5 26.5q58 0 58 -59zM395 0q0 -29 -106 -143l-13 131 q0 18 19.5 43.5t40.5 25.5q59 0 59 -57zM434 -131q0 -35 -106 -145l-13 131q0 18 20.5 44.5t39.5 26.5q59 0 59 -57zM449 -197q0 -37 -107 -98l-12 90q0 66 57 66q62 -1 62 -58zM1786 1026q0 59 -60.5 59t-60.5 -116q0 -53 14 -125q107 151 107 182zM1548 948q0 59 -63 60 q-55 0 -55 -64l14 -90q104 57 104 94zM1667 539q0 59 -59 59t-60 -61l13 -88q106 53 106 90zM1522 -39q0 57 -60 57q-20 0 -39.5 -25.5t-19.5 -43.5l12 -131q107 114 107 143zM1083 330q0 57 -59 57q-20 0 -39.5 -25.5t-19.5 -44.5l12 -131q106 111 106 144zM698 432 q0 61 -57 62q-27 0 -44 -29t-15 -51l12 -170q104 157 104 188z" />
<glyph unicode="X" horiz-adv-x="1734" d="M709 1536l-224 4q-51 0 -51 92l47 6h11q82 0 217 -102zM954 1237q0 -41 -106 -90l-12 82q0 66 57 65q16 0 38.5 -18.5t22.5 -38.5zM731 1249q0 -29 -104 -190l-13 170q-2 23 15.5 51.5t44.5 28.5q57 -1 57 -60zM1348 588q0 -41 -111 -99l-8 91q0 23 16.5 44t36.5 21 t43 -18.5t23 -38.5zM1622 137q0 -43 -109 -94l-8 86q0 23 15.5 44.5t40.5 21.5q61 -1 61 -58zM1178 1614l59 -8q23 33 55 32l146 -24q12 -2 108 -2q-59 -158 -114 -246l-11 -4v-12l-10 -29l-41 -31q-25 -51 -52.5 -103t-68.5 -87v-29q-27 -49 -55.5 -100t-52 -73.5 t-39.5 -43.5q-8 -51 -16.5 -69.5t-38.5 -55.5q-72 -82 -72 -112t66.5 -114.5t76.5 -104.5q2 -4 25 -72h33q12 -59 8 -76q52 -39 78 -113t55 -97.5t42 -44t15 -61.5q8 -2 29 -14l4 -35v-10q-2 -6 -2 -10q51 -14 78 -82l28 -74l9 -80q0 10 4 15l-41 -54q-78 -12 -137 -12 t-91 29l-36 -6q-12 0 -29 4q-78 49 -99.5 112.5t-61.5 101.5t-64.5 106.5t-28.5 74.5q-37 51 -98 162l-27 12q-14 31 -41 86q-14 0 -21 -3t-85 -130q10 -10 10 -43l-17 -43h-49q-10 -10 -19 -19.5t-9 -23.5t-22 -36t-50 -30h-6q-4 -143 -68 -227q-31 -14 -49 -48t-51 -50 t-113.5 -16.5t-167.5 14.5l-18 33v-7q-35 16 -35 55.5t61 75.5q2 4 23 97q14 63 78 100q20 12 25 49q10 71 57 86q14 14 51 108.5t84 131.5q8 6 20 18q8 57 14.5 69.5t55.5 43.5q23 31 52.5 94.5t29.5 76.5t-37 62.5t-41 102.5q-61 37 -65 94q-8 2 -35 29q-12 35 -13 71 q0 -6 -24.5 11.5t-39.5 39t-9 66.5l4 27q-18 27 -43 57q-49 35 -65.5 79t-52.5 84t-85 154q-4 8 -49 91q172 16 253.5 16t129.5 -18q70 -27 88 -105t33 -94q39 -37 76.5 -73t68.5 -128h17q14 -57 10 -80q37 -14 42 -38.5t7 -51.5l2 -2q53 -12 53 -90q-6 6 -10 39l-2 8 q-20 -6 -25 -8h45q48 127 95 180v41q33 29 53 31q12 35 23 69t46 62q16 12 23 70q9 66 74 106q2 4 0 37q53 39 80 39z" />
<glyph unicode="Y" horiz-adv-x="1474" d="M1581 1384q0 -37 -106 -100l-11 92q0 66 56 66q61 -1 61 -58zM797 1358q0 -39 -105 -94l-14 86q0 66 57 65q62 0 62 -57zM690 1118q0 -37 -106 -98l-11 90q0 66 56 66q61 -1 61 -58zM1161 428q0 -41 -104 -90l-13 82q0 66 56 65q16 0 38.5 -19.5t22.5 -37.5zM1153 416 l-240 -78q-4 -29 -15 -29t-22.5 19.5t-11.5 36.5l13 129l96 -7q0 -100 -17 -172q-8 -14 197 101zM1169 383l-14 -229l-96 2q6 76 14 229zM997 1286l-4 47q2 45 39 90t43 82t25 90q23 2 99.5 17.5t117.5 15.5q74 0 102 -76q19 -67 35 -135l-63 -31l24 29q-6 -37 -14 -78 t-55 -55l8 -4q-4 -40 -32 -65t-36 -75t-41 -73q-14 -10 -31 -18q-8 -12 -16 -56.5t-31.5 -71t-38.5 -47.5v-26q0 -31 -39.5 -84t-41.5 -57q-18 -57 -82 -177q-63 -88 -74.5 -119.5t-11.5 -146.5v-33l28 -45q2 -144 -28 -585q-61 6 -181 24l-20 -29l-31 -6h-14q-6 2 -8 2 l-9 2q10 6 19 5l-70 57q16 49 29 72l31 -68h2q2 2 4 2q-23 -18 -41 -18q-23 0 -47.5 67.5t-18.5 87.5q29 106 29 199l-12 444q0 27 -36 67t-47 60.5t-28.5 82t-26.5 81.5l-22 12q-29 45 -84 201l-29 17q-6 29 -6 59l2 4q-82 45 -84 121q-2 6 -22 24v39q-33 66 -97 201 l-24 12q-16 66 -49 195q154 25 164 24q143 0 221 -53q-2 -45 28 -92q51 -74 56.5 -85t19.5 -69.5t46 -90t35 -76.5t24.5 -75t52.5 -69q18 -33 21 -79t7.5 -52t25.5 -22.5t44 -57.5q31 80 76 99q2 31 27 106q12 10 26 23v24q0 27 17.5 47.5t33.5 38.5q10 43 23.5 87t54.5 54 q14 7 25 7q2 -4 -19 -15h-2q2 -2 2 -4zM1161 119q0 -35 -145 -367q31 299 31 337t18 64.5t39 26.5q57 0 57 -61zM979 211q0 -31 -109 -279l-8 250q0 16 19.5 53t38.5 37q59 0 59 -61zM1008 -23q0 -25 -18.5 -47t-49.5 -22l-33 6q-31 55 -30 109l49 38q82 -14 82 -84z M965 293q0 59 -59.5 59t-59.5 -116q0 -53 14 -125q105 151 105 182zM1176 16q0 57 -62 58q-57 0 -57 -64l14 -88q105 57 105 94zM965 55q0 59 -58 60q-20 0 -39.5 -27t-19.5 -45l12 -133q105 114 105 145z" />
<glyph unicode="Z" horiz-adv-x="1570" d="M1466 1137q0 -29 -100 -140l-14 131q0 25 17 46.5t42 21.5q55 0 55 -59zM1417 1051q0 -39 -104 -99l-13 90q0 66 56 66q61 0 61 -57zM598 1245q0 -31 -102 -143l-13 129q0 18 18.5 45t39.5 27q57 -1 57 -58zM1147 598q0 -27 -43 -70l-25 -2q-23 -2 -41 15.5t-18 40.5 q0 70 72 69q55 0 55 -53zM600 1163q0 -37 -145 -356q31 293 30.5 328.5t17 62.5t40.5 27q57 -1 57 -62zM797 -63l112 16q10 0 41 -6t301 -43q-184 6 -231 12t-57 29q0 4 -5 14q-12 -25 -20 -37l25 23q43 16 106.5 16t179.5 -35q12 -39 15 -63q43 -7 231 -21 q-209 -82 -238 -90q0 20 9 25q4 -8 22 -92q-27 -25 -82 -82q-53 4 -126.5 0t-97.5 -4t-81 14t-82 16l-18 -20q-108 -32 -357 -5q-127 13 -171 13t-94 -14.5t-77 -12.5l-22 2q-10 10 -66 33v68l92 16q-29 0 -36 23q-2 -4 -60 -4h-26l39 -27q-2 6 -23 47q0 49 4 146 q6 68 68.5 124t84 140t134.5 164q8 51 18 104t66 88q8 4 12 8l76 166h26q16 57 28.5 81t52.5 61.5t48 92t25.5 80t75.5 56.5h12q10 111 86 217q-2 2 -4 8q8 -2 -170 -2l-14 31l-11 -35q-90 8 -129 8l-272 -12q-72 0 -180 12q6 102 16 324q49 2 114.5 11t95.5 9t71 -8l59 -37 l137 19q18 0 78 -11l23 -84l-23 23q-4 -18 -26 -19q0 -8 -11 54l56 57q33 0 103.5 -7t109.5 -5q31 16 84 12q53 -49 86 -49h24q12 16 53 67q109 -20 193 -59q4 -49 4 -111.5t-12 -112.5t-60 -85q-4 -12 -4 -33l-6 -33l-33 -20l-63 -119v-39q-14 -27 -51 -62.5t-45 -49.5 q-8 -31 -18.5 -67t-55.5 -42q-27 -59 -51 -121q-41 -70 -99 -57l-10 2q4 2 43 2q-8 51 -10 51q32 -32 25 -121h-29q-10 -18 -63.5 -96t-60.5 -118t-23.5 -57t-61.5 -50q-4 -2 -12 -2q10 -16 10 -35q0 -45 -51 -86q-12 -12 -11 -76h-47q-10 -31 -39 -90q4 0 15.5 -1t17.5 -1 q0 13 49 326q55 -289 56 -318q37 4 60.5 4t74.5 -14t78 -14zM1468 -72q0 -37 -106 -90l-10 84q0 66 55 66q61 -1 61 -60zM1479 -123q0 -31 -105 -194l-10 172q-2 18 17.5 50t41.5 32q56 -1 56 -60zM1526 -236l-236 7q-49 2 -49 96l57 2h33q45 -1 195 -105zM1249 -37 q-100 -16 -389 -41l217 113q0 -25 -18 -35q20 -2 28 -18l7 71h73q10 0 39 -22q33 -31 43 -68zM791 322q0 -37 -107 -97l-10 88q0 66 57 66q16 0 38 -18.5t22 -38.5zM702 203q0 -39 -104 -90l-12 86q0 63 55 63q61 0 61 -59zM842 47q0 -31 -105 -143l-12 131q0 18 19.5 43.5 t39.5 25.5q58 0 58 -57zM1479 1217q0 59 -56 59q-25 0 -43 -29.5t-16 -52.5l10 -164q105 154 105 187zM1243 -68q0 70 -57 70q-25 0 -78 -33q4 -72 98 -102zM1040 -72q2 72 -63 72q-59 0 -59 -61q0 -4 1 -10.5t1 -8.5t-9 -70q109 23 129 78zM666 -227q22 48 22 76t-20 47 l-27 -27q-2 -2 -25 -27l-14 -16l10 -12v67q20 -16 50 -41q-12 6 -29 6l-12 -2h-5z" />
<glyph unicode="^" horiz-adv-x="720" d="M594 1212q-14 112 -14 166q0 94 55 95l59 -15zM690 1151q0 -63 -88 -64q-27 0 -72 11l-73 141v25q-10 27 -47 79l-17 9q-6 31 -24 73q-18 20 -25 37q-14 -41 -57 -121v-18q-9 -21 -45 -57l-6 -47l-19 -7q-16 -63 -41 -93t-86 -29l-8 12l-98 10q27 72 79 167t50 120l24 14 q2 37 33 62q2 23 27 51q2 37 28 65q4 6 2 19l35 57l6 2v10q66 31 100.5 31t69.5 -35q12 -43 67.5 -141t63.5 -135l-2 -21q27 -14 75 -107t48 -120zM416 1307q0 -31 -92 -78q-6 53 -7 61q0 63 50 64q49 0 49 -47zM313 1251q0 -31 -86 -71l-12 67q0 53 49 53t49 -49zM590 1470 q0 49 -51 50q-47 0 -47 -54l12 -75q86 50 86 79zM686 1270q0 47 -51 47q-27 0 -37 -19.5t-10 -29.5l6 -74q92 45 92 76z" />
<glyph unicode="_" horiz-adv-x="1134" d="M1249 1053q0 -23 -28 -70q-31 -10 -67 -10t-370 102l344 -8q16 37 68.5 37t52.5 -51zM1057 981l-205 4q-49 0 -49 43t51 41q88 2 203 -88zM762 991q-113 -10 -119 -10q-53 0 -53 43q0 33 76 59.5t96 26.5v-119zM643 713l-125 4l-37 96q33 18 97 47q43 -14 55 -14 q82 35 108 35q82 0 133 -19l19 -14l2 2q47 10 60 10t46 -10q43 -51 129 -127q-156 -10 -233 -21q-47 16 -47 52q0 10 6 24v-6q29 0 29 -31q12 18 28 19q0 4 2 6v-2q0 -63 -106 -59q-37 22 -64 32q-40 -24 -102 -24zM571 1040q0 -43 -55 -43l-29 4q-47 47 -47 72q0 43 58 43 l28 -6q45 -45 45 -70zM545 842q-39 -53 -43 -63.5t-13 -22.5q-31 -47 -198 -49q70 23 90 18l-51 33q0 49 -6 82l84 34q12 -6 35.5 -10t101.5 -22zM283 854l-47 -111q-36 -4 -43 -4q4 8 18 19l-16 51h-2l-27 -76q4 2 10 -2q-20 -4 -34.5 -4t-53.5 18v27q-55 37 -55 49 q0 45 57 47h23q27 0 54.5 -5t115.5 -9zM993 858q-24 -24 -30 -39q0 -49 69 -59q25 -4 80 -29q18 72 18 88q0 49 -67 60q-12 0 -33 2l-10 -82q0 37 -35 37q8 8 8 22zM446 729l-116 107q-43 -2 -68 -17l-26 -37v-100q68 27 82.5 30t127.5 17z" />
<glyph unicode="`" horiz-adv-x="583" d="M420 1415q-20 -6 -76 -37q-77 -57 -147 6l-15 29l33 -22q0 35 35 34v-6q-2 -43 -49 -43l-54 19q8 27 15 45q-41 12 -41 59q-2 0 -7 1t-16.5 2t-206.5 32l136 45l-70 96q35 20 106 70q41 -18 99 -33.5t76 -21.5q86 -29 122 -125l21 -11q16 -37 12 -63v-6q17 -15 27 -70z M168 1360l-64 -51q-53 80 -53 96q0 45 49 45q68 0 68 -90z" />
<glyph unicode="a" horiz-adv-x="1359" d="M729 668q0 -33 -102 -140l-13 127q0 18 19.5 44t40.5 26q55 0 55 -57zM729 592q0 -33 -100 -182l-13 161q-2 20 15.5 49t42.5 29q55 0 55 -57zM502 1001l209 13h20l-33 61q12 -49 13 -61v-6q37 8 43 8q33 0 57 -31q8 -8 33 -8l37 -6l14 -25h37q92 0 104 -72h29 q37 -68 74 -135q37 -78 37 -128t-9.5 -111.5t-7.5 -93.5l21 -21q8 -28 8 -59l-17 -156l13 -258l-10 -313q-215 -31 -222 -31q-92 0 -118 55l-3 6q-119 -53 -249 -53l-236 14q-109 0 -212 188.5t-103 287.5q0 35 8 73l31 17q8 37 16 73q8 14 64 56q20 59 51 84h43q4 4 6 4 q29 45 117 45q5 9 41 39q29 6 61.5 6t87.5 -15.5t85 -15.5t90.5 14.5t88.5 14.5q10 31 64 57q45 -41 45 -69q0 -8 -2 -17v4q-16 10 -17 27l-53 -60q-37 86 -39 113q2 -25 2 111v8l-18 18h-25q-74 37 -71 37q-8 0 -35 -12t-52.5 -12t-44.5 22l-6 4q-29 0 -109.5 -39 t-119.5 -39t-84 27t-84 51l12 35l-49 14q-6 68 0 93q40 82 35 88v-11q0 -70 -14 -73q6 0 18 -17.5t12 -27.5v75l-28 -28v73l280 88q4 0 27 -8l-8 -26zM492 459q-98 -16 -381 -41q106 55 213 112q0 -25 -17 -34q16 -2 29 -19l4 70h74q10 0 40 -25.5t38 -62.5zM150 475 q-23 -205 -23 -352q-51 0 -80 37t-28.5 68.5t131.5 246.5zM741 516q0 57 -59 57q-53 0 -53 -61l10 -84q102 49 102 88zM233 719v10q0 25 -28 78q-23 20 -70 20l-20 -36q0 -39 30 -101l31 -12q51 0 57 41zM922 -18l-91 -9q6 61 1 124t-1 93l84 -34l-90 -131l-24 137 q-98 14 -127 14t-37 -2l-23 -22q-53 -14 -130.5 -14.5t-88.5 -8.5q-2 -4 -20 -58t-19 -75q0 -14 52.5 -37.5t89.5 -40.5q16 0 53 -4l27 -29q12 -2 41.5 -2t46.5 2l34 35q49 18 80 12h6q16 55 17 453zM729 188q0 -31 -102 -141l-13 127q0 18 19.5 44t40.5 26q55 -1 55 -56z M520 27l-188 6q-47 0 -47 51t51 45q78 4 184 -102z" />
<glyph unicode="b" horiz-adv-x="1304" d="M434 1468l-49 -6q-66 0 -66 70q0 76 115 86v-150zM446 1458l-12 -330l-94 2q0 4 12 330zM12 1092l-8 149q0 78 23 107l-27 8q0 94 9 140t44 155q72 -23 141 -25t138 -2l4 -80l-6 -69h-70l35 36l-35 35h105q-23 -172 -23 -324.5t18 -238.5q4 -2 9 -2q-2 4 -2 10 q47 68 104 60h12q8 -2 9.5 -2t51.5 32.5t92 32.5t83 -41q20 18 74 14l18 -28q6 2 20 2q59 0 134 -78l4 -6l73 27v-78q76 -127 76 -211l-12 -80v-2l31 -23q10 -39 10 -53l-17 -96l7 -131q0 -27 -23 -90q8 -8 27 -33q4 -25 4 -80t-44 -198.5t-102 -178.5l-24 -12q-6 -2 -14 -6 q6 -63 -66 -64l-25 -35q-35 -10 -106 -4l-23 -24q-57 -14 -115.5 -14.5t-113.5 26t-150 88.5h-8q-10 -20 -28 -76q-59 -35 -195 -35q-47 0 -94 15q-6 16 -11.5 20t-29.5 15q8 74 8 143l-12 334q0 168 39 239q-33 72 -33 97l16 123q0 27 -6 182.5t2 236.5q-14 18 -14 38.5 t16 54.5zM864 414v227q-109 -106 -108 -145q-1 -82 108 -82zM889 346l-94 -2v-43l24 -33q-31 -44 -20 -110v-8l-37 -25l-6 -31q0 -25 14 -49q-35 -27 -72 -51q-41 -31 -61 -64q-10 0 -107.5 29t-99.5 31q-74 127 -74 135t8 47t7 61q-8 10 -25 23q0 12 12 37q2 27 -6 76 t-8 78.5t12.5 65.5t12.5 61.5t-7 60.5q14 6 41 18l-63 45v-34q6 -47 100 -89l11 95l-2 24q61 33 202 33l23 90l-29 -26q-4 2 -16 2q0 -61 37 -82q12 -8 53 -17q8 -4 27 -54t22 -52l47 -35l-10 16l-21 -47l23 -153q6 0 22.5 6t16.5 8q8 -37 43 -37zM453 573q0 20 -20.5 39 t-39.5 19q-55 0 -55 -66l10 -88q105 59 105 96zM856 436q0 -29 -98 -186l-15 170q-2 20 15.5 49t42.5 29q55 -1 55 -62zM708 327.5q15 -20.5 15 -44t-51 -168.5q-18 39 -45 96.5t-27 81.5q0 66 53 53q4 2 22 2t33 -20.5zM465 494q0 -31 -103 -144l-12 131q0 18 19.5 44 t38.5 26q57 0 57 -57zM842 55l-240 4l2 99q117 6 238 -103z" />
<glyph unicode="c" horiz-adv-x="1318" d="M772 -164l29 10h4q-2 -20 -4 -24q6 61 22.5 77.5t79.5 30.5q16 10 46 35t46 35l45 72q59 -49 81 -69t38 -52l8 -12h33q14 -54 8 -86l-12 51l-25 -10q6 2 19 2t74 -41q-96 -166 -238 -226q-96 -39 -295 -49l-12 25h-4q-25 -10 -59.5 -10.5t-129.5 32.5l-10 25 q-25 2 -48.5 4t-48.5 24.5t-112 98.5h-6q-25 49 -25 82q-4 23 -34.5 57.5t-32.5 93.5q-6 4 -33 43q-42 180 -2 353q21 86 21 124t33.5 109t62.5 131q23 25 48 32t42 11q2 12 4 35q20 74 98 74q13 0 31 22q33 33 59.5 33t40.5 -10q31 47 107 47q29 0 88 -12.5t88 -12.5l72 -2 l-4 -55q-4 4 -4 8l4 -57l-25 -25l-31 78h-8q18 23 45 47q29 -12 166 -88v-12h6q47 0 81 -32t34 -85t-57 -82h-25l45 39v4q0 -2 2 -2v-2q16 -29 16 -57.5t-32 -63.5q-4 -6 -62 -57l-47 -8h4q-16 -4 -26 -4q-49 0 -74 63l-164 61q-16 -4 -53 -21t-59.5 -17t-51.5 8 q-104 -113 -121.5 -155t-27.5 -191q-4 -20 -15 -62l21 -22q14 -55 10 -129q39 -19 53 -78q16 -14 55 -26q47 -15 58 -32l2 3q49 2 76 -15q18 16 32.5 16.5t50.5 -17t38 -25.5l-37 -60q4 25 16 27l-4 26q0 2 -4 7l-14 -93q-6 2 -15 15q4 -6 4 -11zM260 625q0 -35 -104 -90 l-11 83q0 63 56 64q59 0 59 -57zM123 401q0 -31 -103 -184l-10 164q-2 20 15.5 49t42.5 29q55 -1 55 -58zM111 305q0 -37 -101 -96l-12 90q0 61 53 61q16 0 38 -18.5t22 -36.5zM94 203q0 -76 -100 -185l6 256h94v-71zM111 100q0 -31 -101 -170q-14 74 -14 125q0 106 57 107 q58 -1 58 -62zM137 6q0 -37 -104 -90l-10 86q0 61 53 61q61 0 61 -57zM184 -94q0 -35 -102 -92l-10 90q0 61 53 61q59 0 59 -59zM838 -92q0 57 -62 57q-25 0 -40 -21.5t-15 -43.5l10 -82q107 51 107 90z" />
<glyph unicode="d" horiz-adv-x="1404" d="M913 1487l-10 -328l-94 2q0 51 10 328zM741 1479q0 -31 -100 -144l-12 131q0 18 18.5 44t38.5 26q55 0 55 -57zM743 1219q0 -37 -104 -97l-10 88q0 66 55 66q16 0 37.5 -18.5t21.5 -38.5zM743 1141q0 -37 -104 -97l-10 89q0 66 55 65q16 0 37.5 -18.5t21.5 -38.5z M463 1169l-19 -96l-63 8q-14 2 -39 33t-25 64l56 6q33 -1 90 -15zM1212 1243l21 -328q0 -25 -14.5 -67.5t-14.5 -80.5t18.5 -146.5t18.5 -171t-16 -117.5l-19 -23q2 -25 19.5 -76.5t17.5 -83.5t-43 -79q33 -33 33 -140.5t-21 -294.5q-111 -18 -149 -18q-39 0 -160 16l-16 72 l-6 -12q-61 2 -142.5 -50.5t-136.5 -52.5q-188 0 -264 93h-29l-147 118q-12 25 -21 86l-22 25q-49 188 -49 434q0 104 32 254q2 6 -2 49t-4 49q0 57 33 131q16 -2 33 -4v11q-2 6 -2 12q0 88 110 110l6 3v6q12 90 119 80l6 22q70 25 160 25t150 -25l10 -20q55 -6 75.5 -12.5 t53.5 -32.5q2 -35 43 -43q0 6 2 18v20l-14 246q0 70 22 164q-23 43 -18 197l59 32q154 -4 273 -36zM188 985q0 -41 -100 -94l-14 86q0 66 55 65q59 0 59 -57zM139 895q0 -41 -108 -98l-8 90q0 23 15 44t36.5 21t43 -18.5t21.5 -38.5zM125 840q0 -37 -102 -92l-13 90 q0 61 57.5 61t57.5 -59zM125 758q0 -31 -100 -187l-15 172q-2 20 15.5 49t42.5 29q57 0 57 -63zM109 692l-9 -127l-2 -33l-30 -112l-66 98l-2 29v12q0 33 14 137zM137 346q0 -29 -104 -188l-10 166q-2 18 17 50t40 32q57 -1 57 -60zM920 985q0 23 -18.5 40t-41.5 17 q-55 0 -55 -61l14 -94q101 61 101 98zM743 1051q0 20 -20.5 38.5t-43 18.5t-37.5 -22.5t-13 -45.5l8 -90q106 62 106 101zM913 434v230q-109 -106 -108 -146q0 -27 26.5 -55.5t81.5 -28.5zM895 231q-16 64 -16 81.5t9 66.5t7 78l25 -41l-50 26q0 49 -4 115q-8 -6 -30 -22 q-20 94 -17 110v4l-10 6q-23 37 -36 48t-44 14l-6 2q-8 -33 -74 -92q-37 86 -37 104v6q-207 -10 -206 -375q0 -29 15 -81t15 -78l-12 -86l-2 -4q51 -34 51 -78q36 -7 55 -31t37 -49h53q127 0 146 16l6 11q29 33 68 47q18 106 36 182zM932 264q0 61 -55 62q-18 0 -38 -31 t-20 -45q0 -61 -35 -422q148 397 148 436zM743 674q0 -39 -104 -99l-10 91q0 63 55 63q16 0 37.5 -18.5t21.5 -36.5zM932 453q0 -41 -107 -95l-8 86q0 66 55 66q60 0 60 -57zM716 655q15 -23 15 -46.5t-104 -278.5l-11 260q0 20 18.5 54t42.5 34t39 -23zM920 332 q0 -31 -101 -139l-14 129q0 25 18.5 47t40.5 22q56 0 56 -59zM719 438q0 -37 -103 -96l-12 88q0 66 55 66q16 0 38 -19t22 -39zM932 139q0 -39 -107 -94l-8 88q0 63 55 64q60 -1 60 -58zM705 387q0 -31 -103 -143l-12 129q0 18 19.5 44.5t37.5 26.5q58 0 58 -57zM741 113 q0 -31 -100 -144l-12 131q0 18 18.5 44t38.5 26q55 0 55 -57zM743 516q0 20 -21.5 38.5t-37.5 18.5q-55 0 -55 -65l10 -88q104 59 104 96z" />
<glyph unicode="e" horiz-adv-x="1261" d="M987 117q0 -37 -100 -94l-13 88q0 61 54 61q16 0 37.5 -18.5t21.5 -36.5zM997 68q0 -33 -98 -131l-12 120q0 20 18.5 43t36.5 23q55 0 55 -55zM874 109l-417 14q-41 0 -119 -17q16 -74 33 -135q8 -6 14 -18q-25 0 -39 20q-2 -10 -33 -10l58 176q47 -184 43 -209 q68 -29 135 -34l10 -25q141 -6 250 109q63 4 92 -11h4q39 0 90 -61q33 -47 68 -94q-72 -98 -152 -142q-121 -66 -151 -90q-78 -23 -170 -22.5t-129 10.5q-25 20 -84 36.5t-88 53.5q-57 37 -137 117t-97 129q-2 6 -2 67q0 4 -18.5 38t-18.5 51.5t7 48.5q-8 12 -13 39l43 59 q-18 -18 -35 -19v25l-4 61l-2 9q92 -31 92 -84q0 -37 -41 -37q-8 0 -31.5 31.5t-27.5 44.5q4 14 10 36v5l2 4q-10 16 -10 58t31 158.5t63 176.5l35 22q8 14 51 111h27l6 6q11 21 27 28t28 13l15 25q119 49 200 39l5 -31q8 51 77 51q133 0 222 -43q18 -8 45 -45q10 2 51 2 v-47q47 -8 63 -35q12 -16 23 -69q25 -12 69 -60q49 -78 50 -221q0 -49 -7 -111q5 -12 13 -39q-43 -125 -69.5 -145t-156.5 -20zM795 80l-254 6l2 94q20 2 64.5 2t187.5 -102zM489 41l109 -12v-97q-57 0 -98 9l-23 2q-45 4 -45 51t57 47zM541 -387l104 -10v-97q-11 0 -110 11 q-45 4 -46 49q0 49 52 47zM764 424q-20 102 -69.5 150.5t-151.5 48.5h-19q-33 -23 -49 -27h-45q-14 0 -55 -63.5t-41 -100.5t55 -37q14 0 45 11.5t48 11.5t49 -14.5t60 -14.5t74 10q69 15 99 25zM592 498q-98 -18 -377 -37l215 108q0 -25 -18 -34q20 -2 30 -21l7 70 q-10 2 30 2h37q10 0 39 -26.5t37 -61.5z" />
<glyph unicode="f" horiz-adv-x="931" d="M850 1225q0 -31 -102 -183l-9 160q0 18 17.5 50t38.5 32q55 0 55 -59zM838 776q0 -29 -99 -139l-12 129q0 25 17.5 47.5t39.5 22.5q54 -1 54 -60zM147 346q0 194 27 244q-16 49 -35 182q-45 12 -121 23q-6 49 -6 73q2 0 4 -2l-16 33q4 41 18 156q92 10 114 25t15.5 93 t-6.5 103q0 94 47 129l7 6q16 10 14 105q74 43 150.5 85.5t152.5 43.5q-16 0 168 -21l41 -37q0 10 -31 148q61 -193 62 -238q0 -96 -37 -166h-27l-20 -31q-39 -16 -60.5 -16t-37 1t-23.5 1t-12 -2l-11 -20q-47 -27 -53 -45q-2 -4 -2 -65.5t19.5 -72t76.5 -9.5t133 -3 q16 -59 31 -154h8q16 0 346 -49l-376 -59q-43 -31 -52.5 -31t-62.5 12q-4 -8 -17 -20q-43 -12 -92 -16q-8 -88 -2 -255.5t6 -197.5l-12 -418q0 -96 14 -252q-43 -12 -53 -14v-12q-59 -18 -92 -19q-64 0 -174 23q-6 45 -47 182l41 -6l2 24h53l-41 -71q-8 18 -31 63 q0 64 37 101q2 -2 2 -4q10 47 30.5 47t47.5 -33q-2 4 0 14q-59 0 -90 -2v2l2 2l-14 6l6 164q0 47 -4 72l-29 29q0 49 23 135v2zM657 672q-10 -195 -10 -344q-49 0 -78 38t-28 62q-1 39 116 244zM641 356q0 -37 -98 -96l-15 92q0 63 54 64q59 -1 59 -60zM651 305 q0 -37 -98 -98l-12 88q0 68 53 67q18 0 37.5 -17t19.5 -40zM651 119q0 -31 -98 -137l-12 124q0 18 18.5 44t36.5 26q55 0 55 -57zM639 51q0 -33 -86 -129q-25 106 -25 127t16.5 41.5t41.5 20.5q53 -1 53 -60zM641 -41q0 -37 -98 -94l-15 90q0 66 54 65q59 0 59 -61z M651 -131q0 -37 -100 -141l-10 127q-2 20 15 46.5t38 26.5q57 0 57 -59zM698 -244l-268 6v97h31q20 2 31 2q54 -1 206 -105zM543 668l-11 -136v-12l3 -26l63 -117l29 129l2 33q6 98 6 129h-92z" />
<glyph unicode="g" horiz-adv-x="1445" d="M1270 737q-10 -190 -10 -334q-51 0 -81 37t-30 69.5t121 227.5zM1264 389q0 -37 -144 -356q31 287 31 325q0 92 57 93q56 -1 56 -62zM1278 203q0 -37 -102 -97l-15 87q0 68 58 67q16 0 37.5 -18.5t21.5 -38.5zM1260 -6q-57 0 -84.5 28t-26.5 54q0 39 111 141v-223z M1245 -94q-57 0 -83 27t-25 53q0 39 108 147v-227zM1260 -172q-57 0 -84.5 28t-26.5 54q0 39 111 141v-223zM1266 -166q0 -41 -109 -92l-8 84q0 66 55 65q16 0 39 -19.5t23 -37.5zM1251 -272q0 -31 -102 -138l-12 129q0 23 18.5 45.5t40.5 22.5q55 0 55 -59zM1239 -338 q0 -39 -147 -436q35 360 34 420q0 16 19.5 47t38.5 31q55 -1 55 -62zM1124 799l-14 -385q0 -20 13.5 -60t13.5 -65t-14.5 -77t-14.5 -78t4 -133t0 -163q10 -14 10 -20q2 20 2 -65t-4 -111l-24 -35v-111q0 -53 -19 -114l-26 -11q-12 -57 -17 -67q-12 -31 -49 -45v-7 q0 -10 -103.5 -101t-127 -98t-59.5 -8t-68 -3l-23 -25q-25 -6 -54.5 -6t-120.5 15.5t-124 27.5t-66.5 50t-87 57.5t-68.5 55.5t-26 136l45 35l11 12q27 31 73 41l15 35l65 24q-4 0 -8 4l31 4q43 0 59 -53h8q6 2 11 2l30 -4l31 -49l25 -16q37 -25 67 -86l-26 10l14 -55 q-55 8 -55 53v6q0 4 2 -8q10 -6 20 -25l25 94q64 -16 75 -16q31 0 31 33q33 14 86 45q-4 -2 -26 80h98q29 25 29 84q0 10 -17 98q-2 2 -4 2t6 -10t4 -25q-43 -27 -80.5 -26.5t-90 -34.5t-103.5 -35q-188 0 -343 134t-155 331q0 25 10 59l-4 2q-27 147 -26 215q0 68 41 205 q2 6 3 20t-13.5 58.5t-12.5 69.5l4 43l37 24v10q-2 6 -2 9q0 35 62.5 120.5t97.5 98.5q23 8 47 0q6 10 33 39q47 0 59 -9q49 59 115 60q29 0 106.5 -12t95 -26.5t23.5 -53.5v-4h2l41 12l45 -45h6q18 63 45 83.5t73.5 20.5t105 -6t104.5 -8q2 -45 -4 -72q20 -43 20 -151z M1264 264q0 59 -60 60q-23 0 -40 -29t-15 -47l10 -127q105 112 105 143zM350 82l-16 348q0 90 6 110.5t25.5 31t35.5 42.5q18 14 56.5 50.5t74.5 35.5h19q12 -2 18 -2v-18q37 -8 82.5 -17.5t53.5 -18.5t38 -50q20 -12 45 -31l-2 4l25 47q-43 -4 -178 -84l131 -26h8 q6 -2 10 -2q8 0 11 -19q-25 -31 -25 -102l27 -31q2 -23 -8.5 -66.5t-10.5 -126.5t-10 -106q-25 -18 -70 -86q-23 4 -51 -12q-20 -31 -45 -31q-68 0 -159 56.5t-91 103.5zM496 -16q0 57 -58 57q-20 0 -38.5 -23.5t-18.5 -44.5l12 -125q103 105 103 136zM664 387l-13 -281h-94 l12 283zM496 457q0 -31 -103 -138l-12 125q0 20 18.5 45t38.5 25q58 0 58 -57zM467 311q-2 -37 -6 -112q-2 -23 -24.5 -51.5t-29.5 -28.5t-28 21.5t-21 41.5l13 135zM483 127q0 -39 -92 -92q-23 74 -22 90q0 57 55 57q16 0 37.5 -18.5t21.5 -36.5zM496 74q0 -31 -103 -144 l-12 131q0 18 18.5 44t38.5 26q58 0 58 -57zM481 342q0 57 -55 57q-18 0 -37.5 -24.5t-19.5 -44.5l14 -129q98 110 98 141z" />
<glyph unicode="h" horiz-adv-x="1568" d="M309 1268q0 -39 -106 -90l-8 82q0 68 55 67q59 0 59 -59zM911 649q0 -29 -102 -139l-12 129q0 25 17 47.5t42 22.5q55 -1 55 -60zM1409 291l-18 -146q-1 -63 36 -198l-26 -21l2 -2l4 -28q0 -31 -13.5 -54.5t-13.5 -28.5t17 -153q-25 -10 -56 -20l-4 -13l-30 -30 q-37 -12 -69.5 -12.5t-182.5 24.5q0 76 12 183.5t12 148.5q0 49 49 49q12 0 21 -4q-2 0 -4 1t-4 1t-4 -1t-4 -1q0 -35 -35 -43q2 -4 2 -11l-6 9q-35 47 -35 217q0 72 14 121l19 18l-13 2l2 10q2 0 6 4l-20 9q14 195 14 165v11q-18 31 -45.5 97t-53.5 75.5t-56 19.5l-11 21 q-31 8 -71 8q-129 0 -154 -60q-20 -47 -65 -77q0 -4 1 -18.5t1 -24.5l-4 -33l-29 -29v-8q-2 -4 -2 -15t10 -59.5t8 -87.5l-18 -37l4 25q-14 -27 -36.5 -27t-39.5 19q0 -16 -4 -25l94 4l-12 -387q0 -100 12 -194l-14 -33q0 -4 -6 -14v2q0 6 8 14q-8 -16 -27 -45 q-59 -31 -117.5 -31t-168.5 16q-4 12 -9 29l-28 8q20 66 28 115l17 -8q-31 18 -31 49q0 8 12 25q2 10 13 26q-29 115 -29 214t12 218v6q-10 113 -10 134.5t23 52.5v6l-37 76q2 35 20.5 86t18.5 67l16 -14q-35 45 -43 84q16 45 16 190q0 12 -14 48t-14 68t14 103.5t14 108.5 l-18 152q0 12 6 57l25 25q-2 12 -2 42t49 55.5t73.5 25t81 -9.5t105.5 -9q14 -139 14 -274l-10 -349q0 -10 4 -30v-6h2q33 41 70 32q0 10 4 21q33 23 117 40t127 17t88 -31.5t53 -33.5q32 16 53 16l43 -6l15 -33l14 -2q6 0 53 -16l-4 -78q51 -35 143 -103l2 -161 q0 -17 -10 -37q49 -55 49 -111t-28 -112q16 -55 16 -76zM317 1223q0 -74 -14 -342l-94 2q0 4 12 342zM938 465q0 -35 -145 -365q31 299 30.5 336t18 64.5t39.5 27.5q57 0 57 -63zM924 326q0 -33 -103 -140l-12 127q0 18 18.5 44t38.5 26q58 0 58 -57zM729 510q16 -18 16 -46 t-106 -179l-10 159q-2 18 17.5 51t43 33t39.5 -18zM129 1210q0 -39 -149 -440q31 319 34.5 385t24 91.5t35.5 25.5q55 -1 55 -62zM745 367q0 -39 -108 -101l-8 92q0 23 15 44.5t40 21.5q61 0 61 -57zM758 328q0 -41 -105 -101l-12 90q0 68 58.5 68t58.5 -57zM631 96l12 187 l96 -2q0 29 -14 -187zM129 1001q0 -39 -149 -440q31 319 34.5 385t24 91.5t35.5 25.5q55 -1 55 -62zM924 12q0 -39 -107 -100l-8 90q-2 23 13.5 45.5t37.5 22.5t43 -19t21 -39zM334 547q0 -31 -101 -141l-14 131q0 25 18.5 47t41.5 22q55 0 55 -59zM911 -31q0 -31 -102 -141 l-12 131q0 25 18.5 47.5t40.5 22.5q55 -1 55 -60zM131 602q0 -41 -108 -98l-9 90q0 23 15.5 44t37 21t43 -18.5t21.5 -38.5zM322 377q0 -31 -103 -144l-12 132q0 23 18.5 47t40.5 24q56 0 56 -59zM807 -143l-19 -97l-63 9q-16 2 -41 33.5t-25 64.5q76 6 148 -10zM117 545 q0 -27 -103 -189l-12 172q-2 20 15.5 49t41.5 29q58 0 58 -61zM743 18q0 -37 -143 -364q29 276 29 351t59 75q55 -1 55 -62zM731 -90q0 -35 -104 -334l-9 305q0 18 19.5 57t38.5 39q55 1 55 -67zM129 416q0 -33 -104 -137l-11 124q-2 18 17.5 45t40.5 27q57 0 57 -59z M117 350q0 -37 -103 -90l-14 86q0 63 55 64q62 -1 62 -60zM307 180q0 -33 -102 -190l-12 170q-2 23 15 51.5t44 28.5q55 -1 55 -60zM121 440q-10 -190 -10 -340q-51 0 -81 38t-30 70.5t121 231.5zM307 76q0 -31 -102 -144l-12 131q0 18 19 44t40 26q55 0 55 -57zM129 117 q0 -41 -106 -92l-9 84q0 66 56 65q16 0 37.5 -19.5t21.5 -37.5zM307 -31q0 -33 -102 -184q-14 76 -15 127q0 117 62 117q55 -1 55 -60zM322 -109q0 -31 -103 -141l-12 129q0 18 18.5 45t38.5 27q58 -1 58 -60zM117 61q0 -37 -105 -94l-10 92q0 61 55 62q60 -1 60 -60z M303 362v228q-111 -106 -110.5 -140.5t27 -61t83.5 -26.5zM215 0q107 244 107 273.5t-16.5 50t-39.5 20.5t-41 -36t-18 -56zM129 299q0 18 -21.5 37.5t-37.5 19.5q-55 0 -56 -63l9 -86q106 51 106 92z" />
<glyph unicode="i" horiz-adv-x="763" d="M565 1278l-164 -6q-43 0 -127 10q-2 43 -8 93t-6 88t14.5 65.5t69.5 116.5q70 -16 199 -21l20 -43q29 -30 29 -93.5t-27 -209.5zM268 1303q0 -31 -92 -140l-12 131q0 25 16.5 46.5t36.5 21.5q51 0 51 -59zM100 1210q-102 0 -102 82q0 41 102 148v-230zM281 973 q0 -31 -97 -185l-8 164q0 18 16.5 49t36.5 31q52 0 52 -59zM113 883q-41 0 -72 20.5t-31 60.5t103 146v-227zM270 725q0 -39 -98 -94l-8 88q0 23 15.5 44t35.5 21q55 0 55 -59zM104 895q0 -31 -96 -184q-12 68 -12 125q0 119 55 118q53 0 53 -59zM293 643q0 -29 -94 -190 l-13 172q-2 23 14.5 51.5t39.5 28.5q53 -1 53 -62zM104 780q0 -39 -96 -100l-10 90q0 68 51 68q55 -1 55 -58zM283 582q0 -39 -97 -97l-12 88q0 66 51 66q12 0 35 -20.5t23 -36.5zM432 -389q-29 -19 -52 -20t-63 14q-41 111 -41 229q0 215 -16 461l27 47q-4 -4 -6 -4 q2 4 10 27q-6 4 -23 16q8 51 27 82l2 131l-2 31q-37 72 -37 131t12 145t15 141l63 31q61 -18 75.5 -18t143.5 24q8 -88 6 -196l-4 -195q0 -43 2 -65l21 -21q10 -41 10 -70l-22 -206l10 -316q0 -152 -23 -434q-47 14 -127 14zM270 487q0 -39 -96 -88l-10 84q0 63 51 64 q55 -1 55 -60zM101.5 722.5q15.5 -20.5 15.5 -49t-99 -272.5l-8 252q0 20 17.5 55t38.5 35q20 0 35.5 -20.5zM139 502q0 -39 -96 -99l-10 91q0 68 51 67q55 0 55 -59zM293 252q0 -39 -94 -96l-13 88q0 66 52 65q18 0 36.5 -17t18.5 -40zM281 430q0 -35 -138 -448 q33 367 33 417q0 92 53 93q52 -1 52 -62zM104 422q0 -31 -96 -143l-10 129q-2 18 16.5 44.5t36.5 26.5q53 0 53 -57zM287 303q-10 -195 -11 -344q-47 0 -74.5 38t-27.5 69.5t113 236.5zM205 217l-88 -106q-39 12 -78 45.5t-41 64.5q43 35 72 35t135 -39zM117 88 q0 -35 -99 -278l-8 249q0 16 18.5 53.5t34.5 37.5q54 -1 54 -62zM270 315q0 59 -55 60q-51 0 -51 -64l10 -84q96 49 96 88zM281 197q0 59 -52 59q-20 0 -36.5 -31.5t-16.5 -50.5l8 -160q97 150 97 183z" />
<glyph unicode="j" horiz-adv-x="706" d="M526 1544q0 -10 1 -42t1 -52q0 -170 -82 -170q-35 0 -57 16q-35 -2 -104 -2l-62 2q-4 43 -13 113.5t-9 105.5t12 80q37 39 68 82q49 -12 109.5 -26t73.5 -28.5t21 -41.5zM436 1188q-139 55 -141 135q66 16 59 16q55 0 64 -53q0 -2 18 -98zM252 920q0 -37 -131 -371 l29 358q0 20 15 47t36 27q51 0 51 -61zM252 580q0 -39 -96 -99l-9 90q-2 23 13.5 44.5t34 21.5t38 -18.5t19.5 -38.5zM252 283q0 -31 -96 -187l-9 164q-2 20 15.5 52t38.5 32q51 0 51 -61zM246 14l-84 -2q-2 47 -2 95t2 96l84 -6v-183zM207 1032q125 55 165 55t72 -18 q8 4 25 4t57 -41q0 -205 -22 -428v-4q26 -153 26 -176l-16 -250q0 -18 -2 -31q18 -35 16 -116l-4 -213l-22 -41q-2 -59 11 -168t13 -179.5t-22 -132.5q-2 0 -66 -129q-12 -25 -84 -49l-10 -37q-29 -18 -53 -18l-31 -33q-45 -14 -106.5 -16t-118.5 -4l-35 108v154q0 20 -6 69 q63 4 156 21v4q8 45 45 64v14l2 24l24 29q0 25 -14 75t-12 81l2 37l18 12v31q-2 23 -2 32l12 271q0 63 -30 145q0 139 34 221q-14 57 -10 68v98l-18 21q-8 27 -8 43t17 60t17 75zM270 -57q0 -16 -28.5 -41t-42.5 -29l-31 90q-4 -8 -8 -10q0 2 1 3t1 3q14 37 53 37 q12 0 33.5 -18.5t21.5 -34.5zM240 -115q0 -33 -93 -141l-10 131q-2 25 14.5 47.5t38.5 22.5q50 -1 50 -60zM240 -262q0 -31 -93 -141l-10 133q-2 25 14.5 47t38.5 22q50 0 50 -61zM143 -520l-71 -23q-2 -2 -58 -32l-14 67q-6 25 -6 37q0 70 59 70l27 -5zM252 -180 q0 59 -51 59q-20 0 -38 -30.5t-16 -51.5l9 -162q96 150 96 185z" />
<glyph unicode="k" horiz-adv-x="1329" d="M1270 860q0 -37 -103 -94l-12 92q0 63 55 64q60 -1 60 -62zM1221 995l-119 -254q-100 41 -101 84q0 31 52 60l18 10q5 2 150 100zM647 1161q0 -29 -102 -190l-13 170q-2 23 15.5 51.5t42.5 28.5q57 -1 57 -60zM469 1149q0 -29 -102 -184l-13 163q-2 20 15.5 50t42.5 30 q57 0 57 -59zM659 997q0 -37 -104 -319l-8 291q-2 12 19.5 53t35.5 41q57 0 57 -66zM466 1067q15 -23 15 -49.5t-102 -278.5l-10 271q0 18 18.5 49t41 31t37.5 -23zM973 438q20 -48 20 -74t-19.5 -47.5t-45.5 -19.5q-47 41 -54 72q0 23 18.5 51.5t47.5 28.5zM936 1063 l61 -14l29 18l2 -12q47 33 94 35l35 -101q-16 -18 -57 -43q-29 -63 -73 -99t-54 -48v-31q-16 -37 -56 -65.5t-43 -30.5q-6 -37 -12 -47q-10 -23 -41 -31q-6 -35 -78 -92q25 -61 29 -94l33 2q41 -109 78 -170l28 -17q10 -31 11 -51q37 -12 51 -74q39 -23 47 -49q2 -8 2 -63 q0 -16 160 -191l-13 -37l-2 -14q16 -6 47 -20q0 -121 -51 -121q-20 0 -51 22l70 17l-23 -45q-82 -21 -145 18q-60 -20 -84.5 -20.5t-67.5 24.5l-8 25h-23q-12 25 -16 51l-18 6q-37 37 -58.5 104.5t-42.5 128.5q-49 37 -49 95q-33 29 -62.5 58.5t-38.5 85.5t-22 56 q-25 0 -107.5 -95t-82.5 -126l14 -61l-94 -15q86 -4 90 -14l-4 -22l16 -72q-26 -16 -22 -37.5t4 -45.5t-2 -126l-66 2l-129 -14q-53 0 -141 45l6 227q4 137 -8 227l14 39q-14 86 -14 113t13.5 74t13.5 71q-29 57 -29 117l16 223l-18 203q0 88 49 137q-24 66 -21 120t3 79 t-13.5 86.5t-15.5 79.5l39 26q-25 57 -25 84l6 33l52 53q49 -6 288 -18q-10 -70 -37 -96v-10q0 -51 16.5 -156t16.5 -116t-6 -214.5t8 -327.5h-6q0 -117 6 -206h2v14q23 25 52 37v26q61 80 139 123q6 4 6 39q0 -16 8 49q20 29 92 45q-4 12 -4 25q0 43 61 82l60 39 q0 33 35 88q51 -25 69 -31q16 31 62 31zM356 659l13 187l96 -4q0 31 -14 -185zM659 -16q0 -37 -102 -95l-12 93q0 61 57 61t57 -59zM643 -213q-111 0 -111 82q0 39 111 141v-223zM465 123q0 -89 -14 -250l-95 2l13 252zM952 707q0 18 -21.5 36.5t-37.5 18.5q-55 0 -55 -66 l12 -86q102 58 102 97zM555 514q104 291 104 318.5t-16 50t-37.5 22.5t-40 -37t-18.5 -57zM469 600q0 57 -57 57q-18 0 -38 -25.5t-20 -43.5l13 -125q102 104 102 137zM481 535q0 59 -57 59t-57 -64l14 -86q100 52 100 91z" />
<glyph unicode="l" horiz-adv-x="747" d="M496 954q0 -37 -99 -100l-8 92q-2 23 13.5 44.5t37.5 21.5q56 -1 56 -58zM504 768q-104 0 -105 82q0 39 105 147v-229zM508 694q0 -39 -96 -98l-11 88q0 68 52 68q18 0 36.5 -17.5t18.5 -40.5zM326 1538l4 -371q0 -129 -8 -194l6 -53v-105q-2 -70 -2 -104l-90 2v80 l38 -43l39 45l2 -29v-23l21 -12q4 -82 1 -134t11 -163l-33 19q-2 -4 -8 -11q-4 -49 -186 -182l235 402q-56 -591 -22 -676q10 -25 39 -39v-6l10 -2q37 0 80 -2q23 -51 22 -82l2 -15q33 -20 37 -65q-57 -45 -98 -21l27 23q-10 4 -15 37l62 -64q-8 -18 -8 -117 q-20 -10 -48 -22q4 8 7 10l-45 -31q-70 4 -138 9q-90 12 -114 63q-4 12 -9 25h-22q-29 0 -64 37v47l-26 18q-18 45 -21 86q2 -39 2 84q0 442 -14 573l12 43q-10 102 -10 233.5t10 401.5q-12 18 -12 27v260q0 141 119 141q23 0 72 -7t92 -1q16 -35 22 -55q-4 0 -8 4zM508 545 q0 -39 -133 -357q27 289 26.5 327t16 64.5t37.5 26.5q53 0 53 -61zM508 377q0 -35 -96 -178l-11 157q-2 20 14.5 50t39.5 30q53 0 53 -59zM508 289q0 -39 -96 -99l-11 89q0 66 52 65q18 0 36.5 -16t18.5 -39zM508 219q0 -31 -96 -184q-12 76 -13 127q0 117 56 117 q53 -1 53 -60zM508 88q0 -35 -96 -180q-12 74 -13 123q0 117 56 116q53 0 53 -59zM639 -55q0 -35 -96 -185q-12 72 -13 127q0 117 54.5 117t54.5 -59zM496 143q0 57 -56 58q-23 0 -38 -21.5t-13 -44.5l8 -92q99 63 99 100z" />
<glyph unicode="m" horiz-adv-x="1972" d="M1460 971q0 -8 -44 -42t-62.5 -34t-32.5 19.5t-14 43t34 54.5q53 10 62 10q57 -2 57 -51zM1110 899l-16 -92l-62 6l-370 74l364 26q31 2 84 -14zM1165 274q0 -37 -104 -88l-12 84q0 61 55 62q61 -1 61 -58zM1163 92q0 -29 -100 -143l-14 133q0 18 19 41.5t38 23.5 q57 0 57 -55zM1808 319l-14 -83q18 -18 18 -39.5t-12 -38.5q-18 -49 -18 -103l18 -266q0 -68 -18 -111q-27 -51 -51 -100q-53 2 -160 23l-10 8q-16 -6 -80 0q-2 88 -17 276l4 2q0 46 13 189l90 28l-2 7l-23 -50q18 33 51 27h5q-20 -20 -25 -29l31 -30l-101 -21 q-12 33 -37 96l13 35q-6 -6 -10 -8q-90 123 -132 172q217 -102 218 -145q0 -33 -146 -230q43 262 43 355.5t-4 138.5h76l-47 -45q2 -4 0 -6q-2 8 -7.5 23.5t-7.5 21.5l-36 12q-10 37 -10.5 46.5t14.5 62.5l-2 4q-25 -4 -33 -4q-63 0 -105 59q-66 -6 -101.5 -33t-47.5 -33 q4 -18 29 -215l-87 127q-29 -94 -32 -206h-97q96 -8 97 -31v-12q-20 -10 -41 2l45 -52l-19 -32l15 -21q2 0 5 1t13 1t109 -57q-67 -30 -117 -37l2 -2q4 -18 -2 -107l-25 -16q29 -98 29 -152q0 -135 -170 -135q-59 0 -149 13l-5 102q-2 55 7.5 161t9.5 143.5t-14.5 97 t-12.5 92.5l2 30q25 49 25 60q0 283 -238 282q-37 0 -96 -18q2 -6 2 -27l-20 -141l-54 80q-35 -51 -34.5 -84t11.5 -94.5t13 -87.5l-80 -39q6 0 19 -11h10q0 4 17.5 17.5t25.5 13.5q0 -18 8 -55l-24 -25q4 0 12 -2q0 -14 22 -63l-43 -43q14 -14 20.5 -32.5t6.5 -125.5 q0 -30 -23 -94q27 -6 17 -82l-19 -19q-6 -8 -8 -30q-80 -25 -110.5 -25t-178.5 19q0 53 7.5 171t5.5 179l-25 45q-4 139 33 252q-33 92 -33 113t11.5 50t17.5 63t0 140.5t-6 135.5l2 86l67 20q41 12 70 12t82 -20q2 2 16.5 2t46.5 -17l19 -45h2q29 4 51 -2l-66 -47 q-2 53 21 76q14 12 82 45q2 -14 4 -43l12 2q6 0 11 2v17q111 66 178 65.5t96 -27.5q25 6 51 7l47 -7l15 -38q41 -10 61.5 -19.5t38.5 -36.5l6 -35h14q68 0 82 21q33 53 37 57q35 29 94 29l11 25q53 4 69 -9l25 19q39 8 102 8t127 -18.5t101 -85.5q14 -25 26 -43l39 36 q41 -84 35 -120q10 -4 33 -27q4 -55 -4 -78q20 0 53 -6q0 -59 11 -133t11 -101zM602 418q-57 0 -90 28q-23 23 -23 54t113 135v-217zM594 573q0 -33 -105 -133l-10 121q-6 68 56 68q59 -1 59 -56zM596 436q0 -37 -104 -90l-13 86q0 59 56 60q61 -1 61 -56zM594 377 q0 -35 -105 -88l-10 82q0 63 57.5 63t57.5 -57zM594 264q0 -33 -105 -135l-10 123q-6 68 56 67q59 0 59 -55zM606 160q0 -35 -104 -90l-10 84q0 63 57 63t57 -57zM428 236l-10 -195h-99l13 197zM1546 436q0 55 -59 56q-61 0 -55 -68l10 -121q104 102 104 133zM1546 328 q0 59 -57 59q-14 0 -35.5 -32.5t-21.5 -47.5v-8l8 -242q106 240 106 271zM872 856q0 16 -10 33q-12 41 -45 41q-10 0 -16 -2q-57 0 -53 -84l6 -123q118 98 118 135zM1153 471q0 20 -21.5 37.5t-37.5 17.5q-57 0 -58 -59l13 -90q104 59 104 94zM1049 -123q104 280 104 305.5 t-16.5 46.5t-37.5 21t-41 -35t-20 -53zM317 623q105 235 105 260.5t-16.5 45t-40 19.5t-41 -30.5t-17.5 -51.5zM444 496q0 18 -21.5 35.5t-37.5 17.5q-55 0 -55 -60l12 -90q102 60 102 97z" />
<glyph unicode="n" horiz-adv-x="1488" d="M870 633q0 -37 -102 -96l-12 90q0 61 55 61q16 0 37.5 -18.5t21.5 -36.5zM907 406q0 -31 -102 -181q-12 66 -12 123q0 115 57 115t57 -57zM889 242q-57 0 -83 26.5t-26 59.5t109 129v-215zM907 258q0 -37 -102 -94l-12 84q0 66 55 65q16 0 37.5 -18.5t21.5 -36.5z M545 238l-15 -369q0 -94 19 -225q-145 -41 -175 -41t-184 41q25 92 25 116.5t-16 89.5q20 123 20 170t-15.5 139.5t-15.5 127t12.5 68.5t12.5 46t-18 48l43 96q-41 109 -41 192q0 25 6 70q31 31 37 53v-16l4 -4q12 41 37 41q16 0 36 -17v27l-92 -17v72q51 20 70 15 q57 57 94 65l6 -18l2 -11l17 -53l4 -10q-31 12 -31 38t25 36l-37 -2q39 -27 39 -62q0 -12 -2 -18l2 -6q-41 16 -64 22q20 10 43 10l4 2l4 58h144q0 -57 4 -115l8 2l14 45l41 4q37 0 62 -30q-14 0 -33 14l-4 2l16 4l13 47q39 16 58 16t49 -14t38 -16q2 2 3 8t-5 31 q57 14 86 14t45 -33q49 0 147 -24q29 -14 46.5 -46t33.5 -61l45 -2q37 -43 69 -144t32 -132t-10 -56.5t-11 -46.5q-4 -4 -8 -4l27 -16q-8 -61 -2 -174t6 -126t-4 -87l4 -4q0 -25 -15 -72q19 -106 19 -161.5t-12 -178.5h-33q-72 -68 -141.5 -68t-120.5 46.5t-51 125.5 q0 29 12 82l18 17q-14 28 -14 59q0 18 12 53l21 15q-45 68 -45 237.5t28 276.5h21q-31 8 -64 57q-39 63 -63 82q-51 43 -117.5 43t-116.5 -16q-61 -23 -59 -62l-74 -43q4 0 10 -2q-18 0 -18 -59l14 -166q0 -27 2 -47q-2 0 -10 -3t-12 -3zM721 408q0 -31 -103 -142l-12 127 q0 23 19.5 46.5t42.5 23.5q53 0 53 -55zM221 676q-127 59 -127 117q25 47 127 94v-211zM909 16q0 -35 -143 -348q29 285 29 320.5t17 62.5t40 27q57 -1 57 -62zM733 6q0 -29 -100 -137l-12 127q0 25 17 46t40 21q55 0 55 -57zM123 592q0 -76 -100 -184l4 256h96v-72z M139 428q0 -33 -102 -174l-10 158q-2 20 14 47.5t41 27.5q57 0 57 -59zM723 -96q0 -33 -150 -432q35 354 35 384.5t21.5 68.5t36.5 38q57 0 57 -59zM123 365q0 -76 -6 -123l-4 -31l-31 -113l-66 99l-2 26v13q0 33 15 133zM139 170q0 -31 -100 -145l-14 133q0 25 17 46t42 21 q55 0 55 -55zM907 -117q0 55 -53 56q-25 0 -43 -24t-18 -46l12 -127q102 112 102 141z" />
<glyph unicode="o" horiz-adv-x="1349" d="M1165 276l11 -172q0 -113 -67 -236q-94 -174 -214 -212q-43 -12 -57 -21l-13 -28q-39 -14 -102 -15h-10l-15 -26q-49 -8 -83.5 -8t-102.5 24l-6 17q-45 -12 -74 -12.5t-71 34.5t-62 35t-123.5 141.5t-112.5 169.5q-16 55 -16 136t12 200h-16q10 57 8 121.5t21 120.5 l18 10v14q0 84 8 115q14 59 78 80q-4 12 -4 41l55 20q16 29 34 54.5t73 25.5q2 0 -2 8q29 41 51 52q61 29 418 28v-39q31 2 64.5 -10t66.5 -24q6 -53 8 -68q16 -2 74 -16l12 -64q2 0 18 4q37 -25 64 -82l27 -14q6 -23 6 -100q0 -6 12 -26.5t23 -35.5q4 -26 4 -57zM535 539 v213q-111 -96 -111 -128.5t27 -58.5t84 -26zM827 444l17 70l-117 131q-74 18 -102.5 18.5t-78.5 -24t-77.5 -37t-44.5 -22.5q-53 -61 -53 -363q0 -35 21.5 -105.5t19.5 -109.5l-2 -39q-16 -10 -25 -18l-31 55q-2 -2 -6 -2q16 10 70 27q14 -37 31 -84q27 -4 71 -23l2 -4 q16 4 26.5 4t49.5 -14l23 -8q55 12 114 36q6 37 68 103v20l4 33q37 37 37 55.5t-9.5 65.5t-7.5 74l2 47l19 10q-20 88 -21 104zM535 365q-57 0 -84.5 26.5t-26.5 52.5q0 39 111 140v-219zM590 178h-125q-16 55 -16 80q0 68 65 68l53 -13q-8 -43 -6 -50t29 -85zM856 -76 l-184 6q-47 0 -47 50q0 49 49 49h6q78 -1 176 -105z" />
<glyph unicode="p" horiz-adv-x="1355" d="M829 1008q16 16 55.5 16t63.5 -39q12 -16 31 -76q6 -6 48 -16t77 -39v-27h2q49 -23 49 -67q0 -10 -4 -23l10 -10q23 -94 23 -161t-17 -122q29 -83 29 -190.5t-29 -200.5q8 -66 8.5 -116t-28.5 -99t-29 -45q0 -49 -46 -71.5t-85 -38.5q-18 -31 -65 -89 q-49 -41 -197.5 -40.5t-243.5 49.5l-65 78h-10q-2 -4 -11 -13v-26q0 -20 12.5 -127t8.5 -122t-8 -20l12 -184q0 -72 -21 -133q-18 -14 -25 -22.5t-18 -34.5q-145 0 -278 38v86l-12 111l14 289l-17 129q0 23 14.5 61.5t14.5 71.5t-13 130t-13 148q14 41 14 60q2 0 3 -2 l-13 45l20 43q0 117 -10 139q14 6 29 2l-43 35q4 78 22 340h-8l-2 6v37q-10 147 16 147q8 0 31 -30l-47 -2q0 41 6 90q123 38 142.5 38.5t68.5 -5.5l16 -17q25 8 41 8q51 0 70 -63h2q102 70 111 76q66 37 112 37t101 -19.5t81 -19.5zM723 653v97q-18 0 -55 6t-58 8 q-51 2 -51 -49q0 -41 43 -49l21 -4q41 -9 100 -9zM408 205l14 80q0 33 -19 51l15 55l-17 43l-4 12q0 -10 11 -16q0 109 65.5 182.5t163.5 73.5q217 0 217 -192q0 -20 -2 -74q-4 -102 7 -147.5t11 -82.5q-8 -12 -30 -34l-4 -33q0 -10 14 -68q0 -12 -33 -44.5t-43 -50 t-20 -77.5l45 29q-92 2 -209 -14l35 -88l53 40q-51 61 -78 62h-4l-12 -2l6 -96l115 4q-84 109 -127 108q-45 0 -60 -61q16 -2 20.5 21t8.5 44l8 -18h-70l47 -49v74h-59q0 -27 6 -35q0 72 2 61q-2 16 -41 62q-4 33 -4 82t-6 88q-20 20 -23 20t-4 -2q0 -2 5 -8zM483 -553 l13 234l-95 2l-12 -234zM885 592q0 -41 -103 -94l-10 86q0 66 55 65q16 0 37 -19.5t21 -37.5zM899 541q0 -41 -102 -99l-13 88q0 68 56 68q16 0 37.5 -18.5t21.5 -38.5zM897 461q0 -33 -100 -144l-13 132q0 18 19.5 43.5t38.5 25.5q55 0 55 -57zM896 432q15 -23 15 -50.5 t-104 -262.5l-8 248q0 18 18.5 53t41 35t37.5 -23zM899 242q0 -41 -102 -90l-13 81q0 66 56 66q16 0 37.5 -19.5t21.5 -37.5zM500 514q0 -39 -101 -96l-12 88q0 66 55 65q16 0 37 -18.5t21 -38.5zM838 76q0 -39 -103 -96l-12 86q0 66 55 65q16 0 38 -18.5t22 -36.5zM500 360 q0 -41 -103 -94l-10 86q0 66 55 66q16 0 37 -20t21 -38zM506 162q-55 0 -82 28t-27 60.5t109 128.5v-217zM526 178q0 -41 -106 -92l-8 84q0 66 55 66q16 0 37.5 -20t21.5 -38zM549 96q0 -31 -98 -133l-15 125q0 68 60 68q53 -1 53 -60z" />
<glyph unicode="q" horiz-adv-x="1341" d="M1145 -109l10 -172q0 -25 -10 -43v-14q-4 -2 -6 2l2 -72l-11 -10v-33l-4 9q18 -49 18.5 -219t-20.5 -320h-157q-12 -6 -29 -6q-88 0 -121 69q-20 45 -20 146l4 96q2 57 -4 96q6 27 14 64q-10 45 -10 162v24q-31 -10 -135.5 -65.5t-198.5 -55.5q-45 0 -97.5 27t-83 27 t-63.5 45t-47 55q-72 49 -92.5 83t-20.5 114q0 35 -40 100q-8 45 -7 113l4 114l-20 293q0 139 63 234q-8 12 -8 30q0 51 41 70q29 10 56 20q21 49 47 76h20q37 55 58.5 66.5t91.5 11.5q12 0 55 19.5t72 19.5t95.5 -14t88.5 -17v-30q29 -4 92 -25l31 -33l4 2q2 14 12 70 q172 39 307 35q18 -199 19 -172q0 -27 -8.5 -85.5t-6.5 -90.5l25 -54v-98q-23 -8 -22 -68l10 -110l12 -227zM803 188q8 13 8 4t-25 316l7 16l-11 4q-68 188 -202 189q-16 0 -41 -4q-29 -25 -97 -66q-41 -20 -55 -30t-28.5 -55.5t-14.5 -276t38 -262t52 -89.5q53 -18 122 -18 t83 2l12 25q35 8 68 6q8 4 30.5 33.5t26.5 39t5 60.5t7 65.5t15 40.5zM520 -31q0 59 -53 60q-23 0 -41 -22.5t-18 -47.5l14 -129q98 106 98 139zM508 297q0 -35 -100 -139l-13 125q0 23 18.5 47t41.5 24q53 0 53 -57zM498 231q0 -41 -107 -92l-8 84q0 66 55 66q16 0 38 -20 t22 -38zM397 -8l13 198l94 -4l-12 -196z" />
<glyph unicode="r" horiz-adv-x="1282" d="M268 -408q0 128 23 404q-10 14 -10 33.5t12 36.5v4l-21 22q-6 37 -6 74t13.5 111.5t13.5 114.5t-13.5 126t-13.5 129l4 141q4 82 -4 140l41 43l172 16q55 0 150 -29l-4 -71q20 -6 32 -33l-69 18l20 17q88 72 150 99.5t134.5 27.5t123.5 -12l20 -23q55 6 65.5 6t43.5 -12 l55 -70q25 -30 27 -53q-92 -172 -176 -217h-25l47 47v-59q-51 -16 -79.5 -16.5t-72.5 28.5t-71 29q-66 0 -139.5 -40t-73.5 -104q2 20 2 -61q0 10 -18.5 -76t-18.5 -135t13.5 -170t13.5 -169t-18.5 -116.5t-18.5 -103.5q-12 0 -17 2l35 -47l-22 -66q-68 -10 -93.5 -10 t-226.5 24zM319 639q0 -37 -102 -94l-12 86q0 63 55 63q16 0 37.5 -17.5t21.5 -37.5zM150 786q-23 -205 -23 -354q-51 0 -81 37t-29.5 68.5t133.5 248.5zM119 627q0 -39 -107 -99l-8 88q-2 23 14.5 44.5t37.5 21.5t42 -17.5t21 -37.5zM317 317q0 -33 -102 -278l-10 252 q0 16 19.5 52t37.5 36q55 -1 55 -62zM119 446q0 -29 -105 -182l-10 162q-2 20 15.5 49t41.5 29q58 -1 58 -58zM119 360q0 -39 -103 -90l-12 82q0 66 55 66q16 0 38 -20t22 -38zM131 311q0 -39 -102 -96l-13 86q0 66 56 66q20 0 39.5 -16.5t19.5 -39.5zM313 217l-12 -229 l-94 2q0 78 12 229zM143 260q0 -37 -100 -96l-12 90q0 61 53 61q16 0 37.5 -18.5t21.5 -36.5zM127 104q-111 0 -111 80q0 39 111 140v-220zM139 -160q-57 0 -84 27t-26.5 58.5t110.5 133.5v-219zM317 -209q0 -20 -9 -40.5t-91 -156.5l-12 177q-2 23 15.5 50t41.5 27 q55 0 55 -57zM127 -260q0 -74 -100 -193l6 265h94v-72zM336 109q-121 -195 -121 -227t30 -68.5t81 -36.5q0 144 10 332z" />
<glyph unicode="s" horiz-adv-x="1417" d="M924 610l-4 -94q-94 0 -170 10q-43 6 -43 47q0 55 53 50q-2 -1 164 -13zM1262 178q0 -37 -105 -96l-12 86q0 66 57 65q18 0 39 -16t21 -39zM1274 123q0 -35 -105 -88l-10 86q0 61 53 61q62 0 62 -59zM1284 12q0 -31 -102 -141l-11 129q-2 16 17.5 42t40.5 26 q55 -1 55 -56zM520 567q0 -33 -102 -135l-12 123q0 20 19 44t40 24q55 -1 55 -56zM608 147l-92 -12q-74 0 -158 37l-8 14h-14q-10 -2 -17 -2q-66 0 -151.5 89t-89.5 157q-8 4 -27 12q-8 47 -8 67t13 56.5t16 48.5q-16 20 -13 72l25 25v14q-2 8 -2 12q0 35 46 93.5t71.5 66.5 t50.5 4h6l25 37h2v29l53 12q11 0 41 -4l14 -10q8 18 29 55q25 -4 74 -23l8 17q35 2 83 8t77.5 6t62.5 -43q45 2 137 -4q63 -10 82 -53q2 0 6 1t6 1q35 0 79 -35t83 -66q0 -39 -11 -91.5t-38 -53.5q-4 0 -10 2q-31 -51 -107 -117q-55 20 -114 43t-95 60q-37 12 -104 12 q-252 0 -252 -113q33 -31 65.5 -61.5t81 -38.5t218.5 2l14 -41q57 14 76 14q129 0 224 -115.5t95 -248.5q0 -27 -4 -49q13 -55 8.5 -92t-66 -136.5t-90 -117t-61.5 -13.5q-49 -109 -356 -108q-219 0 -324 65q-18 12 -61 11q-33 18 -53 52t-53.5 43t-108.5 48q10 20 39 139 q20 2 39.5 -1t19.5 -1l37 -72q-8 0 -25 -4l-49 72q4 -10 -4 -20q-6 24 -6 34l12 37l49 15q16 37 72 106q43 -41 80 -86q12 -12 47 -12l23 -4q47 -39 108.5 -48t85.5 -18l35 -37q25 -4 78 -4t76 4q25 23 73 45q12 8 12.5 17.5t41.5 66.5q4 27 -23 86q-31 10 -37 48.5 t-10 72.5l94 -4l19 2l-31 -55l33 -14q-115 -29 -224 -27zM684 467q0 57 -55 57q-23 0 -41.5 -23.5t-18.5 -45.5l13 -123q102 102 102 135zM468 -110q32 19 32 43t-27 67l-27 4q-66 0 -65 -67l8 -66q47 0 79 19z" />
<glyph unicode="t" horiz-adv-x="1085" d="M739 154l11 -166q0 -29 84 -35h100q10 -102 12 -137h2l4 -47q4 -41 -16 -115l-35 -35l281 53q-322 -86 -357 -86q-78 0 -220.5 64t-160.5 131q-2 8 -6 22l-116 54q80 45 79 61l-18 209l12 471v172q-41 29 -41 37q0 49 37 49h2v4q-55 25 -141 74v227q39 2 139 15 q10 61 10 139l-6 282l64 21l24 27q78 -25 236 -19q6 -29 27.5 -89t21.5 -93t-14.5 -95.5t-14.5 -82.5q0 -34 27 -88q55 -4 190 -39l-14 -174q16 -12 16 -32t-24.5 -36t-77.5 -21q-67 -5 -104 -30v-78q0 -49 -29 -86q2 0 3 -1t3 -1q20 -49 19 -117l-3 -65l-2 -21q0 -2 -2 -6 q6 -61 2 -182t-4 -135zM428 883q0 -31 -102 -193q-12 74 -13 129q0 125 60 125q55 0 55 -61zM201 1159.5q16 -20.5 16 -52.5t-141 -435q29 358 28 428q0 16 19.5 48t40.5 32t37 -20.5zM428 592q0 -31 -102 -148l-11 134q-2 27 14.5 50t43.5 23q55 0 55 -59zM395 403l-55 -8 q-61 0 -61 72q31 47 116 74v-138zM111 766q0 -39 -105 -330l-8 293q0 16 21.5 59t35.5 43q56 1 56 -65zM428 367q0 -31 -102 -191q-12 70 -13 127q0 125 60 125q55 0 55 -61zM119 391l12 211l92 -2l-12 -211zM414 287q0 -39 -101 -101l-12 95q0 66 53 65q18 0 39 -19.5 t21 -39.5zM215 354q0 -33 -100 -145l-11 133q-6 72 54 72q57 -1 57 -60zM428 225q0 -35 -137 -358q25 283 24.5 321.5t18 69.5t39.5 31q55 -1 55 -64zM229 283q0 -41 -139 -367q29 297 29 333.5t18.5 65.5t36.5 29q55 0 55 -61zM214 180q15 -23 15 -52.5t-145 -434.5 q33 342 33 426t59 84q23 0 38 -23zM223 -188q-55 0 -81 27.5t-25.5 62.5t106.5 147v-237zM229 969q0 59 -57 59t-57 -96q0 -29 5 -60t7 -51q102 115 102 148zM211 -90v237q-109 -115 -109 -148.5t27 -61t82 -27.5z" />
<glyph unicode="u" horiz-adv-x="1568" d="M725 713l-59 -6q-59 0 -58 73l117 111v-178zM901 596q0 -74 -102 -188l6 260h96v-72zM893 498q0 -37 -92 -88q-23 66 -23 88q0 57 56 57q16 0 37.5 -18.5t21.5 -38.5zM705 737q0 -25 -6.5 -45t-96.5 -276l-10 303q0 16 19.5 50t37.5 34q56 0 56 -66zM719 631 q0 -31 -144 -346q29 283 29 319.5t17.5 61t40.5 24.5q57 0 57 -59zM866 350q0 -20 -7 -33.5t-58 -87.5q-53 88 -53 113t20 43t47 18q51 0 51 -53zM1374 948l8 -248q0 -29 -16 -103t-16 -79q0 4 32 -24l7 -35v-17l-3 -12q-25 -31 -40 -47h4q27 -63 26.5 -264t-18.5 -342 l-31 -6h39l-6 6l14 -33q6 -166 -252 -166l-45 6q-27 33 -29.5 37t-31.5 17l4 71l-2 15l16 -21l45 12l-30 -43q-31 -23 -57.5 -22.5t-105.5 -40.5t-124 -41t-99 17t-69 22q-98 20 -164 84q-104 104 -127 119q-25 55 -44.5 167.5t-22.5 133.5q8 2 43 16q-25 29 -25 63.5 t9 73.5t7 60l-26 43v39l12 18v27q3 -9 9.5 -25t6.5 -18l-59 49l41 32q-2 20 -2 42t4 181t-4 240l53 15v41l133 -41v-62l-43 45l-37 -26q2 4 2 10v10q8 61 93 62q-4 0 112 -21q35 -115 35 -301q0 -102 -41 -190q43 -74 43 -199l-16 -156l14 -12l-6 -72q0 8 10 15 q26 -46 19 -76q0 -20 45 -36.5t90 -16.5l22 -45q35 20 70 20q6 -2 18 -10v4q35 2 50 6q48 43 79 61q-4 4 -6 31l2 31l27 27q-4 31 -4 94l2 24l26 39v10q0 17 -18 107q29 20 29 115q0 20 -13.5 63t-13.5 68l14 176l-16 135q0 25 8 66q18 8 22.5 14t16.5 39q72 -23 86 -51h2 q-6 -25 -35 -25q4 31 19 68q137 -14 229 -60zM719 449q0 -35 -105 -95l-12 86q0 66 57 66q16 0 38 -18.5t22 -38.5zM893 295q0 -29 -102 -180l-13 164q-2 16 16.5 45.5t41.5 29.5q57 0 57 -59zM731 397q0 -37 -104 -92l-11 88q0 61 56 62q59 -1 59 -58zM878 194.5 q15 -22.5 15 -48t-105 -269.5l-10 254q0 20 18.5 53t42.5 33t39 -22.5zM301 705l-12 -179l-96 4q0 -29 14 179zM719 233q0 -29 -105 -182l-10 162q-2 20 15.5 50t42.5 30q57 -1 57 -60zM115 569q-111 0 -111 80q0 39 111 139v-219zM705 121q0 -33 -101 -137l-12 127 q0 25 17.5 46t39.5 21q56 0 56 -57zM293 494q0 -29 -100 -177l-13 162q-2 20 14.5 47t41.5 27q57 0 57 -59zM307 238q0 -41 -104 -93l-13 84q0 63 58 64q16 0 37.5 -18.5t21.5 -36.5zM307 174q0 -39 -106 -94l-11 86q0 63 58 63q16 0 37.5 -18.5t21.5 -36.5zM131 281 q0 -29 -100 -177l-15 162q-2 20 15.5 48t42.5 28q57 0 57 -61zM121 211q0 -39 -107 -90l-10 82q0 23 15.5 44t39.5 21q62 0 62 -57zM150 133q0 -25 -23 -43t-43 -20l-51 57q0 -2 -2 -6v10q-2 6 -2 8q0 53 60.5 53t60.5 -59zM131 37q0 -39 -90 -90q-25 72 -25 88q0 57 56 57 q18 0 38.5 -18.5t20.5 -36.5zM143 -16q0 -29 -102 -140l-12 127q0 18 19.5 44t37.5 26q57 0 57 -57zM418 -260q-96 -16 -387 -41l219 113q0 -25 -19 -35q23 -4 29 -21l6 72h72q12 0 41 -25.5t39 -62.5zM700 432v227q-111 -113 -110.5 -143.5t27 -57t83.5 -26.5zM905 55 q0 59 -55 60q-16 0 -36.5 -38t-20.5 -58.5t-37 -395.5q149 395 149 432zM332 47q0 57 -60 57q-55 0 -55 -61l12 -86q103 53 103 90zM893 -55q0 -29 -102 -131l-13 123q0 66 60 65q55 0 55 -57z" />
<glyph unicode="v" horiz-adv-x="1361" d="M692 647q0 -31 -102 -143l-12 129q0 23 18 46t41 23q55 0 55 -55zM678 584q0 -31 -103 -144l-10 125q-2 18 15.5 46t40.5 28q57 0 57 -55zM666 532q0 -35 -103 -92l-10 88q0 61 53 62q60 -1 60 -58zM641 455q0 -31 -100 -131l-13 122q0 66 56.5 66t56.5 -57zM176 975 l82 8q57 0 107 -47v-45l30 -19q10 -37 19.5 -114.5t15.5 -96t32.5 -50t26.5 -56t-8 -45.5q10 -6 23 -12q10 -23 11 -37t-1 -34t-2 -32q0 4 6 -2q47 -37 47 -80q0 -12 -6 -24q35 -33 35 -109q0 -20 33 -67q25 33 32 98.5t27 120.5l35 24l4 21q4 20 4 24t-8 21.5t-6 32.5l4 57 h26q2 51 33 156l13 -13v27q-2 18 -3 31q53 18 78 10q2 0 -8 26.5t-3 68.5t30 155q18 2 207 31q39 -18 131 -35v-115q0 -37 -26 -70.5t-26 -91.5l-6 -45l-32 -18q-10 -37 -35 -111l-19 -10q4 -35 4 -47l-2 -27l-37 -47q0 -4 1.5 -13t1.5 -16l-7 -36l-20 -11q0 -2 1 -6t1 -6 l-4 -27q-27 -37 -71 -181t-113 -183l2 -8q12 -25 12 -54q0 -2 -70 -223q-23 -18 -43 -22q2 -4 2 -7l-24 -8q-29 -10 -41 -10t-29 8l-25 -16q-29 -2 -78.5 6t-60.5 8q-8 29 -26 111l-27 14q-4 18 -4 90q0 6 -34 59.5t-36 106.5q0 4 -2 12q-49 45 -57 116t-17 87 q-53 96 -63 155t-23 128l-36 24q-12 37 -7 74l-34 49q-6 23 -7 35h-507l536 119q6 -6 15 -12q-2 4 -3 10q0 -16 -73 -17h-2h2q-17 21 -27 70q2 0 6 4t6 4l-36 45v25q0 37 39 70t83 47zM123 496q0 -31 -103 -142l-12 129q0 16 19.5 42t38.5 26q57 0 57 -55zM147 397 q0 -39 -102 -90l-12 80q0 66 55 66q18 0 38.5 -16.5t20.5 -39.5zM172 346q0 -29 -102 -141l-13 127q0 23 18.5 46t41.5 23q55 0 55 -55zM209 221q0 -37 -103 -96l-12 90q0 61 56 61q16 0 37.5 -18.5t21.5 -36.5zM786 281v215q-111 -96 -110 -138q-1 -77 110 -77zM606 373 q0 18 -21.5 36.5t-37.5 18.5q-55 0 -55 -63l8 -86q106 55 106 94zM592 322q0 55 -55 55q-23 0 -40.5 -22.5t-17.5 -45.5l13 -127q100 109 100 140zM717 147q0 18 -21.5 37t-38.5 19q-55 0 -55 -64l12 -84q103 53 103 92z" />
<glyph unicode="w" horiz-adv-x="2050" d="M1540 539q0 -39 -106 -90l-13 79q0 66 58 66q18 0 39.5 -17.5t21.5 -37.5zM1956 952q-16 -45 -32 -70.5t-44 -31.5q25 2 25 -43t-9 -86l-36 -47v-6q4 -20 4 -46t-27 -57t-33 -49.5t-16 -92t-23 -110.5l-26 -14q-27 -68 -27 -103.5t-12 -68.5l-21 -10v-29q0 -35 -14 -68 l-35 -34q0 -33 -10 -99q-16 -66 -54 -148.5t-73 -158.5h-264l-49 88q-6 18 -6 99q0 12 -32 76.5t-32 146.5q0 4 -25.5 45t-25.5 86t-39 148t-74 167q-14 -82 -33.5 -182.5t-38 -122.5t-32.5 -41q-4 -6 -1 -33.5t-3 -79.5l-31 -30q-33 -117 -64 -234q-55 -145 -161 -145 q-41 0 -107 16l-6 6q-12 -4 -24 -4t-54 27v39l21 -33q18 47 30 68q-43 -43 -48 -43t-5 2q-33 23 -33 127v12l-32 20q-12 31 -15.5 83.5t-34 97.5t-30.5 145l-35 23q-14 37 -14 96q-51 41 -52 139q0 23 -27.5 76t-27.5 104q0 2 -25.5 60.5t-25.5 120.5q0 8 -26.5 46 t-26.5 77.5t-11 78.5q199 37 328 35q16 -27 53 -55q4 -14 23 -115h14q8 -2 10 -2t213 -37l-178 -51q-31 -8 -47 -12q2 -49 5 -63.5t30 -48.5t27 -77l-13 -67q8 2 39 -45q16 -31 16.5 -75t26 -108.5t29.5 -85.5l-57 23l-19 6q4 -10 -6 -16l25 10q23 10 63 29q25 -41 25 -71 t-31 -46q0 12 10 16l2 2q-31 8 -31 23l-47 -17q47 2 76 -8q-2 2 -7 6t-7 7h2l-2 -3q10 23 26 80.5t39.5 90.5t24 99.5t51.5 119.5q6 37 23 112q29 53 69 168q8 41 16.5 84t30.5 78h19v41q41 -2 122 -2t121 -2q33 -72 103 -320l27 -26v-76q33 -39 38.5 -62.5t6 -61t4.5 -42.5 l12 -16q37 -49 37 -150q0 -25 51 -115q14 35 22.5 108t16.5 101l29 15q27 70 26 182q0 37 36 106t32 112.5t-4 51.5l4 31l35 37q-4 16 -4 27q0 47 61 84.5t119 37.5l41 -24q41 -3 176 -23zM1022 301q0 -35 -104 -94l-15 86q0 66 58 65q18 0 39.5 -18.5t21.5 -38.5zM592 721 q0 -31 -103 -137l-14 127q0 23 19.5 45t42.5 22q55 0 55 -57zM612 498q-59 0 -86 25.5t-26.5 57t112.5 138.5v-221zM1008 250q0 -31 -103 -137l-12 127q0 20 19.5 43.5t37.5 23.5q58 0 58 -57zM983 166q0 -37 -104 -96l-13 90q0 61 56 61q18 0 39.5 -18.5t21.5 -36.5z M934 -23q0 -35 -107 -92l-10 90q0 61 55 62q62 -1 62 -60zM895 -147q0 -29 -102 -187l-13 170q-2 20 15.5 48t42.5 28q57 0 57 -59zM911 -279l-192 7q-49 6 -49 47q0 51 51 49q86 1 190 -103zM1589 723q0 57 -58 57t-58 -63l10 -86q106 53 106 92zM1565 612q0 18 -21.5 37 t-38.5 19q-57 0 -57 -64l8 -88q109 57 109 96zM1513 414q0 55 -55 55q-25 0 -43 -23.5t-18 -46.5l12 -129q104 113 104 144zM1462 250q0 57 -58 57t-58 -119q0 -45 10 -114q106 143 106 176zM1440 154q0 20 -21.5 38.5t-44.5 18.5t-38 -20.5t-15 -43.5l8 -86q111 54 111 93z M707 291q0 55 -58.5 55t-58.5 -63l8 -86q109 53 109 94z" />
<glyph unicode="x" horiz-adv-x="1517" d="M1026 999l223 15q27 0 158 -29q-18 -23 -41 -80q-12 -70 -84 -86l2 -14q0 -12 -14 -98h-35q-29 -59 -49.5 -93t-57.5 -57q-4 -7 -26 -80q-14 -29 -49 -63q-23 -20 -45 -41q-23 -27 -23 -44.5t1 -28.5t1 -15q31 -37 73 -116t68 -112q23 -12 66 -53q12 -20 18.5 -52 t8.5 -36q63 -35 63 -100q0 -6 53.5 -44t57.5 -91q-113 -100 -265 -101q-76 0 -136 85t-60 149q0 4 -66 68q-77 75 -82 108l-12 6q-74 -119 -233 -346v-45q-57 -20 -93.5 -20.5t-137.5 10t-201 10.5q43 57 137 155q31 33 30.5 60.5t20.5 56.5l18 8q12 68 19 82q16 39 63 47 q-2 12 -2 33l41 19q41 59 93 134.5t52.5 100.5t-34.5 65t-64 72v27l-26 16q-8 14 -19 62q-10 16 -62.5 90t-131.5 213q-8 6 -62 47v49l54 47q33 12 41.5 12t37.5 -4q29 -25 45 -30q61 12 103.5 12t95.5 -33l12 -55q41 -29 90.5 -112t51.5 -83q33 -4 74 -10t79 -78 q-68 -25 -99.5 -28.5t-49.5 -10.5l24 76q43 -43 39 -43q4 0 13 12q-51 16 -101 31q129 54 176 70v14q-2 10 -2 14q0 47 27 66.5t51 36.5q23 25 43 70t39 83zM184 547q0 -39 -106 -94l-8 86q0 63 55 63q16 0 37.5 -17.5t21.5 -37.5zM848 -211q-150 6 -150 90l90 86zM971 -342 q0 -37 -103 -94l-14 86q0 63 57 63q16 0 38 -17.5t22 -37.5zM209 -190q0 -39 -105 -93l-10 84q0 63 56 64q16 0 37.5 -18.5t21.5 -36.5zM358 -428l-188 6q-47 0 -47 49t51 47q84 7 184 -102zM213 -410l-231 -14q37 141 135 131v-24l12 -2q29 -1 84 -91z" />
<glyph unicode="y" horiz-adv-x="1366" d="M1227 481q0 -41 -107 -92l-8 86q0 63 55 64q16 0 38 -20t22 -38zM1202 403q0 -37 -102 -98l-15 90q0 66 56 66q61 -1 61 -58zM586 494q0 -39 -103 -97l-12 92q0 63 55 64q60 0 60 -59zM655 166l-6 61l6 35l23 23v18q-2 14 -2 19q0 51 44 107t44 142q0 31 8 58l35 49 q2 12 0 32t-2 39t25.5 68t25.5 79t40 104.5t42 78.5q102 -10 354 -30q-49 -115 -100 -277q-6 -76 -6 -82q-11 -48 -41 -78l72 -82h-105q-14 -31 -28.5 -91.5t-22.5 -82.5l-33 -34q0 -6 1 -15.5t1 -31t-25.5 -53.5t-32.5 -50.5t-28.5 -111.5t-54.5 -144t-50.5 -135t-47 -133 t-29.5 -81t-17.5 -52.5t-35.5 -38.5q14 -23 14 -41q0 -39 -86 -184.5t-115 -160.5t-84 -16l-14 -22q-63 -23 -197 -23l-45 33q2 -2 6 -10q-6 2 -49 22l-2 158q0 96 60 104q16 57 71 58l54 -8q14 0 56 49t45 60t0 38t-3 43.5t20.5 59t20.5 63.5q0 20 -33 78.5t-33 81t6 39.5 q-37 37 -49 105.5t-44 108t-33 102t-35.5 108t-42 66t-13.5 85.5q-16 18 -41 64q-33 84 -82.5 261t-72.5 249q92 31 127 30l202 -14q47 -86 82 -199.5t66 -220.5h172q-74 -45 -148 -92v-6l17 -21q29 -37 29 -110q0 -2 1 -8t1 -11l36 -37q10 -31 15 -86l24 -12q0 -2 13 -102 q-2 -10 2 -27zM932 -360q0 -39 -103 -99l-12 90q0 66 55 66q60 0 60 -57zM881 -508q0 -43 -107 -90l-8 84q0 63 55 63q16 0 38 -19.5t22 -37.5zM842 -602q0 -29 -101 -139l-14 129q0 25 17.5 47t41.5 22q56 0 56 -59zM829 -666q0 -41 -104 -90l-10 82q0 66 55 66 q16 0 37.5 -20t21.5 -38zM778 -756q0 -41 -102 -94l-12 88q0 63 55 64q16 0 37.5 -20t21.5 -38zM598 442q0 57 -59 58q-55 0 -56 -66l13 -90q102 59 102 98zM625 362q0 20 -21.5 39t-38.5 19q-55 0 -55 -66l12 -86q103 57 103 94zM649 283q0 57 -57 57q-18 0 -37.5 -25.5 t-19.5 -44.5l12 -125q102 105 102 138zM702 127q0 57 -61 57q-25 0 -40 -21.5t-15 -43.5l8 -90q108 57 108 98z" />
<glyph unicode="z" horiz-adv-x="1155" d="M879 1012l-7 -94q-58 0 -106.5 11t-48.5 48q0 49 49 49q27 0 113 -14zM340 1026q64 0 162 -14l-2 -94q-80 0 -170 12q-43 6 -43 49q0 53 53 47zM901 123l-188 6q-47 0 -47 92l51 4q71 7 184 -102zM1174 -6q-242 -37 -556 -66l226 113q0 -25 -19 -35q20 -2 31 -20l6 71h43 q29 0 47 -2zM807 -98l53 4q55 0 98.5 -59.5t43 -93t-8.5 -44.5v-2q15 -14 23 -59l-53 -56l-240 -4q-133 0 -289 52q49 25 88 47q4 0 -10 2l43 82q31 -31 31 -62v-2q0 -72 2 -86q-211 -29 -404 -29h-161v37q-20 29 -18.5 86t-8.5 80q20 37 67 131h31q6 41 29 82h20 q18 57 25 70q20 37 55 43q6 14 19 41q12 37 73 110h19q29 59 57 121q41 63 107 64q-6 -12 -33 -13q8 25 39 74q16 18 16 41q0 47 51 72q-287 16 -329 14l-35 -39q-25 16 -51 30.5t-93 4.5q-6 53 -6 180l-10 80l43 45q49 18 87 18.5t98.5 -11t93.5 -11.5q51 12 75 10l48 -28 q84 33 204.5 32.5t216.5 -16.5l7 25l92 -13v-131q0 -96 -11 -137t-67.5 -83t-65.5 -62q-16 -49 -27.5 -65.5t-45.5 -47.5q-27 -20 -36 -55t-38 -76q-29 2 -37 -23q-14 -33 -47 -53q-27 -76 -29 -78q-20 -39 -61 -43h-4q-14 -12 -51 -63v-10q12 -20 12 -41t-37 -40.5 t-41 -39.5q41 -4 75 -4t126 15t145 11zM715 74q0 -29 -99 -180l-12 161q-2 20 14.5 48t40.5 28q56 0 56 -57zM739 909q-135 102 -174 105h-43q-33 -2 -45 -2q0 -94 49 -94l15 -3zM354 934q0 57 -59 57q-53 0 -53 -61l10 -88q102 57 102 92zM1030 39q0 18 -21.5 36.5 t-37.5 18.5q-53 0 -53 -61l8 -82q104 49 104 88z" />
<glyph unicode="&#xa7;" horiz-adv-x="1187" d="M633 1169q0 -26 -23 -49q-25 -10 -47 -10q-45 0 -45 43q0 27 31 64l29 6q55 -1 55 -54zM287 1147q0 -37 -99 -90l-10 82q0 63 53 63q14 0 35 -18.5t21 -36.5zM176 1407q-14 -211 -14 -346q-47 0 -76 35t-29 62.5t119 248.5zM297 1104q0 -35 -98 -96l-11 92q0 61 52 61 q57 0 57 -57zM715 1073l51 4q45 0 94 -53l78 -84h23q27 -49 51 -199h16q4 -74 -18 -137l10 -59q0 -59 -36 -127t-93 -90l-19 -27l-2 -4q4 -2 41 -29v-22q43 -37 43 -115l21 -10q10 -59 10 -98q0 -205 -130 -324t-318 -119q-51 0 -93 21l-20 30q-98 39 -100 39q-45 25 -78 80 q-68 113 -68 320q80 -6 246 -21q8 -49 22 -117q4 -4 59.5 -29.5t81.5 -25.5t91 41q14 35 33 55q0 61 -9 80q-10 29 -42 41t-99 39l-4 8h-8q-18 0 -51 23v2q-6 -2 -21 -2l-22 2l-35 35q-41 12 -77 24t-60.5 40t-38.5 42l-43 15l-13 32v15q-45 51 -45 153l7 135l-11 76l2 31 l29 39q-2 8 -2 28q0 66 98 136h-6v69q0 13 -29 45l-4 25q0 10 4 22h-2q-40 102 -16 232l18 10v12q0 18 19 56l18 12q8 82 74 113q61 20 123 43q72 35 114.5 34.5t73.5 -26.5q16 4 53 4t61 -34t32 -34q76 0 118 -130t41 -255l-141 -6q-70 0 -93 31t-34 102q-8 53 -91 53.5 t-107.5 -19.5t-24.5 -89q0 -29 -2 -23l29 -10l6 -6l24 -8q6 -31 6 -41q4 0 11.5 1t13.5 1l41 -6l12 -29q25 0 84 -18zM127 811q0 -29 -96 -137l-13 127q0 18 16.5 42.5t37.5 24.5q55 0 55 -57zM39 811q67 -41 67 -72t-96 -182l-12 178zM106 645q0 -33 -98 -133l-10 125 q-6 63 55 63q53 0 53 -55zM117 541q0 -37 -99 -90l-10 84q0 61 53 61q16 0 36 -17.5t20 -37.5zM133 70q-55 0 -81 25.5t-25.5 55t106.5 136.5v-217zM147 92q0 -41 -102 -86l-6 80q-4 61 53 61q55 -6 55 -55zM739 614q0 121 -26.5 153t-128.5 58l-15 11q-92 -39 -102 -48 q-45 -31 -45 -102q0 -16 6 -85t10 -73q39 -31 45 -75q39 -12 45 -11q-2 2 -20 11q8 6 82 6v-33q51 0 106 45q2 25 22.5 72.5t20.5 70.5zM508 453l-27 10v-10l2 -9l4 -32q1 25 21 41zM694 813q0 -37 -96 -94l-10 88q0 61 51 61q14 0 34.5 -18.5t20.5 -36.5zM705 768 q0 -27 -97 -186l-12 186l39 70q70 -31 70 -70zM717 614q0 -35 -101 -92l-10 84q0 63 53 64q16 0 37 -18t21 -38zM705 571q0 -31 -32 -54.5t-67 -35.5l-10 86q0 61 53 62q56 -1 56 -58zM496 817q59 -35 59 -69t-96 -269l-13 242q-2 35 50 96zM715 707q0 57 -56 57 q-20 0 -37.5 -24.5t-15.5 -43.5l10 -123q99 103 99 134zM565 666q0 55 -55 55q-20 0 -36.5 -23.5t-16.5 -42.5l12 -129q96 111 96 140z" />
<glyph unicode="&#xad;" d="M1270 739q-8 64 -8 78q0 72 52 72t52 -45q0 -25 -96 -105zM1243 891q0 -43 -53 -43l-21 2l-14 12q-23 18 -22 39q0 41 55 41l26 -4q29 -29 29 -47zM1296 893l-264 -16l-106 2v77h131l16 -2zM1237 856q27 -37 56.5 -77.5t29.5 -72.5t-47 -57q16 0 -37 -3q-122 -7 -139 22 l39 18q-25 16 -25 27.5t27 11.5l4 -76q-477 0 -549 -2l4 51q2 -2 2 -4l-2 47l4 7q-18 23 -61 69l88 55h102q23 0 58.5 -10t52.5 -12q39 14 65 14q143 0 191 2v-16q111 6 137 6zM840 905q0 -29 -99 -67l-6 65q0 16 15.5 31.5t35.5 15.5q54 0 54 -45z" />
<glyph unicode="&#xb0;" horiz-adv-x="612" d="M403 1794q0 -33 -92 -74l-8 66q0 57 50 57t50 -49zM246 1810q0 -27 -43 -53l-60 55q0 -8 -2 -12v10q0 47 52.5 47t52.5 -47zM289 1753q29 29 65 29q74 0 193 -51v-37l39 -17q-2 -39 10 -58.5t27 -41.5v-27q0 -72 -48 -170h-12v-12q-2 -8 -2 -10q-4 -33 -97 -74t-134 -41 l-39 4l-17 17q-53 4 -69.5 17t-40.5 62q-8 8 -19 15q-33 20 -55 106q35 -37 33 -39l31 72h53q78 -119 155 -113q35 14 97 54q14 12 14 59t14 82q-35 25 -112 66l-2 4h-72l-49 -56q-20 -47 -22.5 -87t-4.5 -87q-51 14 -123 13q-14 104 -10 135l29 37q-2 6 -15 59q18 12 70 63 l2 3v18q41 14 43.5 14t67.5 -8zM150 1630q0 -27 -23 -45q-4 0 -10 -6l-62 -39l-12 78q0 59 51 59q56 0 56 -47zM463 1659q0 16 -18.5 32.5t-32.5 16.5q-49 0 -50 -53l9 -72q92 43 92 76zM158 1651q0 49 -52 49q-47 0 -47 -51l9 -74q90 43 90 76z" />
<glyph unicode="&#xb4;" horiz-adv-x="579" d="M422 1444q0 -41 -55 -53l-45 53q0 -6 -3 -8v10q0 47 51.5 47t51.5 -49zM332 1554q-3 -3 -17 -10q4 -51 -69 -76q12 -41 -70 -69.5t-170 -26.5v164q13 -38 2 -53v4q-2 6 -2 15t1 17.5t1 12.5l64 43v6q0 131 129 145q89 11 125 29q33 -4 166 -18q-27 -33 -57.5 -78 t-76.5 -94h-4v-11h-22zM270 1399q0 -33 -90 -78l-8 72q0 53 49 53t49 -47z" />
<glyph unicode="&#xc4;" d="M1128 1407l-57 -8q-59 0 -59 74l116 110v-176zM993 1642l115 -4v-69q0 -2 -4 -4v8q12 -29 12 -45q0 -59 -67 -64l47 49v-57h-66l-8 -29l-35 -6q-25 0 -49 19h12l-53 28q-31 10 -35 50q0 27 74 114q31 10 57 10zM1018 1481l-6 -64v-16q0 -23 -17 -43q-18 -27 -43 -25 q-39 16 -55 33q-33 27 -33 53t18.5 42t40 16t95.5 4zM827 1442q-61 -41 -61 -70q-31 -27 -64 -31q-10 -16 -28 -24q8 8 24 29l-14 22q35 -27 100 -176l-196 100q14 53 14 70q23 -6 23 -88l41 76l-43 -25h-113l-10 45h-4l-78 148l47 -15q0 -12 4 90q31 10 68 17q20 29 53 28 q-20 0 123 -14l6 -18h6l35 -31q8 -35 6 -72zM557 1409q0 -29 -100 -139l-13 127q-2 18 15.5 43.5t40.5 25.5q57 0 57 -57zM346 1389l51 10q14 45 58 45q14 0 32.5 -19.5t16.5 -38t-2 -26.5q-16 10 -17 24l-26 -92q-16 0 -59.5 30t-53.5 67zM399 1421q0 -31 -104 -137l-8 125 q-2 20 14 45t41 25q57 -1 57 -58zM809 1171q-193 -29 -269.5 -36.5t-275.5 -22.5l223 111q0 -23 -18 -35q10 0 33 -33l8 82h35q29 0 45 -2zM395 1389q17 -51 17 -70.5t-18.5 -40.5t-41.5 -21l-35 15q-16 51 -16 70.5t17.5 40t41.5 20.5zM537 1149q0 -29 -103 -135l-10 125 q-2 18 15.5 42.5t39.5 24.5q58 0 58 -57zM537 1073q0 -35 -105 -90l-8 84q-2 20 14.5 41.5t40.5 21.5q58 0 58 -57zM494 1020q0 -31 -101 -139l-12 127q-2 18 15.5 42.5t39.5 24.5q58 0 58 -55zM473 756l-6 71q0 76 56.5 76t56.5 -55q0 -39 -107 -92zM524 860q0 -23 -7 -34 t-54 -83q-55 86 -55 110t20.5 42t44.5 18q51 0 51 -53zM592 997q0 29 22 117q6 0 13.5 1t11.5 1q-2 8 -2 38t20 89l58 39h96q55 -2 92 -25l12 -20h23q27 -45 31 -78v-92l53 -12v-39q12 -20 12 -47l-2 -17q25 -39 17 -100h2q63 -16 63 -115q0 -23 35 -98q33 -43 33 -56 t-8 -32q55 -49 55 -133q0 -12 22.5 -50t24.5 -83q41 -53 41 -133q13 -13 16 -19q39 -43 39 -113q0 2 16.5 -25.5t16.5 -48.5t-8 -38q27 -33 71 -105v-51q-66 -57 -94 -53l41 49l2 -59l-2 -49l-43 -43q-33 -10 -49 -11l-35 2q-27 2 -61 0l-23 70q-47 14 -59 53q-6 18 -6 74.5 t-72 167.5q-45 -6 -166 -6t-203 24l-18 -20q-31 -6 -81 -2t-56 4t-15.5 -2t-13.5 -2q10 -6 10 -8q-18 -59 -24 -74t-32 -49.5t-26 -63.5v-37q0 -137 -190 -137q-51 0 -170 19q6 20 20 100q8 39 45 61q10 35 10.5 83.5t26 68.5t25.5 65t37 82q-2 6 -2 33t35 62q12 12 12 42 t-10 89h43q31 100 70.5 229t66.5 156l24 6v31q0 78 78 147l-14 16q14 63 10 109q23 6 33 6v12zM334 606q0 -33 -98 -88l-15 84q0 63 55 64q58 -1 58 -60zM324 565q0 -37 -103 -90l-10 84q0 63 55 64q16 0 37 -20t21 -38zM303 500q0 -25 -18 -41t-82 -56l-15 91q0 63 57.5 63 t57.5 -57zM260 381q0 -37 -100 -90l-13 86q0 59 54 59q59 0 59 -55zM197 219q0 -39 -103 -90l-12 82q0 63 55 63q16 0 38 -18.5t22 -36.5zM293 12q0 -39 -107 -92q-6 68 -6 72q0 76 53 76q60 -1 60 -56zM154 121q0 -29 -103 -141l-10 126q-2 20 14.5 45t40.5 25q58 0 58 -55 zM143 55q0 -39 -102 -84l-10 78q0 63 53 64q59 -1 59 -58zM111 -10q0 -29 -101 -140l-12 127q-2 20 14.5 44t40.5 24q58 0 58 -55zM977 1466q0 53 -59 54l-25 -7q-31 -43 -31 -67q0 -57 92 -57q23 61 23 77zM702 1040v170q-119 -88 -118.5 -142t53.5 -54q20 0 28 5t37 21z M862 602q0 -42 58 -84q-6 -23 -5 -43l3 -33q57 -73 53 -198l-21 -6q-27 -8 -43 -9l-104 23q-6 0 -115 -29l-18 27q-29 0 -86 2l28 -33l-28 -33q25 2 293 76l-248 33q8 24 44 97t36 122v43l28 29q27 90 88 258l-75 -17q16 -14 49 -18q11 -51 63 -201v-6zM1006 303 q0 57 -60 57q-53 0 -53 -61l10 -86q103 53 103 90zM760 563q0 35 -72 74l-41 -74l12 -180q101 153 101 180zM1016 262q0 55 -56.5 55t-56.5 -63l10 -86q103 57 103 94zM1483 -326q0 45 -27 67.5t-55 22.5q-59 0 -60 -57q0 -29 45 -82l27 -2q45 -4 70 51zM406 451 q98 159 98 191t-72 73l-41 -78zM344 643q0 55 -56 55t-57 -63l11 -86q102 57 102 94zM950 -10q0 57 -56 57t-56 -61l14 -86q98 51 98 90zM850 180q-111 111 -244 111q-45 0 -149.5 -15.5t-165.5 -19.5l389 -72zM356 184q0 57 -59 58q-53 0 -53 -62l10 -86q102 53 102 90z M303 66q0 55 -57 55t-58 -111q0 -68 15 -123q100 150 100 179zM866 682q0 -29 -102 -172q-12 70 -12 117q0 115 59 114q55 0 55 -59zM909 573q0 -25 -100 -186l-12 186l39 70q73 -33 73 -70zM940 477q0 -29 -100 -131l-13 121q0 20 16.5 44t39.5 24q57 -1 57 -58zM969 281 q-35 6 -101 26q-39 12 -39 96h13q33 20 43 25q78 -28 84 -147zM782 487q0 -29 -104 -135l-8 125q-2 20 14 44t41 24q57 -1 57 -58zM791 434q0 -29 -97 -143l-14 135q0 20 16.5 43t36.5 23q58 -1 58 -58z" />
<glyph unicode="&#xd6;" horiz-adv-x="1353" d="M696 1505l-18 105l67 30q23 -6 41 -16q25 4 48 2q8 -8 51 -27l8 -47h51q12 -69 12 -92q0 -115 -112 -143q-43 -12 -197 -12q-6 47 -18 172q41 27 67 28zM852 1202l-164 6l-461 66q51 4 177.5 25t189.5 22q168 0 258 -119zM559 1503q8 -21 8 -40.5t-18 -45.5v-8l-74 41 q20 12 57 12l31 -30q0 -43 -43 -99q-27 -8 -41 -8l-16 -74l-219 113l162 33q0 -4 -13.5 -23.5t-17.5 -21.5q14 2 26 -45q-2 16 -5 47.5t-5 46.5q0 -8 -13 -25.5t-22 -19.5q4 -2 4 -39l9 33q-66 -47 -256 -47l204 96q0 -59 -2 -88q-18 10 -69 35l2 20v160l41 -13 q-18 41 -19 58q0 57 56.5 57t76.5 -55l-38 31q-10 -12 -201 4l235 22q35 2 60 -31h20q23 0 62 -28l-2 -31zM18 37l13 69q0 2 -16.5 42t-16.5 69q0 74 33 99.5t108 45.5l-24 -30l20 -31q-39 14 -121 39q-18 147 -18 193t24 96q0 70 11 207l39 16h-17l-6 27q29 53 72 63 q6 45 59 66q0 33 12 82l56 55q-4 -6 -6 -8q20 4 34 4q35 0 35 -27q0 -20 -18 -51q8 6 12 6q-12 31 -12 70.5t40 71.5t101 32t62 -76q-27 -2 -33 23l-37 -47l-21 114l82 11v20q45 -2 82 0l45 2q80 0 131 -28q16 -33 13 -33q37 4 52 4t46 -10l14 -23q6 2 21.5 2t48.5 -20 l10 -52l88 -45v-36l51 -5v-104q-47 -10 -100 -10l29 18l-25 58q37 -12 139 -37q8 -41 27 -66l4 -22q0 -23 -10 -39l18 -54q14 -59 16.5 -169.5t6.5 -147.5l-33 -51q0 29 4 29l-2 2q27 -66 27 -97l-17 -229q0 -86 -9 -122t-50 -81q-4 -6 -14 -22v-39q-35 -49 -96.5 -86 t-80 -63t-35 -42.5t-46.5 -21.5l-27 -2q-37 -2 -59 14l2 -22v-103l6 25l16 82q12 55 17 57q2 0 4 -51q-49 -14 -72 -13l-22 -24q-55 -20 -133 -20.5t-241 68.5t-186 153q-41 14 -52 32t-17 66q-2 4 -29.5 44t-28.5 83zM760 1540q0 55 -60 55q-59 0 -59 -57v-16q2 2 2 6 l70 -53q47 28 47 65zM549 1337q0 18 -25 70l-32 8q-57 0 -58 -53q0 -20 27 -74l33 -6q25 0 40 18.5t15 36.5zM426 1231v201q-109 -86 -109 -119t27 -57.5t82 -24.5zM901 707v208q-106 -96 -106 -135q0 -73 106 -73zM881 688l-13 -211q0 -31 25 -104q-4 -14 -6 -35t-2 -29 q0 -47 24 -63l-16 53q-2 -2 -2 -6h4q23 0 33 22q-14 -8 -15 -32q0 -52 35 -52q-35 20 -69 41v-30q12 -25 24 -41q0 2 -1 3t-1 3l6 18q-37 -57 -55 -139q-10 -49 -74 -86q-72 -45 -86 -68h10q4 2 7 2l-15 3l-39 6q-10 -35 -22 -74l45 35h-43l-8 20l-39 2l-82 -10h-10l34 -20 l-28 43q-33 14 -60 14q-10 0 -6 -2q-8 23 -33 65q-12 12 -43 23q-23 27 -33.5 109t-19.5 149q-12 12 -20 12q-25 -10 -25 -90l29 88q31 94 31 137q-20 51 -21 52q0 16 11.5 50t11.5 53t-8.5 62.5t-6.5 65.5q8 4 23 84v2l-23 -35q14 10 21.5 14.5t25.5 16.5q10 33 11 57v6 q0 78 -2 60l-58 -43q80 -18 94.5 -18.5t100.5 40.5q-20 20 -32.5 33.5t-37.5 38.5l-6 -76q57 45 69.5 45t30.5 -6l6 92q-29 -8 -57 -41q10 -70 68 -69l30 4l41 35h21q27 0 51 -6l8 -21q20 -6 49 -16q45 -10 49.5 -13.5t15.5 -40t42 -69.5t31 -113zM807 616l10 117h94 q0 -31 -6 -104l-2 -25q-4 -49 -47 -49q-49 0 -49 61zM905 575q0 -37 -96 -88l-14 84q0 61 53 62q57 -1 57 -58zM915 532q0 -37 -100 -90l-10 88q0 59 53 60q57 -1 57 -58zM915 449q0 -33 -100 -97l-10 92q0 61 53 62q57 0 57 -57zM940 377q-37 -31 -66 -31t-45 11.5 t-16 21.5t28.5 30.5t39.5 20.5q49 0 59 -53zM358 901q62 -32 62 -64t-96 -141l-17 148zM406 621q-55 0 -82.5 24t-27 56t109.5 130v-210zM393 524q-55 0 -81 26t-25 50q0 37 106 133v-209zM399 492q0 -35 -100 -97l-10 92q0 61 53 62q57 0 57 -57zM788 -16l-55 -7 q-59 0 -59 76l114 103v-172zM406 266q-109 0 -109 78q0 37 109 125v-203zM397 416q0 -29 -96 -140l-12 130q0 68 53 67q55 0 55 -57zM430 279q0 -37 -100 -93l-11 84q0 66 54 66q20 0 38.5 -17t18.5 -40zM760 -104l-236 6q0 92 8 98h29q33 0 199 -104zM408 545q0 57 -56 57 q-23 0 -39 -24.5t-14 -45.5l10 -129q99 113 99 142z" />
<glyph unicode="&#xdc;" horiz-adv-x="1366" d="M981 1536q-29 -215 -28 -233.5t1 -98.5q-51 0 -80 34t-28 58q0 39 135 240zM739 1640q38 -3 107 -24q27 20 90 31q6 -52 18 -134l-32 -43q14 10 26 11q-4 -16 -4 -183q-23 2 -77 2t-79 9l-30 30l-35 -12l-64 41q12 -6 13 -22q-4 4 -39 30q18 70 18 101q4 -8 4 -17 q18 14 35 15q25 0 37 -37q6 14 14 18l-18 -10q-37 -20 -48 -20.5t-22.5 16t-11.5 33.5q0 43 61 53q14 2 91 2l-39 -53l4 -7q-2 2 -8 3h-7l-12 2q-8 0 -59 12v92q14 12 30 27l13 6q4 4 24 28zM801 1290q0 -37 -101 -90l-10 86q0 61 53 62q58 -1 58 -58zM573 1366 q-63 -20 -92 0l68 66q14 -33 14 -64l-20 -41q-45 -29 -91.5 -29t-175.5 21q-2 23 -18 90t-16 97t39 91q2 4 16 45q59 -6 174 -20v256q-14 -111 -43 -252q59 0 119 6q-2 -72 26 -207l-16 -6q16 -28 16 -53zM516 1280q0 -31 -96 -139l-12 129q0 18 16 41.5t37 23.5 q55 0 55 -55zM467 1098q0 -10 -6 -27l-19 -51q-47 14 -86 46t-41 60q43 37 82 37q70 1 70 -65zM123 1264l139 -4v-21l64 -12l-33 -131q-84 10 -283 24v99q41 45 113 45zM397 915q-72 45 -100.5 68t-28.5 48.5t11.5 37.5t23.5 25q94 -31 94 -56v-123zM455 944q0 -37 -101 -90 l-10 82q0 63 53 63q16 0 37 -18.5t21 -36.5zM404.5 936q25.5 -20 25.5 -45t-18.5 -40t-38.5 -15l-19 2q-51 37 -51 67q0 51 51 51q25 0 50.5 -20zM483 674q-109 0 -108 78q0 37 108 125v-203zM487 674q0 -37 -102 -94l-10 86q0 63 56 63t56 -55zM897 160l-4 116h2l-4 7 q2 -10 2 26l4 2l-16 13q0 4 8 316t45 482q43 -6 96 -20q15 30 57 37l-26 -35l43 -39q-98 -16 -118 -16t-58 12q-41 68 -41 93.5t24 37.5q10 25 29 31q6 2 43 2l6 14q35 12 96 37l56 -21q-2 2 -13 17q59 -4 60 -55v-5l4 -2l4 -55l-2 -86l12 -12q-2 -2 -17 -32t-15 -49 t18 -118h-86l37 39l-6 14q8 -8 12 -10l4 -4q43 -31 43 -72t-16 -90q18 -51 18 -69.5t-3 -88t1 -112.5q-10 -20 -10 -57q8 -72 8 -62v-20q-8 -10 -16 -23q16 -20 16 -52t-59 -122l-5 -4l5 4l-17 29q57 -31 58 -95q0 -141 -86 -206v-60q-43 -35 -76 -26q-8 -31 -19 -43 q-57 -78 -258 -123q4 -12 8 -27q35 85 39 92l2 -22v-56q-8 0 -19 -1t-17 -1q-1 0 -64 -10t-103 -10t-91 41v-4l-56 -8q-27 0 -65 24q-111 39 -148 71t-108 132q-18 18 -38 36.5t-20 65.5l-23 35q-24 35 -24 60.5t4 35.5q-20 10 -20 55t6 150q-4 18 -2 219l2 389l8 5 q6 72 6 95t-22 191h108q8 -23 29 -71l-10 -25q-18 8 -23 35l-28 -21l47 97q49 -10 90 6q33 -66 33 -90q0 -63 -62 -64q-92 0 -92 39q0 29 68 64l22 -70q2 2 10 6l-4 4q4 -8 -12 -25.5t-31 -17.5l45 66q16 0 172 -19q-47 -86 -73 -96q-6 -8 -10.5 -42t-47.5 -56l-4 -23h2 q2 0 29 -6l80 -96q-27 -80 -27 -101l12 -71l-10 -19l10 -10q-2 -59 3 -167t6 -150l-19 -129v-5q4 0 8 -2q21 -20 31 -73q47 -47 94 -97q61 -53 117 -53l123 8q2 0 4 1q17 8 119 77q49 35 47 84q16 27 32.5 55.5t16.5 53.5zM487 608q0 -37 -102 -94l-10 88q0 63 55 64 q57 -1 57 -58zM471 467q-106 0 -106 76q0 35 106 145v-221zM465 487q0 -37 -100 -90l-11 88q0 59 54 60q57 -1 57 -58zM487 444q0 -29 -100 -180l-12 160q-2 20 15.5 49t41.5 29q55 -1 55 -58zM508 229q0 -39 -105 -94l-6 86q-2 20 14.5 42t39.5 22q57 -1 57 -56zM328 944 q0 55 -56 55q-23 0 -39 -20.5t-16 -42.5l16 -127q95 104 95 135zM285 887q0 70 -68 69h-6q-6 -2 -8 -2l-13 -96l-98 2q88 53 94 76l64 -31q-18 84 -45 84t-49 -80q-8 -27 -13 -92l105 -33q37 68 37 103zM309 813q0 57 -55 57t-55 -61l10 -94q100 65 100 98zM862 -51 q0 53 -59 53t-60 -53v-17q2 4 2 11l64 -56q12 6 32.5 28t20.5 34z" />
<glyph unicode="&#xdf;" horiz-adv-x="1630" d="M1350 969q-152 31 -179 30q-70 10 -69 62q0 18 24 47q16 -6 27 -12l6 39h35zM1366 1102q-84 -279 -137 -279t-53 60l6 32q82 83 184 187zM1317 801q0 -33 -105 -185q-14 72 -14 127q0 117 62 117q57 0 57 -59zM1397 137l12 201l96 -2q0 -68 -14 -201zM1497 102 q0 -31 -106 -182l-11 162q-2 18 17.5 50t42.5 32q57 -1 57 -62zM1309 395q-10 -199 -11 -344q-51 0 -82 38t-30.5 70.5t123.5 235.5zM864 618q0 -37 -108 -98l-8 90q0 23 16 44.5t36.5 21.5t42 -19t21.5 -39zM1311 -80q-111 0 -111 80q0 41 111 143v-223zM862.5 601 q16.5 -22 16.5 -48.5t-109 -316.5l-8 288q0 18 20.5 58.5t42 40.5t38 -22zM1200 1198l-6 -162q2 -8 2 -37.5t-38 -93.5t-89 -84l-2 -18q31 -33 88 -103q6 2 21.5 2t99.5 -43q-51 -41 -68.5 -52t-50.5 -17l35 63q23 -68 22.5 -203.5t-18.5 -271.5q23 -43 23 -94t-14.5 -100 t-28.5 -97l-2 -2l90 -61q-90 -45 -150 -35h-6q8 2 29 2h10q0 16 -3 12q-5 -7 -10 -17.5t-21.5 -29t-20.5 -65.5l-7 -84q-55 23 -84 51q-86 -45 -168 -56t-235 -12q-10 113 -10 176.5t12 151.5q23 4 150 16v152l96 2q4 -35 8 -106l4 2l-6 43q0 25 12.5 67.5t14.5 63.5l-21 22 q-12 45 -12 88t12 128t12 128q0 72 -75 94q-41 12 -136 13q-12 -63 -98 -78q-8 135 -18 405q35 4 147.5 4.5t140 20t27.5 118.5t-57 129t-211 30l-86 -13l-6 4q-55 -31 -101 -30l-123 18q-10 57 52 49q-6 0 -13 37l107 -33v-92q-26 -38 -55 -57q-16 -22 0 -114.5t16 -127.5 l-14 -264l14 -238l-16 -274l18 -289q0 -47 -15 -133t-18 -113l-194 -8q-55 0 -267 72l160 -37l-35 41q-2 10 -9 33.5t-7 46.5t8 83t6 93l6 8l-6 6l15 207q0 27 -13.5 82t-13.5 93t12.5 134.5t12.5 136.5t6 58l-15 18q-4 20 -4 39v17q0 147 13 495l14 19q-2 4 -2 14 q0 53 49 152l102 94q63 49 125 49q5 0 68 59h80l20 -75l-37 34q8 2 13 2q45 51 70.5 66.5t118.5 15.5t222 -51q162 -63 183 -166q51 -2 94 -37q-2 -41 0 -51q55 -53 55 -135zM858 455q0 -31 -6 -129l-2 -33l-14 -47q-51 0 -67.5 11t-18.5 62q0 -18 14 140zM1303 -68 q0 -31 -103 -141l-12 129q0 18 18.5 45t38.5 27q58 -1 58 -60zM666 328q0 -78 -103 -193l6 268l97 -2v-73zM657 223q0 -39 -104 -94l-12 86q0 66 55 66q18 0 39.5 -19t21.5 -39zM1069 -287l131 -12l-2 -98q-8 0 -108 8l-27 2l-45 10q0 90 51 90zM657 -18q0 -39 -151 -449 q37 373 37 410.5t19.5 68.5t37.5 31q57 0 57 -61zM657 -211q0 -29 -104 -143l-12 131q0 18 19.5 43.5t39.5 25.5q57 0 57 -57zM670 51q0 59 -58 60q-25 0 -42 -29t-15 -51l12 -170q103 157 103 190z" />
<glyph unicode="&#xe4;" horiz-adv-x="1343" d="M1128 1024q0 -33 -102 -94l-12 92q0 61 57 61t57 -59zM858 1051l-72 6q-15 0 -36 -14q-30 -20 -76 -11l-33 25q4 0 8 -2l-39 55l15 94l2 -2q-18 37 -18.5 62t5.5 61l31 14q0 6 17 58q102 -20 100 -21h8q31 23 53 33l49 -6q68 -18 68 -74v-8q11 -2 23 -6q-2 -31 -2 -122 t-48 -122q2 4 7 4q0 20 14 35q-16 12 -16 39q35 -27 30 -55q-63 -43 -90 -43zM1090 942q-100 -16 -365 -33l205 109q0 -27 -19 -37q25 -2 31 -23l8 74h82q42 -4 58 -90zM930 1026q0 -31 -99 -145l-14 133q0 25 18.5 46t41.5 21q53 0 53 -55zM1174 608q0 -39 -103 -88l-10 82 q0 63 53 64q20 0 40 -17.5t20 -40.5zM1196 551q0 -39 -98 -96l-15 90q0 63 56.5 63t56.5 -57zM600 948q-55 0 -84 31q-23 20 -22.5 52t106.5 136v-219zM532 1186q0 -39 -40 -62q6 55 16 56q12 0 12 -35t-28 -107l-97 13l-8 -19q-113 -2 -156 33t-50 110.5t-13 153.5 q66 16 90 17h6l10 36l43 11q12 0 19 -2q20 12 67 12q109 0 109 -94q0 -14 -4 -31v-8l24 -49v-35zM1192 164q-109 0 -109 80q0 39 109 133v-213zM1184 182q0 -33 -103 -137l-8 121q-2 20 14.5 46t40.5 26q56 -1 56 -56zM1182 104q0 -35 -6 -102q-2 -23 -25 -51.5t-30 -28.5 t-27.5 21.5t-20.5 45.5t14 124zM1184 -94q0 -29 -103 -178q-10 70 -10 118q0 119 56.5 119t56.5 -59zM371 406l88 -15q2 2 4 6q14 8 41 31q39 0 84 -25v3q45 16 125 20q6 31 6 61q0 104 -148 127q-27 -8 -100.5 -8t-97.5 -8l-35 -35q-27 -8 -105 -39q-102 84 -114 107 q-23 35 -43 164q49 35 101 68.5t114 33.5q39 25 53 27h49q12 12 41 32q59 -29 109.5 -29.5t105.5 -0.5l35 -23q31 14 86 8l14 -28l7 -2q66 -14 81 -23q35 -16 58 -59l47 -29q8 -10 14 -43v-8q25 -33 27 -47t-4 -31q27 -53 39 -170q-10 -29 -23 -88q10 -14 10 -76v-407 q16 -3 174 -62l-122 -37q-29 -6 -99 -6l47 53q8 -70 9 -106q0 -37 -13 -143q-135 -18 -203.5 -18.5t-115.5 36.5v31h-2q-8 0 -10 -2q-20 -35 -52 -41q8 2 -63 2q-16 0 -51 -35q-39 -6 -60 -6h-166l-10 31q-37 -6 -39 -7l-43 7l-14 30q-102 47 -174 180l-25 13 q-31 82 -31 182.5t33 157.5q51 66 101 129q24 61 49 65q53 16 111.5 33.5t99.5 18.5zM905 358q-143 104 -198 105h-58l-2 -98h27zM567 -84l78 -4q33 0 55 57q-33 12 -127 54l148 34q-2 27 -6 58l12 2q-6 0 -16 6h-6q-25 -8 -50 -8l-37 4l-24 16l-2 -2q-4 -14 -39 -51 q-25 10 -59 37q-43 0 -64 -4v-41q-18 -2 -33 -2q-78 0 -75 84l67 -45q-25 -4 -51 -13q-14 -27 -24.5 -36.5t-32.5 -14.5q-6 -14 -7 -31q0 -55 78 -98t160 -43q23 0 35 2q0 -23 -29 -29l17 -14zM444 98q0 -31 -98 -139l-14 129q0 66 59 66q53 -1 53 -56zM457 53q0 55 -60 56 q-53 0 -53 -62l12 -92q101 59 101 98z" />
<glyph unicode="&#xf6;" horiz-adv-x="1280" d="M766 1415l168 -16v-74l29 -31q8 -38 8 -67t-12.5 -85t-22.5 -106q-72 10 -205 6l-22 48q18 16 28 22q-25 -10 -39 -10l-30 4l-50 49q2 29 3 125q0 135 145 135zM778 1081q-27 -18 -46.5 -61t-72.5 -225l-18 305q-2 43 33 67q16 16 33 17q16 0 39.5 -32t31.5 -71z M553 1008q-109 0 -109 77q0 37 109 138v-215zM530 1098q-33 -20 -70.5 -44t-67.5 -24t-64 10l-25 -14q-90 33 -90 145q0 59 39 222l88 -7l12 3l37 24q104 -2 133 -121q10 -51 8 -194zM606 1001q-35 -43 -78 -43l-45 62v-10l-2 6v12q0 53 56 53q23 0 45 -20q24 -27 24 -60z M248 1133q0 -39 -105 -95l-8 86q0 66 56.5 66t56.5 -57zM41 256q-20 45 -20.5 64t22.5 65q-12 25 -8 82l24 14q-4 33 -4 54l4 34l37 37v21q0 55 63 104t64 53q14 51 33.5 70.5t67.5 19.5l6 15q25 14 100.5 37.5t95.5 23.5q221 0 281 -53q39 -35 61.5 -35t53.5 -24l28 -50 q10 -12 47 -24q20 -33 21 -68h-4q47 -24 55 -84l18 -8q26 -101 21.5 -179.5t-4.5 -104.5t12 -73.5t12 -72.5t-12 -68t-12 -75.5t-17 -71.5l-32 -35v-24q0 -23 -19 -66q-61 -39 -129.5 -117.5t-129 -114.5t-153.5 -36t-171 18q-18 14 -35 26.5t-47 12.5q-61 0 -147.5 81 t-92.5 149l-45 12q-10 66 -22.5 130t-53.5 118v176zM121 549q0 -31 -103 -187l-10 166q-2 18 16.5 48t38.5 30q58 0 58 -57zM741 1038q0 55 -53 56q-23 0 -40 -21.5t-17 -46.5l12 -129q98 110 98 141zM856 514q0 57 -55 57t-56 -63l13 -88q98 59 98 94zM756 -25 q100 240 100 266.5t-15.5 47t-37.5 20.5q-23 0 -40.5 -31.5t-17.5 -52.5zM807 176v6q0 47 -11.5 143.5t-11.5 147.5q0 12 -34 37q-23 31 -27 68l-2 6q-14 2 -85.5 18t-109 16t-63 -28.5t-23.5 -69.5h-45v-2q0 -12 -14 -43l-25 -16q0 -45 15 -131q-25 -84 -25 -167t6 -120 q16 -12 52.5 -49t101.5 -62l4 -6q10 4 51 4l23 -24q20 0 49 6q57 57 96 61q-4 4 -6 4q33 51 57 78v66l2 33zM811 86q0 57 -57 57q-25 0 -41.5 -26.5t-14.5 -46.5l11 -119q102 104 102 135zM92 307v215q-109 -100 -108 -137q-1 -78 108 -78zM92 176v219q-109 -106 -108 -141 q-1 -78 108 -78zM852 395q0 -70 -98 -207l4 275h94v-68zM656.5 562q15.5 -20 15.5 -48.5t-101 -263.5l-10 248q0 20 17.5 52t39.5 32q23 0 38.5 -20zM584 207q-11 55 -13 108q0 90 58 91q55 -1 55 -58q0 -31 -100 -141zM696 289q0 -37 -102 -92l-10 84q0 66 53 65 q59 0 59 -57zM672 227q0 -31 -101 -184l-10 166q-2 20 14.5 48t40.5 28q56 -1 56 -58zM868 299q0 57 -56 57t-56 -63l12 -84q100 55 100 90zM684 430q0 57 -57 57q-23 0 -39.5 -24.5t-14.5 -44.5l9 -129q102 112 102 141z" />
<glyph unicode="&#xfc;" horiz-adv-x="1239" d="M604 1231q-8 24 -18 39v55q37 16 51 18l8 35l64 31q-2 0 -3 1t-4 1q20 4 28.5 4t17.5 -4q20 6 38 4l103 -4l45 -190h-94l45 63q18 -59 26 -201q-178 -25 -184 -24q-55 0 -154 49v152q30 19 37 22q0 -16 -24 -37zM856 938q-47 -25 -47 -43l-92 4l-6 100l92 50zM532 1262.5 q15 -19.5 15 -45t-101 -267.5l-10 248q0 20 17.5 52t40.5 32t38 -19.5zM163.5 1393q24.5 20 50 20t67.5 -24q14 6 73 22l35 -125l-45 -35q-31 49 -31 76t37 100q76 -57 107.5 -96t31.5 -94l-4 -147l-63 -46q-25 -4 -125 -4t-137 -4q4 94 -6.5 156.5t-22.5 148.5h8v5 q0 27 24.5 47zM426 1149q-10 -190 -10 -334q-49 0 -79 37t-30 66.5t119 230.5zM551 1014q-293 -86 -326 -90l41 47v-76l-45 -8q-63 0 -63 78l26 57q43 16 110.5 16t161 -12t95.5 -12zM438 924q-12 -229 -12 -336q-49 0 -78 37t-29 67.5t119 231.5zM811 344q0 -31 -98 -184 l-13 166q-2 20 14.5 47.5t41.5 27.5q55 0 55 -57zM1071 575l-16 -620q0 -2 1 -5t1 -5l26 -25q2 -78 -43 -321q-250 0 -288 -7q-6 55 -7 89q-61 -39 -121.5 -75t-159 -36t-228 65.5t-160.5 169.5q-2 6 -6 21q-43 33 -47 70v77q0 55 -12.5 167t-12.5 155t12.5 97t12.5 82 t-12.5 86t-12.5 129t18 140l15 17q-8 29 -6 92q43 -2 77 0l43 2q68 0 64 -82q6 -10 6 -34.5t-25 -45.5l-24 39q-18 -55 -94 -174q104 317 182 567v-274h53q2 -16 17 -356l14 -117q0 -41 -25 -74l31 -43q10 -66 10 -96l-12 -168q0 -70 55.5 -123t142 -53t119.5 28q8 16 19 41 q11 24 51 37q-6 25 -6 54l4 43l18 8l-14 188q0 25 6 82l25 25l2 6v24q0 41 -15.5 126t-13.5 130l25 47q2 33 -17 152q51 41 88 41l80 -10l-41 -86l-18 41l-4 -4l39 61q43 -8 170 -20l-10 -54q-4 2 -9 13l6 -66l17 -4q14 -51 14 -92l-4 -148q-29 -12 -63 -20q2 2 18 10l10 -2 l-14 33q-2 0 -6 4l8 -2q4 0 47 -17zM432 435q0 -77 -51 -77q-8 0 -28 21t-20.5 50.5t5.5 68.5t6 45h94zM342 213l-12 109q0 92 57 92q55 -1 55 -58q0 -31 -100 -143zM659 156q-78 -14 -372 -35l215 108q0 -23 -19 -34q10 0 29 -33l8 84h64q10 0 37 -23q30 -30 38 -67z M584 53l-9 -96q-22 0 -112 10q-43 10 -43 49q0 51 49 52q-14 -1 115 -15zM836 700q0 59 -60 60q-53 0 -53 -64l8 -82q105 47 105 86zM834 641q0 57 -56 57q-18 0 -37.5 -25.5t-17.5 -41.5l10 -125q101 102 101 135zM807 457v221q-109 -104 -109 -143q0 -78 109 -78zM350 932 l-39 76q0 -6 7.5 -24.5t11.5 -18.5q-20 -16 -21 -37l-153 -94l71 124q0 -31 16.5 -57.5t45.5 -23.5l26 2zM420 772q0 59 -58 59q-53 0 -53 -65l10 -84q101 55 101 90zM432 834q0 -31 -100 -142l-13 129q0 25 17.5 47.5t40.5 22.5q55 0 55 -57z" />
<glyph unicode="&#x2000;" horiz-adv-x="939" />
<glyph unicode="&#x2001;" horiz-adv-x="1878" />
<glyph unicode="&#x2002;" horiz-adv-x="939" />
<glyph unicode="&#x2003;" horiz-adv-x="1878" />
<glyph unicode="&#x2004;" horiz-adv-x="626" />
<glyph unicode="&#x2005;" horiz-adv-x="469" />
<glyph unicode="&#x2006;" horiz-adv-x="313" />
<glyph unicode="&#x2007;" horiz-adv-x="313" />
<glyph unicode="&#x2008;" horiz-adv-x="234" />
<glyph unicode="&#x2009;" horiz-adv-x="375" />
<glyph unicode="&#x200a;" horiz-adv-x="104" />
<glyph unicode="&#x2010;" d="M1270 739q-8 64 -8 78q0 72 52 72t52 -45q0 -25 -96 -105zM1243 891q0 -43 -53 -43l-21 2l-14 12q-23 18 -22 39q0 41 55 41l26 -4q29 -29 29 -47zM1296 893l-264 -16l-106 2v77h131l16 -2zM1237 856q27 -37 56.5 -77.5t29.5 -72.5t-47 -57q16 0 -37 -3q-122 -7 -139 22 l39 18q-25 16 -25 27.5t27 11.5l4 -76q-477 0 -549 -2l4 51q2 -2 2 -4l-2 47l4 7q-18 23 -61 69l88 55h102q23 0 58.5 -10t52.5 -12q39 14 65 14q143 0 191 2v-16q111 6 137 6zM840 905q0 -29 -99 -67l-6 65q0 16 15.5 31.5t35.5 15.5q54 0 54 -45z" />
<glyph unicode="&#x2011;" d="M1270 739q-8 64 -8 78q0 72 52 72t52 -45q0 -25 -96 -105zM1243 891q0 -43 -53 -43l-21 2l-14 12q-23 18 -22 39q0 41 55 41l26 -4q29 -29 29 -47zM1296 893l-264 -16l-106 2v77h131l16 -2zM1237 856q27 -37 56.5 -77.5t29.5 -72.5t-47 -57q16 0 -37 -3q-122 -7 -139 22 l39 18q-25 16 -25 27.5t27 11.5l4 -76q-477 0 -549 -2l4 51q2 -2 2 -4l-2 47l4 7q-18 23 -61 69l88 55h102q23 0 58.5 -10t52.5 -12q39 14 65 14q143 0 191 2v-16q111 6 137 6zM840 905q0 -29 -99 -67l-6 65q0 16 15.5 31.5t35.5 15.5q54 0 54 -45z" />
<glyph unicode="&#x2012;" d="M1270 739q-8 64 -8 78q0 72 52 72t52 -45q0 -25 -96 -105zM1243 891q0 -43 -53 -43l-21 2l-14 12q-23 18 -22 39q0 41 55 41l26 -4q29 -29 29 -47zM1296 893l-264 -16l-106 2v77h131l16 -2zM1237 856q27 -37 56.5 -77.5t29.5 -72.5t-47 -57q16 0 -37 -3q-122 -7 -139 22 l39 18q-25 16 -25 27.5t27 11.5l4 -76q-477 0 -549 -2l4 51q2 -2 2 -4l-2 47l4 7q-18 23 -61 69l88 55h102q23 0 58.5 -10t52.5 -12q39 14 65 14q143 0 191 2v-16q111 6 137 6zM840 905q0 -29 -99 -67l-6 65q0 16 15.5 31.5t35.5 15.5q54 0 54 -45z" />
<glyph unicode="&#x2013;" horiz-adv-x="1737" d="M1448 739q-10 64 -10 78q0 72 64.5 72t64.5 -45q0 -25 -119 -105zM1414 891q0 -43 -66 -43l-26 2l-18 12q-28 18 -27 39q0 41 69 41l32 -4q36 -29 36 -47zM1480 893l-329 -16l-131 2v77h163l19 -2zM1406 856q34 -37 70.5 -77.5t36.5 -72.5t-58 -57q20 0 -46 -3 q-152 -7 -173 22l49 18q-32 16 -32 27.5t34 11.5l5 -76q-593 0 -683 -2l5 51q2 -2 2 -4l-2 47l5 7q-22 23 -76 69l109 55h127q29 0 73 -10t66 -12q48 14 80 14q178 0 238 2v-16q138 6 170 6zM913 905q0 -29 -124 -67l-7 65q0 16 19 31.5t44 15.5q68 0 68 -45z" />
<glyph unicode="&#x2014;" horiz-adv-x="2761" d="M2352 739q-20 64 -20 78q0 72 129.5 72t129.5 -45q0 -25 -239 -105zM2285 891q0 -43 -132 -43l-52 2l-35 12q-57 18 -55 39q0 41 137 41l65 -4q72 -29 72 -47zM2417 893l-657 -16l-264 2v77h326l40 -2zM2270 856q67 -37 140.5 -77.5t73.5 -72.5t-117 -57q40 0 -92 -3 q-304 -7 -346 22l97 18q-62 16 -62 27.5t67 11.5l10 -76q-1187 0 -1366 -2l10 51q5 -2 5 -4l-5 47l10 7q-45 23 -152 69l219 55h254q57 0 145.5 -10t130.5 -12q97 14 162 14q356 0 475 2v-16q276 6 341 6zM1282 905q0 -29 -246 -67l-15 65q0 16 38.5 31.5t88.5 15.5 q134 0 134 -45z" />
<glyph unicode="&#x201c;" horiz-adv-x="649" d="M459 1679q-63 2 -99.5 38t-35.5 61q0 47 77 47q15 -50 58 -146zM580 1559h-127q0 -2 1 -10.5t1 -14.5l41 -39q-55 -35 -123 -43t-133 -14q86 86 141 86q25 0 25 -31q0 -14 -16 -29q-21 -17 -71 -22l-4 4q-49 35 -67.5 96.5t-34.5 118.5l12 8q6 25 6 31v16q0 33 23 66 l49 14l76 -27q33 -80 45 -127q9 -3 156 -83zM236 1800q0 -29 -66 -69q-33 55 -33 73q0 45 49.5 45t49.5 -49zM274 1610q-74 0 -85 26.5t-25 94.5l82 20q28 -90 28 -141zM74 1810l78 -12q46 -176 120 -313q-94 -47 -112 -47q8 0 -84 20q-80 170 -88 232v2q-4 12 -15 39 q27 51 41 65t60 14zM446 1462q0 287 -57 287q-45 0 -45 -47q0 -20 8 -39t94 -201zM150 1794q0 47 -48.5 47t-48.5 -43q0 -20 33 -72q64 39 64 68zM178 1761q0 49 -50 49t-50 -45q0 -16 37 -69q63 38 63 65z" />
<glyph unicode="&#x201e;" horiz-adv-x="765" d="M608 -141q-20 -49 -55 -146q-80 -4 -82 43q0 23 38 61t99 42zM420 -166q0 -33 -115 -80q18 125 64 125q51 0 51 -45zM553 -412h-98q-12 -33 -27 -49l10 -31q-55 -25 -112 -24q-18 -10 -74 -10l-33 47q2 41 29 94l45 90l18 8q30 10 23.5 11.5t-19.5 1.5l-4 -2l6 -9 q27 -29 27 -37q-12 14 -37 39q16 14 50.5 55.5t97.5 53.5l86 -37q-43 -106 -76 -170l-31 59q27 -6 119 -90zM328 -184q-92 -180 -125 -314q-86 -35 -119 -34q-27 10 -92 26q29 80 84 234l16 8l-2 4q0 4 16 47q63 53 123 53q9 1 99 -24zM326 -174q0 45 -50 45q-45 0 -63 -125 q113 47 113 80zM332 -211.5q0 22.5 -17.5 37t-31.5 14.5q-49 0 -60 -129q37 18 55.5 28.5t36 18.5t17.5 30.5zM379 -246l-82 27l-17 -30q-16 -30 -24 -60l-2 -49q72 0 90.5 32.5t34.5 79.5zM551 -262q-4 41 -44 41t-58 -49q-4 -12 -197 -392l278 349q21 24 21 51z" />
<glyph unicode="&#x202f;" horiz-adv-x="375" />
<glyph unicode="&#x205f;" horiz-adv-x="469" />
<glyph unicode="&#xe000;" horiz-adv-x="1013" d="M0 1014h1014v-1014h-1014v1014z" />
</font>
</defs>
</svg>
